<?xml version="1.0" encoding="utf-8"?>
<!-- Generator: Adobe Illustrator 15.0.0, SVG Export Plug-In . SVG Version: 6.00 Build 0)  -->
<!DOCTYPE svg PUBLIC "-//W3C//DTD SVG 1.1//EN" "http://www.w3.org/Graphics/SVG/1.1/DTD/svg11.dtd">
<svg version="1.1" id="Calque_1" xmlns="http://www.w3.org/2000/svg" xmlns:xlink="http://www.w3.org/1999/xlink" x="0px" y="0px"
	 width="820.2px" height="176.9px" viewBox="15.3 337.5 820.2 176.9" enable-background="new 15.3 337.5 820.2 176.9"
	 xml:space="preserve">
<g id="Layer_2">
</g>
<g id="Layer_1">
	<g>
		<path fill="none" d="M300.5,405.1L300.5,405.1L300.5,405.1L300.5,405.1z"/>
		<path fill="none" d="M350.7,406.8L350.7,406.8C350.7,406.8,350.801,406.8,350.7,406.8c0.101,0,0.101-0.1,0.2-0.1
			c0-0.1-0.1-0.1-0.1-0.2C350.801,406.6,350.801,406.7,350.7,406.8C350.801,406.8,350.7,406.8,350.7,406.8z"/>
		<path fill="none" d="M257.3,342.5c0.101,0,0.101-0.1,0.2-0.1c-0.1,0-0.1,0-0.2,0l0,0l0,0V342.5h-0.1c0,0.1,0,0.2-0.1,0.2
			C257.2,342.7,257.3,342.6,257.3,342.5z"/>
		<path fill="none" d="M634.1,484.1h-7.5v4.2v7.2v14.3h7.5c7.899,0,13.5-5.3,13.5-12.8c0-4-1.601-7.4-4.2-9.7
			c-1.4-1.2-3-2.1-4.9-2.6C637.1,484.3,635.7,484.1,634.1,484.1z"/>
		<path fill="none" d="M19.4,510H30.3c5,0,7.9-2.2,7.9-5.8c0-2.3-1.3-3.9-3.7-4.8c-1.3-0.5-2.899-0.7-4.899-0.7H29.3h-10V510H19.4z"
			/>
		<path fill="none" d="M258,510.6L258,510.6L258,510.6L258,510.6L258,510.6c0.101-0.1,0.101-0.199,0.101-0.3
			c-0.2,0.101-0.4,0.2-0.5,0.2C257.7,510.6,257.9,510.6,258,510.6L258,510.6z"/>
		<path fill="none" d="M60.6,497.1H65.8h2.9h1.9c1.199,0,2.3-0.199,3.3-0.399c0.8-0.2,1.5-0.601,2.2-1c0.3-0.2,0.6-0.5,0.899-0.7
			c1.2-1.1,1.9-2.7,1.9-4.5c0-0.5,0-0.9-0.101-1.4c-0.6-3.199-3.6-5-8.1-5h-10v7.101v5.899H60.6z"/>
		<path fill="none" d="M384.2,484.1h-6.5h-1.1v1.4v7.1v7.101v10.1h7.5c3.399,0,6.3-1,8.6-2.6c1.9-1.4,3.3-3.3,4.101-5.5
			c0.5-1.4,0.8-3,0.8-4.7c0-3-0.9-5.7-2.4-7.8c-1.1-1.5-2.5-2.601-4.1-3.5C389.2,484.7,386.9,484.1,384.2,484.1z"/>
		<path fill="none" d="M297.9,508.4c2,1.3,4.3,2,6.9,2c1.3,0,2.5-0.2,3.699-0.5c4.4-1.301,7.601-4.9,8.7-9.601
			c0.2-1,0.4-2.1,0.4-3.2c0-7.699-5.5-13.5-12.8-13.5c-7.301,0-12.7,5.801-12.7,13.4c0,2.8,0.699,5.3,2,7.4
			C295,506,296.3,507.4,297.9,508.4z"/>
		<path fill="none" d="M98.1,482.5c-0.101,0-0.101,0-0.2,0l0.1,0.1L98.1,482.5z"/>
		<path fill="none" d="M19.4,489.8v3.601v1.5h2.3H29c4.601,0,7.4-2.2,7.4-5.801c0-1.5-0.601-2.699-1.601-3.6
			c-1.199-1-3.1-1.6-5.5-1.6H26h-6.5v2.399v3.5H19.4z"/>
		<path fill="none" d="M555,433.7C554.9,433.8,554.9,433.8,555,433.7C554.9,433.8,555,433.8,555,433.7
			C555,433.8,555,433.8,555,433.7z"/>
		<path fill="none" d="M497.4,425.4C497.4,425.4,497.4,425.5,497.4,425.4C497.5,425.5,497.5,425.4,497.4,425.4
			C497.5,425.4,497.5,425.4,497.4,425.4z"/>
		<path fill="none" d="M272.3,388.2c-0.1,0-0.199,0.1-0.3,0.1c0,0,0,0.1,0.101,0.1C272.1,388.3,272.2,388.2,272.3,388.2z"/>
		<path fill="none" d="M554.9,433.8L554.9,433.8L554.9,433.8L554.9,433.8z"/>
		<path fill="none" d="M295.3,388.6c0.101,0,0.2-0.1,0.301-0.1C295.5,388.5,295.4,388.5,295.3,388.6L295.3,388.6z"/>
		<path fill="none" d="M396.4,364.6L396.4,364.6L396.4,364.6L396.4,364.6L396.4,364.6L396.4,364.6z"/>
		<path fill="none" d="M454.6,339.7h0.1v-0.1C454.6,339.6,454.6,339.6,454.6,339.7z"/>
		<path fill="none" d="M392.2,417.1C392.2,417.1,392.1,417.2,392.2,417.1C392.2,417.2,392.2,417.2,392.2,417.1
			C392.2,417.2,392.2,417.1,392.2,417.1z"/>
		<path fill="#2D1216" d="M811.1,487l14.5,18.4c1.1-0.9,2.6-1.2,4.2-1L811,480.4l-0.1-0.101h-3.8v33.4h4V487L811.1,487z"/>
		<path fill="#2D1216" d="M833.7,469.6c0-1.5,0-3-0.2-4.5C832.2,449.9,822.1,434.7,806.9,420.7c0.1,1.8,0,3.6,1,5.3
			c0.9,1.5-1.1,3.3-1.6,5c-0.4,1.2-0.5,2.1,0.3,2.8c0.6,0.5,1,1.101,1.2,1.7C825.1,449.9,833.9,462.5,833.7,469.6z"/>
		<path fill="#2D1216" d="M831,510.6c-0.199,0.301-0.5,0.5-0.699,0.7l1.8,2.3l0.1,0.101h3.2V510.6c-0.1,0-0.2,0-0.2,0
			C833.801,510.6,832.4,510.6,831,510.6z"/>
		<path fill="#2D1216" d="M792,509.1V495.7H787.6c-1.3,0.7-3,0.8-5.3,0.6c-1.5-0.2-2.9,0.101-4.301,0.5v2.7h10v7.9
			c-2.5,2-6,3.199-9.3,3.199c-5.899,0-10.3-3.199-12-8.3c-0.7,0.3-1.2,0.8-1.1,1.7c0.3,1.9,1.5,3.8,3.5,4.4
			c2.8,0.899,2.8,2.5,2,4.399c2.2,1,4.7,1.601,7.5,1.601C785.301,514.3,789.9,511.1,792,509.1L792,509.1z"/>
		<path fill="#2D1216" d="M835.4,506.2v-3.7c-0.8-0.3-1.5-0.7-2.1-1.3c-1.2-1.3-1.2-2.8,0.399-3.8c2.601-1.601,0.5-3.101,0-4.7
			c-1.1-0.5-1.8-1.101-2.399-1.8v14c0,0,0.1,0,0.1,0.1C832.801,505.5,834.301,505.5,835.4,506.2z"/>
		<path fill="#359E9F" d="M89,397.5c1.5,0.2,2.3,0.5,1.7-1.5c-0.3-1.1-0.3-2.4,1.2-2.2c3.1,0.4,5.8,0,7.899-3.1
			c-1.199,5.2,0.801,6.7,5.101,6.2c1.2-0.6,2.5-1.1,3.7-1.7c-0.101-0.4-0.2-0.9,0.3-1.1c0.6-0.3,1,0,1.399,0.4
			c0.301-0.2,0.7-0.3,1-0.5c0.101-2.2-0.699-3.7-3.6-4.3c-2.8-0.6-3.1-2.8-1.1-4.8c3.699-3.9,5.8-4.3,11-2.2
			c0.8,0.3,1.699,1.1,2.399,0c0.5-0.8,0.601-2.1-0.2-2.5c-2.199-1.3-1.199-2.9-0.899-4.5c0.1-0.5,0.2-1,0.399-1.4
			c-13.699,5.9-27.1,12.7-39.6,20.2c1.9,0,3.8,0.2,5.7,0.6C86.8,395.2,87.2,397.3,89,397.5z"/>
		<path fill="#74ABA8" d="M62.9,417.9c1.2-0.1,1.6-0.9,1.1-1.9c-0.899-1.8,0.101-3,1-4.3c-0.399-0.2-0.8-0.4-1.2-0.6
			c-0.899-0.4-1.899-1.2-1.3-2c0.601-0.7,2-0.8,3.101-0.7c1.3,0,1.399,0.9,0.899,1.9c0.9,0.4,1.4,1.1,1.4,2.1l0,0l0,0
			c0.7,1.2,2.3,2.2,2,3.7c0.7-0.4,1.3-0.8,2-1.2c-0.2-1.4-0.3-2.7-0.5-4c-0.3-1.7-1-3.5-2.9-3.8c-2.1-0.3-3-1.5-3.6-2.9
			c-2.9,2-5.7,4-8.4,6.1c1.4,0.2,2.5,0.8,3.9,1.9C62.5,413.7,61.6,416.1,62.9,417.9z"/>
		<path fill="#74ABA8" d="M24.8,482.9L24.8,482.9c0.5-0.9,0.7-1.9,2-2.101c0.7-0.1,1.2-0.3,1.5-0.6H20.4c0.1,0.1,0.2,0.3,0.2,0.399
			C21.7,482.3,22.8,483.3,24.8,482.9z"/>
		<path fill="#74ABA8" d="M21,450c-0.7,1.6-1.3,3.2-1.899,4.7c0.6-0.601,1.199-1.3,1.6-2.101C21,451.9,21.1,450.9,21,450z"/>
		<path fill="#74ABA8" d="M17.9,480.3h-2.5v1.7C16.3,481.7,17.1,481.2,17.9,480.3z"/>
		<path fill="#74ABA8" d="M19.6,460.7c-0.7-0.101-1.301-0.3-2-0.4c-0.601,3.101-0.9,6.2-0.801,9.3C16.7,467.3,17.6,464.2,19.6,460.7
			z"/>
		<path fill="#619EAA" d="M35.8,499.3c-0.399,0-0.899,0.101-1.199,0.101C37,500.3,38.3,501.9,38.3,504.2c0,3.6-3,5.8-7.899,5.8h-11
			v-11.3h10c-0.4-0.3-0.8-0.4-1.3-0.5c-2.5-0.5-4.4-1.8-6.4-3.2h-2.3v-1.5c-1.2-0.8-2.5-1.7-4.101-1.8v22h14.9
			c7.5,0,12.2-3.5,12.2-9.2c0-2-0.601-3.7-1.8-5C39,499.7,37.4,499.2,35.8,499.3z"/>
		<path fill="#619EAA" d="M57.8,510.7c-0.399-0.4-0.899-0.601-1.3-0.9v3.8h2.4C59.3,512.8,59.2,511.9,57.8,510.7z"/>
		<path fill="#47A4B7" d="M60.4,491.5c0.1-0.1,0.1-0.2,0.2-0.2v-7.1h10c4.5,0,7.5,1.8,8.1,5c0.9-0.8,1.8-2,3-1
			c1.1,1-0.7,1.6-1.1,2.399c-0.2,0.5-0.5,1.101,0,1.601c0.399,0.399,1,0.5,1.199,0.1c0.5-0.7,0.9-1.1,1.2-1.3c0-0.2,0-0.4,0-0.7
			c0-6.1-4.8-10-12.1-10h-2.3c-0.2,0.2-0.301,0.5-0.4,0.9c-0.2,0.7-1,1.3-1.6,0.899c-2.5-1.199-6.101,2-8-1.8H57.3
			c-0.199,0.2-0.3,0.3-0.399,0.4c-0.101,0.1-0.2,0.2-0.3,0.3v13.1C58,493.8,59.3,493.1,60.4,491.5z"/>
		<path fill="#47A4B7" d="M97.1,481.3c0.199,0.4,0.399,0.9,0.8,1.2c0.1,0,0.1,0,0.2,0c0.6-1,1.399-1.8,2.399-2.2H97.1V481.3z"/>
		<path fill="#47A4B7" d="M15.4,486.6c1.2-0.1,2.399-0.3,3.6-0.199c0.101,0,0.3,0,0.4,0V484h6.5c-0.4-0.3-0.8-0.7-1.101-1.1
			c-2,0.3-3.1-0.601-4.1-2.301c-0.1-0.1-0.1-0.199-0.2-0.399h-2.6c-0.8,0.899-1.601,1.399-2.5,1.7V486.6z"/>
		<path fill="#47A4B7" d="M34.8,485.6C35.9,486.5,36.4,487.7,36.4,489.2c0,3.6-2.8,5.8-7.4,5.8h-7.2c2,1.3,3.9,2.7,6.4,3.2
			c0.4,0.1,0.9,0.2,1.3,0.5h0.3c2,0,3.601,0.2,4.9,0.7c0.4,0,0.8,0,1.2-0.101c1.6-0.2,3.2,0.4,4.8,0.101c-0.8-1-1.9-1.7-3.4-2.4
			c-1.699-0.4-3.399-0.2-5.199,1.2c1.1-2.101,2.8-3,4.8-2.5c2.399-1.601,3.7-4,3.7-7c0-1.3-0.301-2.5-0.801-3.601
			c-1.399,0.301-2.699,0.601-4.1,0.5C35.3,485.6,35,485.6,34.8,485.6z"/>
		<path fill="#47A4B7" d="M67.6,497.4c0.5,0,0.8-0.101,1.1-0.301h-2.9C66.2,497.5,66.9,497.4,67.6,497.4z"/>
		<path fill="#47A4B7" d="M19.4,489.8c-1.3,0.5-2.7,0.7-4.101,0.8v1.101c1.601,0,2.801,1,4.101,1.8V489.8z"/>
		<path fill="#1781A3" d="M19.4,486.4c-0.101,0-0.3,0-0.4,0c-1.2-0.101-2.399,0.1-3.6,0.199v4c1.399-0.1,2.8-0.3,4.1-0.8V486.4H19.4
			z"/>
		<path fill="#4C1415" d="M719.7,484.3c1.7,0.601,3.3,1.5,4.9,2.8l0.2,0.101l2.399-3.2l-0.1-0.1c-0.9-0.7-1.7-1.301-2.6-1.801
			c-0.4,0.101-0.9,0.101-1.301,0.101C721,482.1,719.9,482.7,719.7,484.3z"/>
		<path fill="#4C1415" d="M763.9,489.9c1.1-2.2,3.6-2.301,5.5-3.301c0.9-0.5,1.8-0.899,2.7-1.3c1.2-0.8,2.6-1.3,4-1.5
			c0.9-0.3,1.8-0.7,2.7-1.1c1.399-0.601,2.5,0,3.6,0.3c2.6,0.8,5.3,1.5,8.1,1.3c0.101,0,0.2,0,0.301,0l0,0l-0.101-0.1
			c-3.7-3.101-7.3-4.4-12.399-4.4c-7.5,0-13.7,4.9-15.9,11.8C763,491.2,763.5,490.6,763.9,489.9z"/>
		<path fill="#4C1415" d="M746.7,512.9V480.3h-4.1v33.4h3c0.2-0.101,0.4-0.2,0.6-0.4C746.4,513.2,746.6,513.1,746.7,512.9z"/>
		<path fill="#4C1415" d="M789.801,415.7c-0.101-0.2-0.2-0.6-0.2-0.6c1.899-1.5,2.3-3.9,2.899-6.2c-13.8-10.3-30.1-19.8-47.1-28.1
			c-0.7,2.9,2.7,3.7,4.3,4.8c1.8,1.2,3.101,2.7,4.2,4.3c1.6,2.3,2.6,4.8-0.9,6.8c-1.1,0.6-2,1.5-2.899,2.4
			c14.6,7.1,27.3,14.5,38.1,21.7C790,419.9,790.7,418.3,789.801,415.7z"/>
		<path fill="#4C1415" d="M719.6,500c3.5,1.3,4.2,2.8,4.2,5c0,3.3-2.9,5.5-7.2,5.5s-7.601-1.3-11.2-4.6l-0.1-0.101L703.5,507.9
			c1,0.8,1.4,1.8,1.5,2.8c3.5,2.5,7.101,3.6,11.5,3.6c6.9,0,11.5-3.8,11.5-9.6c0-4.4-2.5-7.2-8.3-8.9c0.101,0.5,0.3,0.9,0.4,1.4
			C720.5,498,720.301,499.1,719.6,500z"/>
		<path fill="#3B131A" d="M769.1,508.3c-2-0.6-3.2-2.5-3.5-4.399c-0.101-0.9,0.399-1.4,1.1-1.7c-0.5-1.601-0.8-3.3-0.8-5.3
			c0-5.101,2.5-9.4,6.2-11.601c-0.9,0.4-1.8,0.8-2.7,1.3c-1.8,1-4.4,1.101-5.5,3.301c-0.4,0.699-0.9,1.3-1.4,1.699
			c-0.5,1.7-0.8,3.601-0.8,5.5c0,7.301,3.7,13,9.5,15.7C771.9,510.8,772,509.1,769.1,508.3z"/>
		<path fill="#3B131A" d="M782.301,496.2c2.399,0.2,4,0.1,5.3-0.601H778v1C779.4,496.3,780.801,496.1,782.301,496.2z"/>
		<path fill="#3B131A" d="M806.301,431c0.5-1.7,2.5-3.5,1.6-5c-1-1.7-0.9-3.5-1-5.3c-4.4-4-9.2-8-14.3-11.8
			c-0.7,2.2-1.101,4.6-2.9,6.2c-0.1,0.1,0.101,0.4,0.2,0.6c0.9,2.6,0.1,4.2-1.6,5.1c7.399,5,13.899,9.8,19.6,14.5
			c-0.2-0.6-0.6-1.2-1.2-1.7C805.801,433.1,805.9,432.2,806.301,431z"/>
		<path fill="#3B131A" d="M746.7,512.9c-0.2,0.1-0.3,0.3-0.5,0.399c-0.2,0.101-0.399,0.2-0.6,0.4h1.1V512.9z"/>
		<path fill="#3B131A" d="M782.5,483c-1.199-0.4-2.3-1-3.6-0.3c-0.9,0.399-1.8,0.7-2.7,1.1c0.7-0.1,1.4-0.2,2.101-0.2
			c5,0,7.699,1.801,9.899,3.7l0.101,0.101l2.6-3.101c-0.1,0-0.2,0-0.3,0C787.801,484.5,785.1,483.8,782.5,483z"/>
		<path fill="#280F0F" d="M833.801,497.3c-1.601,1-1.601,2.5-0.4,3.8c0.6,0.7,1.3,1.101,2.1,1.301V493c-0.5,0-1.1-0.1-1.6-0.4
			C834.301,494.2,836.4,495.7,833.801,497.3z"/>
		<path fill="#280F0F" d="M835.4,481.5v-1.2h-4v2c0.7-0.5,1.5-0.7,2.3-0.6C834.4,481.7,835,481.6,835.4,481.5z"/>
		<path fill="#1C1519" d="M833.801,492.6c0.6,0.2,1.1,0.301,1.6,0.4v-11.5c-0.4,0.1-1,0.2-1.7,0.2c-0.8,0-1.7,0.1-2.3,0.6v8.601
			C832,491.5,832.7,492.2,833.801,492.6z"/>
		<path fill="#280F0F" d="M835.4,510.6V509.7c0,0.2-0.1,0.5-0.2,0.899C835.301,510.6,835.301,510.6,835.4,510.6z"/>
		<path fill="#280F0F" d="M825.7,505.4l4.7,5.899c0.2-0.2,0.5-0.399,0.7-0.7c-1-0.8-0.9-1.8-0.2-2.699c0.6-0.9,1.4-0.601,2.1-0.101
			c0.801,0.601,2.4,0.5,2.5,1.7v-3.3c-1.1-0.7-2.6-0.7-3.899-1.2c0,0-0.101,0-0.101-0.1v1.5l-1.5-2
			C828.301,504.2,826.801,504.5,825.7,505.4z"/>
		<path fill="#1C1519" d="M832.9,507.8c-0.6-0.5-1.5-0.7-2.1,0.101c-0.601,0.899-0.7,1.899,0.2,2.699c1.399,0,2.8,0,4.199,0
			c0.2-0.399,0.2-0.699,0.2-0.899v-0.2C835.301,508.3,833.7,508.4,832.9,507.8z"/>
		<path fill="#299AAA" d="M224.2,362.5c-0.7,1.1-1.8,1.3-2.8,1.7c1.6-0.2,3.1-0.4,4.7-0.6c0-0.2-0.101-0.4-0.101-0.5
			C225.9,362.3,224.9,361.5,224.2,362.5z"/>
		<path fill="#299AAA" d="M119.8,380.1c0.801,0.5,0.7,1.7,0.2,2.5c-0.7,1.1-1.6,0.3-2.399,0c-5.2-2.1-7.301-1.7-11,2.2
			c-1.9,2-1.601,4.2,1.1,4.8c2.9,0.6,3.7,2.1,3.6,4.3c4.7-2.1,9.5-4.2,14.5-6.2c4.2-1.7,8.5-3.3,12.9-4.8c-1.6-0.6-2.3-1.3-0.9-3.5
			c1.101-1.7-1.8-3.6-4.199-3.8c-1.9-0.1-3.601-0.6-5.2-1.5c-0.5-0.3-1.101-0.6-0.9-1.3c0.2-0.9,1.101-0.7,1.7-0.6
			c3.1,0.7,6.2,1.5,9.3,2.3c0.101-0.3,0.3-0.5,0.3-0.7c-1.199-5.1-1.199-5.1,3.7-7.6c0.7-0.3,1.4-1.1,2.2-0.4
			c0.8,0.7,0.7,1.7,0.2,2.6c-0.7,1.3-2.4,3.1-0.9,4.1c1.9,1.2,2.8-1.2,3.8-2.6c0.801-1.1,1.801-1.4,2.9-0.5c0.3,0.2,0.6,0.4,0.8,0.7
			c0.7,1.4,2.4-1.9,2.5,0.4c0.101,1.2-1.6,1.9-2.8,2.2c-2.8,0.7-2.7,3.3-3.1,5.3c-0.101,0.7,0,1.3,0.399,1.7
			c1.4-0.4,2.8-0.9,4.2-1.3c0.3-0.3,0.7-0.4,1.3-0.4c1.101-0.3,2.101-0.6,3.2-0.9c0.2-0.5,0.1-1.1-0.4-1.9c-1.3-2.1,0.301-2.9,1.4-4
			c0.4-0.4,0.8-1,1.4-0.7c0.8,0.4,0.699,1.1,0.199,1.7c-0.899,1.2-0.199,1.7,0.801,1.9c0.899,0.2,1.5,0.8,2.1,1.5
			c18.7-4.9,37.5-8.4,54.4-10.9c-0.601-0.6-1.101-1.5-1.4-2.2c-1-2.3-3.4-3.9-3-6.8c0.1-1-1.2-1.3-2.1-1.6c-1-0.3-2.101-0.5-2.5-1.6
			c-0.5-1.5-1.101-1.9-2.4-0.8c-0.7,0.5-1.7,0.6-2.3,0c-2.101-1.9-3.2-0.5-4.4,1l0,0l0,0c-0.1,1,1.3,2.2-0.1,3.1
			c-0.8,0.5-1.9,0.7-2.9,0.7c-0.7,0-1.1-0.8-1.2-1.5c-0.199-1.5,1.301-1.3,2-1.9c0.301-0.2,0.601-0.3,0.9-0.5c0.1-1.4-0.6-2-2-2.2
			c-0.1,0-0.1,0-0.2,0c-22.899,4.8-44.6,10.9-63.3,18.2c-4.4,1.7-8.7,3.5-13.1,5.4c-0.2,0.4-0.4,0.9-0.4,1.4
			C118.6,377.2,117.6,378.9,119.8,380.1z"/>
		<path fill="#179FB3" d="M109,394.1c-0.5,0.3-0.5,0.7-0.3,1.1c0.6-0.3,1.1-0.5,1.7-0.8C110,394.1,109.6,393.7,109,394.1z"/>
		<path fill="#179FB3" d="M160.7,374.3c-1.1-0.2-1.8-0.7-0.8-1.9c0.5-0.7,0.5-1.3-0.2-1.7c-0.7-0.4-1.1,0.3-1.4,0.7
			c-1,1.1-2.699,1.9-1.399,4c0.5,0.8,0.6,1.4,0.399,1.9c1.801-0.5,3.7-1,5.5-1.5C162.3,375,161.7,374.5,160.7,374.3z"/>
		<path fill="#179FB3" d="M148.1,378.1c0.399-2,0.199-4.5,3.1-5.3c1.2-0.3,2.8-1,2.8-2.2c-0.1-2.3-1.8,0.9-2.5-0.4
			c-0.1-0.3-0.5-0.5-0.8-0.7c-1.2-0.9-2.1-0.6-2.9,0.5c-1,1.4-1.899,3.7-3.8,2.6c-1.6-1,0.101-2.7,0.9-4.1c0.5-0.9,0.5-1.8-0.2-2.6
			c-0.8-0.7-1.5,0-2.2,0.4c-4.8,2.5-4.8,2.5-3.7,7.6c0,0.2-0.199,0.4-0.3,0.7c-3.1-0.8-6.2-1.6-9.3-2.3c-0.6-0.1-1.5-0.3-1.7,0.6
			c-0.2,0.7,0.4,1,0.9,1.3c1.6,0.9,3.3,1.4,5.2,1.5c2.3,0.1,5.3,2,4.199,3.8c-1.399,2.2-0.699,2.9,0.9,3.5c3.2-1.1,6.5-2.2,9.7-3.2
			C148.2,379.4,148,378.8,148.1,378.1z"/>
		<path fill="#179FB3" d="M152.8,378.5c0.4-0.1,0.9-0.3,1.301-0.4C153.4,378.1,153,378.3,152.8,378.5z"/>
		<path fill="#4BAFB6" d="M68.2,406.9c1.9,0.3,2.6,2.1,2.9,3.8c0.199,1.3,0.399,2.7,0.5,4c9.8-6,20.899-12.1,33.3-17.9
			c-4.3,0.4-6.3-1-5.101-6.2c-2.199,3.1-4.8,3.5-7.899,3.1c-1.5-0.2-1.5,1.1-1.2,2.2c0.6,2-0.3,1.7-1.7,1.5
			c-1.8-0.2-2.2-2.3-3.6-2.6c-1.9-0.3-3.8-0.6-5.7-0.6c-5.3,3.1-10.3,6.4-15.2,9.7C65.2,405.5,66.1,406.6,68.2,406.9z M83.6,400.8
			c-0.5-1-1.2-1.9-2.4-3.6c2,1.2,3.8,1.7,3.9,3.4C85.2,401.5,84.4,402.4,83.6,400.8z"/>
		<path fill="#85B7B8" d="M19.6,460.7c5.699-10.4,20.199-25,43-40.1c0.1-0.5,0.199-0.9,0.3-1.4c0.1-0.4,0-0.9,0-1.4
			c-1.3-1.7-0.3-4.2-2.8-5.9c-1.4-1-2.5-1.6-3.9-1.9c-16.3,12.4-29,25.9-35.2,39.9c0.101,1,0,1.899-0.3,2.6c-0.4,0.8-1,1.5-1.6,2.1
			c-0.601,1.9-1.2,3.801-1.5,5.7C18.2,460.4,18.9,460.6,19.6,460.7z"/>
		<path fill="#64B5C1" d="M67.7,416.5c0-1-0.7-1.6-1.3-2.3c-1.4-1.8,0.1-1.7,1.3-1.8l0,0c0-1-0.5-1.7-1.4-2.1
			c-0.5,0.5-0.899,0.9-1.399,1.4l0,0c-0.9,1.3-1.9,2.6-1,4.3c0.5,1,0.1,1.8-1.101,1.9c0,0.5,0.101,0.9,0,1.4
			c-0.1,0.5-0.199,0.9-0.3,1.4c1.2-0.8,2.5-1.7,3.8-2.5C66.2,417.5,67,416.9,67.7,416.5z"/>
		<path fill="#64B5C1" d="M24.8,482.9L24.8,482.9c0.4,0.399,0.7,0.8,1.101,1.1h3.3c2.4,0,4.3,0.6,5.5,1.6c0.3,0,0.5,0,0.8,0
			c1.4,0.101,2.8-0.1,4.101-0.5c-1.5-3-5.2-4.899-10.101-4.899h-1.2c-0.3,0.3-0.8,0.5-1.5,0.6C25.5,481,25.3,482.1,24.8,482.9z"/>
		<path fill="#64B5C1" d="M57.2,480.3h-0.7v0.7c0.101-0.1,0.2-0.2,0.3-0.3C56.9,480.6,57.1,480.5,57.2,480.3z"/>
		<path fill="#64B5C1" d="M66.5,482.1C67.1,482.4,67.9,481.9,68.1,481.2c0.1-0.4,0.3-0.601,0.399-0.9h-10
			C60.4,484.1,64,480.9,66.5,482.1z"/>
		<path fill="#85B7B8" d="M66.3,410.3c0.5-1,0.4-1.9-0.899-1.9c-1.101,0-2.5,0.1-3.101,0.7c-0.6,0.8,0.5,1.5,1.301,2
			c0.399,0.2,0.8,0.4,1.199,0.6l0,0C65.4,411.2,65.9,410.7,66.3,410.3z"/>
		<path fill="#4BAFB6" d="M67.7,412.4L67.7,412.4c-1.2,0.1-2.6,0-1.3,1.8c0.6,0.7,1.3,1.3,1.3,2.3c0.2,0.1,0.5,0.2,0.7,0.3
			c0.399-0.3,0.8-0.5,1.3-0.8C70,414.5,68.4,413.6,67.7,412.4z"/>
		<path fill="#439AAE" d="M73.8,496.7c-1,0.3-2.1,0.399-3.3,0.399H68.6C68.3,497.3,68,497.4,67.5,497.4c-0.6,0-1.399,0.1-1.8-0.301
			h-5.2V491.2c-0.1,0.1-0.1,0.1-0.2,0.2c-1.1,1.6-2.399,2.3-3.899,2.6v15.8c0.399,0.2,0.899,0.5,1.3,0.9c1.4,1.1,1.5,2.1,1.1,2.899
			h1.7v-12.8H69.6l4.5,6c1.3-0.6,2.6-1.1,4-1.399l-0.7-1c-1.2-0.4-1.9-1.5-2.601-3.4l-0.699-1c0.1,0,0.199,0,0.3-0.1
			C72.9,498.9,73.2,497.8,73.8,496.7z"/>
		<path fill="#439AAE" d="M81.7,492.3c-0.3,0.4-0.9,0.3-1.2-0.1c-0.5-0.5-0.2-1,0-1.601c0.4-0.8,2.2-1.5,1.101-2.399
			c-1.101-1-2,0.1-3,1c0.1,0.399,0.1,0.899,0.1,1.399c0,1.801-0.7,3.4-1.9,4.5c0.4-0.1,0.7-0.199,0.9,0.301
			c1.5,4.3,2.7,1.399,3.8-0.101c0.2-0.2,0.3-0.399,0.5-0.6c0.5-1.101,0.8-2.3,0.8-3.5C82.6,491.2,82.2,491.6,81.7,492.3z"/>
		<path fill="#38A7C9" d="M125,481.2v-0.9h-1.8c0.2,0.101,0.4,0.2,0.6,0.3C124.2,480.9,124.6,481.1,125,481.2z"/>
		<path fill="#38A7C9" d="M98.1,482.5L98,482.6l-0.1-0.1c-0.3-0.3-0.601-0.8-0.8-1.2v13.4c0.8,0,1.6,0,1.699,0.7
			c0.2,1.3-0.1,3-0.8,4.199c-0.399,0.7-0.7,1.5-0.8,2.2c0.1,0.7,0.2,1.3,0.3,1.9c0.3,0.7,0.8,1.3,1.601,1.8
			c0.699,0.5,1.8,0.5,1.8,1.7l0,0c0,2,0.5,3.399,1.3,4.399c0.6,0.5,1.3,0.9,2,1.2c1,0.2,2.2,0.2,3.7-0.1l0,0
			c1.5-0.9,3.3,0.2,4.8-0.7l0,0l0,0c0-0.6,0.1-1.2,0.2-1.7c-0.601,0.101-1.2,0.101-1.8,0.101c-6.301,0-9.9-4-9.9-10.9v-19.1h-0.7
			C99.5,480.7,98.7,481.5,98.1,482.5z"/>
		<path fill="#268FB3" d="M77.4,504.5l-2.601-3.4C75.5,503,76.3,504.1,77.4,504.5z"/>
		<path fill="#268FB3" d="M81.6,495.2c-1.101,1.5-2.301,4.399-3.801,0.1c-0.199-0.5-0.5-0.399-0.899-0.3c-0.3,0.3-0.601,0.5-0.9,0.7
			c0.2,1.1,1.5,2.5,1.2,3.399c2.3-1,3.9-2.6,4.9-4.6C81.9,494.7,81.8,494.9,81.6,495.2z"/>
		<path fill="#268FB3" d="M98.8,495.3c-0.1-0.7-0.899-0.7-1.699-0.7v5c0,0.7,0,1.4,0.1,2c0.1-0.699,0.3-1.5,0.8-2.199
			C98.7,498.4,99,496.7,98.8,495.3z"/>
		<path fill="#268FB3" d="M100.9,507.2L100.9,507.2L100.9,507.2c0-1.2-1.101-1.2-1.8-1.7c-0.801-0.5-1.301-1.1-1.601-1.8
			c0.2,1,0.5,1.899,0.8,2.7C99.2,506.6,100.1,506.9,100.9,507.2z"/>
		<path fill="#619EAA" d="M32,498.2c1.8-1.4,3.5-1.5,5.2-1.2c-0.5-0.2-1-0.4-1.6-0.6c0.399-0.2,0.8-0.4,1.199-0.7
			C34.9,495.2,33.2,496,32,498.2z"/>
		<path fill="#660C13" d="M715.2,479.8c-3.3,0-6.1,1-8.1,2.8c1.2,0.7,2.6,1.301,3.8,1.9c1.1-0.6,2.5-1,4.2-1c1.6,0,3.1,0.3,4.5,0.7
			c0.3-1.601,1.3-2.2,3.4-2.101c0.5,0,0.899,0,1.3-0.1C721.6,480.5,718.7,479.8,715.2,479.8z"/>
		<path fill="#660C13" d="M703.5,367.5c0.4,0.4,1,0.8,1.101,1.3c0.6,2.6,1.8,5,4.6,4.6c2.3-0.4,5,0.4,6.9-1.5
			c1.2-1.2,2.5-0.6,3.399,0.1c1.7,1.3,3.2,1.2,4.5-0.4c0.101-0.1,0.2-0.2,0.2-0.2c-2.1-0.9-4.2-1.7-6.3-2.5
			c-5.5-2.2-11.2-4.2-17.2-6.1C700.1,364.5,701.7,366,703.5,367.5z"/>
		<path fill="#660C13" d="M683.6,366.7c0.2,0.7,0.5,1.4,0.7,2.1l0,0c0.699,1.1,1.399,2.3,2.1,3.4c0,0.5,0,0.9,0,1.4
			c2.5-2.4,5.3-4.4,7.4-7.5c1.1-1.6,2.699-2.9,4.199-4.4c-2.8-0.9-5.6-1.7-8.5-2.6c-0.8,1.2-1.3,2.6-1.3,4.4
			C688.2,365.5,685.2,365.6,683.6,366.7z"/>
		<path fill="#660C13" d="M701.4,379.7c0.2,0.1,0.4,0.1,0.7,0.2c-0.1-0.3-0.3-0.6-0.4-1C701.6,379.2,701.5,379.4,701.4,379.7z"/>
		<path fill="#660C13" d="M681.6,359.1L681.6,359.1L681.6,359.1c0.2,0.2,0.5,0.5,0.7,0.7c0.6-0.8,1.199-1.5,2-2.1
			c-0.5-0.1-0.9-0.3-1.4-0.4C682.7,358,682.4,358.8,681.6,359.1z"/>
		<path fill="#660C13" d="M714.2,498.5c0.4,0.1,0.8,0.2,1.2,0.3c1.7,0.4,3.1,0.7,4.2,1.101c0.6-0.9,0.9-1.9,0.5-2.9
			c-0.2-0.5-0.3-0.9-0.4-1.4c-0.8-0.199-1.7-0.5-2.6-0.699c-0.4-0.101-0.8-0.2-1.1-0.301c-0.101,0.2-0.101,0.5-0.2,0.7
			C715.301,496.8,714.801,497.8,714.2,498.5z"/>
		<path fill="#660C13" d="M703.6,507.8l-0.8,0.9l0.1,0.1c0.7,0.601,1.4,1.2,2.2,1.7C705,509.5,704.6,508.6,703.6,507.8z"/>
		<path fill="#660C13" d="M753,396.7c3.601-2,2.5-4.5,0.9-6.8c-1.1-1.6-2.4-3.1-4.2-4.3c-1.6-1.1-5-1.8-4.3-4.8
			c-5.2-2.5-10.6-5-15.9-7.3c-0.199,0.3-0.399,0.6-0.6,1c-0.5,0.8-0.3,1.9,0.4,2.1c2.5,0.8,3.6,3.6,6.399,4
			c1.601,0.2,1.801,1.7,1.801,2.9c-0.101,3.6-0.7,7.1,1.199,10.3c3.9,1.7,7.7,3.5,11.4,5.3C751,398.2,751.9,397.4,753,396.7z"/>
		<path fill="#631423" d="M665.301,356.5c2.8,1.5,4.8,4.2,7.899,5.3c2.9-0.5,5.7-1.5,8.3-2.8l0,0c0.801-0.3,1.101-1,1.4-1.7
			c-6.2-1.7-12.7-3.3-19.2-4.8C662.5,354.6,663.7,355.6,665.301,356.5z"/>
		<path fill="#631423" d="M658.1,352c1.1,0,2.2,0,3.399,0c-2-0.4-4-0.9-6-1.3C655.9,351.8,656.9,352,658.1,352z"/>
		<path fill="#158094" d="M197.8,352.8c0.4,0,0.9,0,1.301,0l0,0c1.199-1.5,2.399-2.9,4.399-1c0.601,0.6,1.601,0.5,2.3,0
			c1.301-1,2-0.7,2.4,0.8c0.4,1.1,1.5,1.3,2.5,1.6c0.9,0.3,2.2,0.6,2.1,1.6c-0.399,2.9,2,4.5,3,6.8c0.301,0.7,0.801,1.6,1.4,2.2
			c1.4-0.2,2.8-0.4,4.2-0.6c1.1-0.4,2.1-0.6,2.8-1.7c0.7-1,1.7-0.2,1.8,0.5c0,0.2,0.101,0.4,0.101,0.5c4.3-0.6,8.399-1,12.3-1.5
			c-0.2-0.5-0.5-1.1-0.101-1.6c1.9-2.7,0.601-4.6-1.5-6.5c-1.3-1.2,1-5.9,3.301-6.7c1.8-0.6,3-1.6,3.399-3.5l0,0l0,0
			c-0.7,0-1.399,0-2,0c-1.399-0.1-2.5-0.2-3.3-0.5c-14.4,1.9-28.6,4.3-42.4,7.2c0.101,0,0.101,0,0.2,0
			C197.3,350.8,198,351.4,197.8,352.8z"/>
		<path fill="#1095B6" d="M251,355.1c-2.5-1.1-1.899-2.2-0.899-3.6c0.699-1,1.699-2,2.8-2.5c1.5-0.7,4-0.1,1.6-3.2
			c-1.1-1.5,1.5-1.9,2.601-3c0-0.1,0.1-0.2,0.1-0.2c-1.2,0-2.3-0.1-3.3-0.8l0,0l0,0c-1.9,0.4-3.101,1.8-4.601,2.8
			c-1.6,1-1.8,2.1-0.399,3.2c2,1.4,1,2.4-0.2,3.5c-0.3,0.3-0.8,0.5-1.2,0.7c-2.899,1.4-6.1,2.3-4.7,7c0.2,0.7-0.5,1.9-1.5,2.9
			c5.301-0.5,10.101-1,14.5-1.3c-0.1-0.2-0.1-0.3-0.199-0.5C255.1,358,253,356,251,355.1z"/>
		<path fill="#25868E" d="M197.8,352.8c-0.3,0.1-0.699,0.2-0.899,0.5c-0.7,0.6-2.2,0.4-2,1.9c0.1,0.7,0.5,1.5,1.2,1.5
			c1,0,2.1-0.3,2.899-0.7c1.4-0.8,0.101-2,0.101-3.1l0,0C198.7,352.8,198.3,352.8,197.8,352.8z"/>
		<path fill="#0D9EC9" d="M266.4,354.1c-0.7-0.8-1.4,0.3-1.9,0.9c-1.3,1.6-2.7,1.2-3.8,0c-1.1-1.3-2-2.8-3.9-3.2
			c-0.5-0.1-1.1-1-0.6-1.4c2.6-2.2,0.5-5.5,1.8-7.9l0,0l0,0c-0.2,0-0.399,0-0.5-0.1c-0.1,0-0.1,0.1-0.2,0.1
			c-0.1,0.1-0.1,0.2-0.199,0.2c-1.101,1-3.7,1.5-2.601,3c2.4,3.1-0.1,2.5-1.6,3.2c-1.101,0.5-2,1.5-2.8,2.5
			c-1,1.4-1.601,2.5,0.899,3.6c1.9,0.9,4.101,2.9,4.601,4.9c0,0.2,0.1,0.4,0.199,0.5c5.301-0.4,10-0.7,13.7-0.8
			C270,357.5,267.9,355.7,266.4,354.1z"/>
		<path fill="#359E9F" d="M81.2,397.2c1.1,1.7,1.9,2.6,2.4,3.6c0.8,1.6,1.699,0.7,1.6-0.2C85,398.9,83.2,398.4,81.2,397.2z"/>
		<path fill="#74ABA8" d="M67.7,416.5c-0.7,0.4-1.5,1-1.4,1.7c0.7-0.4,1.4-0.9,2.101-1.3C68.2,416.7,67.9,416.6,67.7,416.5z"/>
		<path fill="#47A4B7" d="M79.2,513.6L79.2,513.6l5.1,0.101V513.6C82.8,512.7,81.1,511.9,80.1,510.2
			c-0.601-0.9-1.5-1.601-1.601-3.101c0.4,0.101,0.8,0.101,1.101,0.2l-1.4-1.899c-1.4,0.3-2.7,0.8-4,1.399L79.2,513.6z"/>
		<path fill="#47A4B7" d="M76,495.7c-0.6,0.399-1.399,0.7-2.2,1c-0.6,1.1-0.899,2.2,0.601,3.399c1-0.199,2-0.5,2.8-0.899
			C77.5,498.2,76.2,496.8,76,495.7z"/>
		<path fill="#28ACD9" d="M123.9,491.5c0.3,0.4,0.7,0.5,1.1,0.3V489.4l0,0C124.4,489.6,123,490.4,123.9,491.5z"/>
		<path fill="#28ACD9" d="M122.7,485.1c0.7-0.1,1.7-0.5,2.3-0.1v-3.8c-0.399-0.101-0.7-0.3-1.2-0.601
			c-0.199-0.1-0.399-0.199-0.6-0.3h-2.3v6.2C121.5,485.8,122.1,485.2,122.7,485.1z"/>
		<path fill="#28ACD9" d="M112.7,512c1-0.5,1.7-1.3,2.3-2.2c-0.6,0.2-1.3,0.4-2.1,0.5C112.8,510.8,112.7,511.4,112.7,512L112.7,512z
			"/>
		<path fill="#2779BC" d="M119.5,510.6c-0.7,1-1.399,1.801-2.2,2.4c1.7-0.7,3.101-1.8,4.301-3.1C120.8,509.7,120,509.9,119.5,510.6z
			"/>
		<path fill="#2779BC" d="M107.9,512.7c-1.5,0.3-2.7,0.3-3.7,0.1c1.9,0.9,4.2,1.4,6.8,1.4c0.3,0,0.5,0,0.8,0
			C110.6,513.9,109.2,513.4,107.9,512.7z"/>
		<path fill="#2779BC" d="M100.9,507.2c-0.9-0.3-1.8-0.5-2.601-0.8c0.9,2.1,2.2,3.899,3.9,5.199C101.4,510.6,101,509.2,100.9,507.2
			L100.9,507.2z"/>
		<path fill="#389CD6" d="M112.7,512L112.7,512c-1.5,1-3.3-0.2-4.8,0.7l0,0c1.399,0.7,2.7,1.2,4,1.399c2.1-0.1,3.899-0.5,5.5-1.199
			c0.8-0.601,1.5-1.4,2.2-2.4c0.5-0.7,1.3-0.9,2.1-0.7c0.5-0.6,1-1.2,1.4-2c-0.301-0.2-0.601-0.399-0.9-0.7
			c-0.8-0.8-1.6-1.199-2.6-1.399c-1,1.899-2.5,3.2-4.5,4C114.4,510.6,113.7,511.4,112.7,512z"/>
		<path fill="#439AAE" d="M80.1,510.2c1,1.7,2.699,2.5,4.199,3.399l-4.699-6.3c-0.301-0.1-0.601-0.1-1.101-0.2
			C78.6,508.6,79.5,509.3,80.1,510.2z"/>
		<path fill="#741213" d="M688.5,498.7V495h-6.699c-1,1.3-2,2.6-3.101,3.8h9.8V498.7z"/>
		<path fill="#741213" d="M679.801,513.7c1.5-0.9,3.5-1.5,5.3-1.4c1.1-0.2,2.399,0,3.7,0.4c0.8,0.2,1.6,0,2-0.7v-1.8
			c0-0.101-0.101-0.101-0.101-0.101h-17.2c-2.5,0.7-4.5,2.301-6.6,3.801h12.9V513.7z"/>
		<path fill="#741213" d="M683.7,484.1h7v-3.8h-3.899c-0.301,0.4-0.601,0.8-0.801,1.2C685.1,482.5,684.5,483.4,683.7,484.1z"/>
		<path fill="#741213" d="M633.4,511.3c-0.6,0.3-1.3,0.7-1.9,0.601c-2.399-0.4-4.399,0.399-6.199,1.699h8.8c4.7,0,8.899-1.5,12-4.1
			C641.7,508.9,637.4,509.2,633.4,511.3z"/>
		<path fill="#741213" d="M737.6,383.5c0-1.2-0.2-2.7-1.8-2.9c-2.801-0.3-3.9-3.2-6.4-4c-0.7-0.2-1-1.3-0.4-2.1
			c0.2-0.3,0.5-0.7,0.601-1c-1.8-0.8-3.5-1.5-5.3-2.2c-0.101,0.1-0.2,0.1-0.2,0.2c-1.4,1.6-2.8,1.7-4.5,0.4
			c-0.9-0.7-2.2-1.3-3.4-0.1c-1.899,1.9-4.6,1.1-6.899,1.5c-2.801,0.4-4-2-4.601-4.6c-0.1-0.5-0.7-0.9-1.1-1.3
			c-1.8-1.5-3.3-3-2.7-4.9c-1-0.3-1.9-0.6-2.9-0.9c-1.399,1.5-3.1,2.8-4.199,4.4c-2.101,3.1-4.9,5.1-7.4,7.5
			c-0.2,0.5-0.4,1.1-0.7,1.6c5.3,1.4,10.5,2.8,15.7,4.4c0.1-0.3,0.2-0.5,0.3-0.8c0.101,0.3,0.3,0.6,0.4,1c7.6,2.4,15.1,5,22.399,7.9
			c4.9,2,9.7,4,14.301,6.1C736.801,390.6,737.5,387.1,737.6,383.5z"/>
		<path fill="#741213" d="M704.2,489.1c0,5,2.8,7.7,10,9.5c0.601-0.8,1.101-1.8,1.5-3.1c0.101-0.2,0.101-0.5,0.2-0.7
			c-6.4-1.5-7.7-3.3-7.7-6c0-1.8,1-3.3,2.7-4.2c-1.3-0.6-2.6-1.199-3.8-1.899C705.301,484.2,704.2,486.5,704.2,489.1z"/>
		<path fill="#791427" d="M634.2,365c2.3,0.3,4.601,0.7,6.9,1.1C638.801,365.3,636.6,364.7,634.2,365z"/>
		<path fill="#791427" d="M652.2,367.4c-0.3,0.2-0.5,0.3-0.8,0.4c1.9,0.3,3.8,0.7,5.7,1.1C656.301,365.4,655.4,365.5,652.2,367.4z"
			/>
		<path fill="#791427" d="M686.4,373.6c0-0.5,0-0.9,0-1.4c-1.1-0.2-2.7,0.7-3.3-0.9c-0.4-1-0.5-2.3,1.2-2.5
			c-0.2-0.7-0.5-1.4-0.7-2.1c-4.2-3-4.2-3.2-1.4-6.9l0,0c-0.2-0.2-0.5-0.5-0.7-0.7l0,0c-2.6,1.3-5.399,2.3-8.3,2.8
			c-0.1,3,0.3,6-0.6,8.9c-0.1,0.4-0.3,0.8-0.5,1.2c4.5,1,9.1,2.1,13.7,3.3C686,374.7,686.2,374.1,686.4,373.6z"/>
		<path fill="#741213" d="M682.301,359.7L682.301,359.7c-2.9,3.7-2.801,3.9,1.399,6.9c1.601-1.1,4.601-1.2,4.601-3.1
			c0-1.8,0.5-3.2,1.3-4.4c-1.7-0.5-3.5-1-5.2-1.5C683.5,358.3,682.801,358.9,682.301,359.7z"/>
		<path fill="#631423" d="M684.301,368.8c-1.7,0.2-1.601,1.5-1.2,2.5c0.6,1.6,2.1,0.7,3.3,0.9C685.7,371.1,685,369.9,684.301,368.8
			L684.301,368.8z"/>
		<path fill="#69192F" d="M673.2,361.8c-3.1-1.1-5.1-3.9-7.899-5.3c-1.7-0.9-2.9-1.9-1.601-4c-0.7-0.2-1.5-0.3-2.2-0.5
			c-1.199,0-2.3,0-3.399,0c-1.2,0-2.101-0.3-2.601-1.3c-3.1-0.7-6.3-1.3-9.399-1.9c0,1,0.2,2,0.3,3c0.2,3.5-1.8,5.3-4.5,6.6
			c-0.4,0.2-1,0.5-1.3,0.3c-3.4-2.4-4.601,0-5.9,2.5c-1,2-3.2,2-5,2.6c0,0.2,0,0.3,0,0.4c1.5,0.2,3,0.4,4.5,0.6
			c2.4-0.3,4.601,0.3,6.9,1.1c3.399,0.5,6.8,1.1,10.3,1.8c0.3-0.1,0.5-0.2,0.8-0.4c3.2-1.9,4-2,4.9,1.4
			c4.899,0.9,9.899,2,14.899,3.1c0.2-0.4,0.4-0.8,0.5-1.2C673.5,367.8,673.1,364.8,673.2,361.8z"/>
		<path fill="#931B2F" d="M619.301,360.1c-1.601,0.5-3.2,0.4-4-1c-0.801-1.4-1.801-3.5-0.4-4.8c3-2.7,4.3-6,4.9-9.5
			c-5.301-0.6-10.7-1.2-16.2-1.8c0.399,0.3,0.8,0.6,1,1c2.399,3.9,7.2,6.5,8,10.7c0.5,2.8,1.3,5.4,2.399,7.8
			c1.9,0.2,3.9,0.5,5.9,0.7c0.1-0.2,0.2-0.4,0.3-0.6C622.301,360.5,621.7,359.4,619.301,360.1z"/>
		<path fill="#931B2F" d="M595,343.8L595,343.8L595,343.8c2,0.7,3.801,1.1,4.2-1.2c-1.399-0.1-2.8-0.3-4.2-0.4
			C595.1,342.7,595.1,343.2,595,343.8z"/>
		<path fill="#0D7DA4" d="M243.5,343.9L243.5,343.9c-0.399,1.9-1.6,2.8-3.399,3.5c-2.301,0.8-4.601,5.5-3.301,6.7
			c2,1.9,3.4,3.7,1.5,6.5c-0.399,0.5-0.1,1,0.101,1.6c1-0.1,1.899-0.2,2.899-0.3c1.101-1,1.7-2.2,1.5-2.9
			c-1.399-4.7,1.801-5.5,4.7-7c0.4-0.2,0.8-0.4,1.2-0.7c1.2-1.1,2.2-2.1,0.2-3.5c-1.5-1-1.2-2.2,0.399-3.2
			c1.5-1,2.801-2.4,4.601-2.8l0,0c0-0.1-0.101-0.2-0.101-0.2c-3,0.3-6.1,0.7-9.1,1C244.3,343,243.9,343.4,243.5,343.9z"/>
		<path fill="#0F6D8F" d="M243.5,343.9L243.5,343.9c0.4-0.4,0.8-0.9,1.2-1.3c-2.2,0.3-4.4,0.5-6.6,0.8c0.8,0.2,1.899,0.3,3.3,0.5
			C242.1,343.9,242.8,343.8,243.5,343.9z"/>
		<path fill="#1F79B2" d="M253.8,341.7c1,0.7,2.2,0.7,3.301,0.8h0.1v-0.1l0,0c-0.1-0.4-0.2-0.8-0.2-1.2c-1.1,0.1-2.2,0.2-3.399,0.4
			C253.8,341.6,253.8,341.7,253.8,341.7L253.8,341.7z"/>
		<path fill="#32A1DA" d="M273.8,430.1c0.4,0.801,0.9,1.7,2.101,1.4c0.7-0.2,0.8-0.8,0.7-1.4c-0.2-1.1-0.4-2.199-1.801-2.6
			c-1.699-0.5-2.699-2.9-2.199-4.8l0,0l0,0V422.6c-0.4-0.3-0.7-0.5-1-0.5v7.7C272.3,429.3,273.2,429,273.8,430.1z"/>
		<path fill="#32A1DA" d="M280.5,405.2c-0.5-0.3-1-0.9-0.5-1.4c0.5-0.6,1.3-0.6,1.8-0.1c0.4,0.4,0.5,1.1,0.9,1.4
			c1.6,1.1,3.2,2.4,5,0.1c1.3-1.6,3.4-2,4.9-3.6c1.199-1.3,3.199,0,4.899,0.3l0,0c0.7-1.1,1.601-2,1.4-3.4l0,0l0,0
			c-0.2,0-0.5,0-0.7,0l0,0c-0.9,1.1-2.5,0.5-3.5,1.4l0,0c-2,2.1-3.3-1.3-4.7-0.8c-1.7,0.6,0,3.4-2.2,4.2c-1.699,0.7-5.1-1.7-5.3-3.9
			c-0.2-2-2.899-4-4.5-3.1c-2.1,1.2-3.5,0.8-5.3-0.6c-0.4-0.3-0.8-0.5-1.2-0.7v13.2H281.6c0.1-0.1,0.199-0.3,0.3-0.4
			C282.8,406.5,281.5,405.8,280.5,405.2z"/>
		<path fill="#4D78BB" d="M274,392.4c-0.1,0.3-0.5,0.4-0.8,0.6c1.3,1.1,2.5,2.3,4.5,1.4c1.1-0.5,2.1,0.3,3.2,0.8
			c1.6,0.8,3.399,0.9,4.7-0.6c1.2-1.3,1.6-2.4,0.2-4.1c-1.4-1.7,1.1-2.3,1.899-2.8c1.2-0.7,1.3,0.7,1.4,1.6
			c0.2,1.6,0.899,2.9,0.3,4.7c-0.7,2.4,2.1,5.2,5.2,5.9l0,0l0,0c1-0.9,2.6-0.3,3.5-1.4l0,0l0,0c-4.9-0.7-5.601-5-7.101-8.7
			c-0.1-0.3,2.5,0.9,3.5-0.4l0,0l0,0c0-0.2,0-0.4,0-0.6c0.2-0.1,0.4-0.1,0.601-0.2l0,0c-0.2,0.1-0.4,0.1-0.601,0.3
			c0.3-3.8-2.8-0.7-3.899-1.9c0-0.1,0.1-0.3,0.1-0.4h-11C277.5,388.1,274.5,391.1,274,392.4z"/>
		<path fill="#4D78BB" d="M329.301,389.5L329.301,389.5L329.301,389.5c0.3-1.5-0.801-2.2-1.5-3h-5c0.199,0.1,0.3,0.3,0.399,0.5
			C324.7,389.3,326.9,389.7,329.301,389.5z"/>
		<path fill="#4D78BB" d="M271.6,391.2v2.3c0.3-0.1,0.6-0.3,1-0.5C272.8,392.2,272.1,391.7,271.6,391.2z"/>
		<path fill="#4D78BB" d="M320.7,388.4c-0.3-0.7-0.899-1.3-0.399-1.8h-12c3.1,2.5,7.399,1.8,10.899,3.5
			C320.301,390.6,321.301,389.8,320.7,388.4z"/>
		<path fill="#4D78BB" d="M272,388.4c0,0,0-0.1-0.1-0.1c-0.101,0-0.2,0.1-0.4,0.1v0.4C271.7,388.6,271.8,388.5,272,388.4z"/>
		<path fill="#329ED4" d="M282.2,341.1L282.2,341.1L282.2,341.1c-1.8,2.5-4.7,2.6-7.2,2.4c-2-0.2-3.3-0.2-4.2,1.7
			c-0.3,0.6-0.8,1.2-1.6,1.1c-0.9-0.1-0.6-1-0.8-1.7c-0.601-2-7-4.5-8.8-3.4C259,341.6,258.5,342,258,342.5l0,0
			c-1.2,2.5,0.8,5.7-1.8,7.9c-0.5,0.4,0.1,1.2,0.6,1.4c1.9,0.4,2.7,1.9,3.9,3.2c1,1.2,2.5,1.6,3.8,0c0.5-0.5,1.2-1.7,1.9-0.9
			c1.5,1.6,3.6,3.3,3.1,5.5c3.2-0.1,5.7-0.2,7.4-0.2c1.6,0,4.8,0,8.6,0c0.601-0.9,1.2-1.8,1.601-2.8c0.899-2,2.6-1.3,3.399,0.7
			c0.3,0.6,1.4,1.4,2.8,2.1c0.801,0,1.601,0,2.4,0c-2-0.7-3.5-2.4-4.5-4c-2.3-3.7-5.1-6.8-8.4-9.5c-0.6-0.5-0.699-1.2-0.1-1.8
			c0.7-0.6,2-0.6,2.2-0.1c2.2,4.5,6,2.8,9.3,2.5c3.2-0.3,6.3,0.1,9.4,0.7c-1.8-3.4-5.4-1.9-8.101-2.5c-1.8-0.4-2.2-0.7-2.399-2.3
			c-0.2-1.9-0.4-3.2-0.801-3.9c-1.6,0.1-3.199,0.2-4.899,0.2c-0.101,0.1-0.3,0.1-0.4,0.2C285.6,339.7,283.6,339.7,282.2,341.1z"/>
		<path fill="#4282C3" d="M257.3,342.4L257.3,342.4c0.101,0,0.101,0,0.2,0c0.2,0,0.4,0,0.5,0.1l0,0c0.5-0.4,1-0.9,1.601-1.3
			c1.8-1.1,8.199,1.4,8.8,3.4c0.2,0.6-0.101,1.5,0.8,1.7c0.7,0.1,1.3-0.5,1.6-1.1c1-1.9,2.2-1.9,4.2-1.7c2.5,0.2,5.4,0.1,7.2-2.4
			l0,0c-0.9-0.6-1.1-1.2-1.1-1.9c-8,0.5-16,1.2-24,2C257.1,341.6,257.2,342,257.3,342.4z"/>
		<path fill="#3BC1EF" d="M263.5,498.9c-0.3,0.199-0.6,0.399-0.8,0.5h0.8C263.5,499.2,263.5,499,263.5,498.9L263.5,498.9z"/>
		<path fill="#3BC1EF" d="M251.9,507.2L251.8,507.1C251.8,507.1,251.8,507.1,251.9,507.2C251.8,507.2,251.8,507.2,251.9,507.2z"/>
		<path fill="#3BC1EF" d="M247.6,485.8c0.5,0.8,0.699,1.601,0.699,2.601c-0.1,1.699-1.199,2.6-2.899,2.8c-0.3,0-0.601,0.1-0.8,0.2
			c-0.601,1.8-0.9,3.6-0.9,5.6c0,0.7,0,1.3,0.1,2c1-1.1,2.301-1.7,4.2-1.1c0-0.301,0-0.601,0-0.9c0-3.5,1.2-6.7,3.2-9
			c-0.9-1.1-1.6-2.3-2.2-3.5C248.4,484.8,248,485.3,247.6,485.8z"/>
		<path fill="#3BC1EF" d="M245,502.7c0.601,1.8,2.101,0.7,3.2,0.399c0.3-0.1,0.6-0.1,0.8-0.1c-0.1-0.3-0.3-0.6-0.399-1
			c-0.7,0.1-1.4,0.2-2.2,0.4c0.399-1.101,1.1-1.601,1.8-2c-0.1-0.5-0.2-1-0.2-1.5c-0.399,0.3-0.7,0.5-1.1,0.699
			C245.7,500.3,244.5,501.2,245,502.7z"/>
		<path fill="#3BC1EF" d="M273.9,433.1L273.9,433.1c-0.9-0.699-1.7-0.8-2.4-0.6v2.1C272.4,434.1,273.1,433.6,273.9,433.1
			L273.9,433.1z"/>
		<path fill="#3BC1EF" d="M198.4,513.7h8.5v-3.8h-8.4C198.4,511.2,198.3,512.4,198.4,513.7z"/>
		<path fill="#4AB1E3" d="M193.6,484.1h0.699C194,484,193.8,484,193.6,484.1z"/>
		<path fill="#4AB1E3" d="M145,504c-1.1-2-1.7-4.4-1.7-7c0-4.1,1.601-7.7,4.101-10.1c0.3-0.4,0.6-0.7,0.8-1.101
			c1.2-1.7,3.3-3,3.2-5.5c-7.3,1.9-12.4,8.5-12.4,16.7c0,2.2,0.4,4.2,1,6.1C141.7,503.1,143.4,503.5,145,504z"/>
		<path fill="#4AB1E3" d="M168.3,507.9c0.101-0.101,0.2-0.2,0.301-0.2L166.5,505.6l-0.1,0.101c-1,0.899-1.9,1.7-3,2.399
			C165.1,509.3,166.6,509.4,168.3,507.9z"/>
		<path fill="#4AB1E3" d="M158,510.3c-0.7,0.101-1.399,0.2-2.1,0.2c-0.601,0-1.2-0.1-1.8-0.1c0.5,0.3,1,0.6,1.5,0.699
			C156.5,511.3,157.3,510.9,158,510.3z"/>
		<path fill="#4AB1E3" d="M182.4,494.5c1.3-1,2.6-1.9,4.1-2.7v-3c-1.399,0.3-2.8,0.8-4.1,1.3V494.5z"/>
		<path fill="#4AB1E3" d="M123,507.9c1.3-2.301,2-5.101,2-8.5V491.8c-0.399,0.101-0.7,0.101-1.1-0.3c-0.9-1.1,0.5-1.9,1-2l0,0V485
			c-0.601-0.4-1.601,0-2.3,0.1c-0.601,0.101-1.2,0.601-1.801,1.4v13.2c0,2.399-0.5,4.5-1.3,6.1c1,0.101,1.8,0.601,2.601,1.4
			C122.4,507.5,122.7,507.7,123,507.9z"/>
		<path fill="#437EC0" d="M158.4,514.1c0.7-0.1,1.399-0.199,2-0.399C159.6,512.9,158.9,512.9,158.4,514.1z"/>
		<path fill="#437EC0" d="M183.1,502c0.399-1.6-0.101-2.6-0.801-3.6v15.3h12.4c0-0.101-0.1-0.3-0.1-0.4c-0.301-1.5-0.9-2.6-1.7-3.3
			H186.3v-2.7C183.8,506.2,182.5,504.7,183.1,502z"/>
		<path fill="#437EC0" d="M150,510.5c-0.7-1.4-2.2-2.6-3.5-2.5c-1.8,0.1-3.3-1.3-5-1.9c0.8,1.4,1.8,2.601,2.9,3.7h0.1
			c1.3,0.101,2.8,0,3.8,1.3c0,0.601-0.5,0.801-1,0.9c1.9,1.1,4.101,1.8,6.5,2.1C152.4,513.1,150.8,512.2,150,510.5z"/>
		<path fill="#4F6BB2" d="M148.3,511.1c-1-1.3-2.5-1.199-3.8-1.3h-0.1c0.899,0.8,1.899,1.601,3,2.2
			C147.8,511.9,148.3,511.7,148.3,511.1z"/>
		<path fill="#34A4D5" d="M198.4,513.7c-0.101-1.2,0-2.5,0.1-3.8h-2.1c0.5,1.199,0.6,2.5,0.7,3.8H198.4z"/>
		<path fill="#1898D2" d="M308.5,509.9c-1.199,0.3-2.399,0.5-3.699,0.5c-2.601,0-4.9-0.7-6.9-2c-1.601,0.899-3.5,0.699-5.4,0.8
			c3,3.1,7.301,5,12.2,5c2.9,0,5.7-0.7,8.101-2C311.2,511.7,309.7,511,308.5,509.9z"/>
		<path fill="#1898D2" d="M262.2,512c-0.8,0-1.6,0.2-2.1-0.7c-1.801,0.7-1.301,1.8-0.9,2.9c0.5,0,1,0.1,1.5,0.1l0,0
			c0.2-0.6,0.2-1.3,1.1-1.2c0.7,0.101,1.7,0.5,2,1c3.7-0.6,6.601-2,8.5-3.399c-1.899,0.5-3.8,1.2-5.6,2.1
			C264.6,513.7,263.6,512,262.2,512z"/>
		<path fill="#811618" d="M644.4,486.1c-0.4,0.4-0.8,0.801-1.1,1.2c2.6,2.3,4.2,5.7,4.2,9.7c0,7.6-5.5,12.8-13.5,12.8h-7.5v-14.3
			c-0.2,0-0.5-0.1-0.7-0.1c-1.8-0.2-3,0.6-3.4,2v2.399c0.2,1.3,0.2,2.3,0,3.101V513.6h2.9c1.7-1.399,3.7-2.1,6.2-1.699
			c0.6,0.1,1.3-0.301,1.899-0.601c4.101-2.2,8.3-2.5,12.7-1.7c3.6-3,5.8-7.399,5.8-12.699c0-5.2-2.2-9.7-5.8-12.601
			C645.6,484.9,645.1,485.6,644.4,486.1z"/>
		<path fill="#811618" d="M681.9,480.4c-0.1,0-0.1-0.101-0.1-0.101h-15.4v33.4h0.6c2-1.5,4-3.101,6.601-3.8h-3v-11.2h8.2
			c1.1-1.2,2.1-2.4,3.1-3.8h-11.3V484h13.2c0.8-0.7,1.5-1.6,2.199-2.5c0.301-0.4,0.601-0.8,0.801-1.2h-3.4
			C682.9,480.6,682.4,480.7,681.9,480.4z"/>
		<path fill="#811618" d="M690.9,509.9h-0.1l0.1,0.1V509.9z"/>
		<path fill="#811618" d="M688.9,512.6c-1.3-0.399-2.7-0.6-3.7-0.399c-1.8-0.101-3.8,0.5-5.3,1.399h11v-1.8
			C690.4,512.6,689.7,512.8,688.9,512.6z"/>
		<path fill="#931B1D" d="M568.9,498.8h13.7v14.9h4.1v-20.3c-1.1-1.101-1.2-2.7,0-4.2v-8c-0.7-0.3-1.7-0.4-2.5-0.601
			c-0.3-0.1-0.6-0.199-0.899-0.399h-0.7V495H568c0.2,0.9,0.4,1.8,0.7,2.7C568.801,498.1,568.801,498.4,568.9,498.8z"/>
		<path fill="#931B1D" d="M636.301,481.7c0.899,0.7,1.699,1.8,2.199,3c1.9,0.5,3.5,1.399,4.9,2.6c0.3-0.399,0.6-0.899,1.1-1.2
			c0.7-0.6,1.2-1.199,1.5-1.8c-2.899-2.399-6.8-3.8-11.199-4C635.2,480.8,635.7,481.3,636.301,481.7z"/>
		<path fill="#931B1D" d="M622.4,499.9v3.1C622.7,502.1,622.7,501.1,622.4,499.9z"/>
		<path fill="#931B1D" d="M683.2,480.3h-1.5l0.101,0.101C682.4,480.7,682.9,480.6,683.2,480.3z"/>
		<path fill="#931B1D" d="M625.801,495.5c0.199,0,0.5,0.1,0.699,0.1V488.4c-1.5,0.8-2.8,1-4.1,0.199v8.9
			C622.801,496.1,624,495.3,625.801,495.5z"/>
		<path fill="#9D1E32" d="M527.9,481.5L527.9,481.5c-0.8,0.8-1.2,1.7-1.3,2.6h4.2V494.9c1.3,0.8,1.899,2.1,2,3.899l0,0
			c0.8-0.6,1.5-1,2.2-1.399V484.1h11.1v-3.3c-0.4-0.1-0.7-0.2-1.1-0.3c-0.301-0.1-0.601-0.1-0.9-0.2h-12.3
			C530.5,480.7,529.1,480.8,527.9,481.5L527.9,481.5z"/>
		<path fill="#9D1E32" d="M559.7,480.3v30.5c1.4-0.399,2.8-0.3,4.101,0.2v-12.1h5c0-0.4-0.101-0.801-0.2-1.101
			c-0.3-0.899-0.5-1.8-0.7-2.7h-4.1V480.4l0,0H559.7V480.3z"/>
		<path fill="#881A3C" d="M623.1,359c-1.101-0.9-2.2-1.7-3.7-1.1c-1.5,0.7-1.7-0.7-2.3-1.4c-0.7-0.9,0.2-1.4,0.8-1.9
			c4-3.5,5.3-5.8,4.7-9.5c-0.9-0.1-1.9-0.2-2.8-0.3c-0.601,3.5-1.9,6.7-4.9,9.5c-1.4,1.3-0.4,3.4,0.4,4.8c0.8,1.4,2.3,1.5,4,1
			c2.399-0.7,3,0.4,2,2.5c-0.101,0.2-0.2,0.4-0.301,0.6c2.801,0.4,5.7,0.7,8.7,1.1c0-0.1-0.1-0.3,0-0.4
			C627.5,362.3,625.2,360.7,623.1,359z"/>
		<path fill="#6B2A46" d="M618,354.6c-0.6,0.5-1.5,1-0.8,1.9c0.5,0.7,0.8,2.1,2.3,1.4c1.5-0.7,2.5,0.1,3.7,1.1
			c2.101,1.7,4.4,3.3,6.601,4.9c1.8-0.6,4-0.5,5-2.6c1.3-2.5,2.5-5,5.899-2.5c0.2,0.2,0.9-0.1,1.3-0.3c2.7-1.4,4.7-3.1,4.5-6.6
			c-0.1-1-0.3-2-0.3-3c-4.5-0.9-9-1.7-13.6-2.4c-3.2-0.5-6.5-0.9-9.8-1.3C623.301,348.7,622,351.1,618,354.6z"/>
		<path fill="#9B1D20" d="M626.5,488.4v-4.2h7.5c1.601,0,3.101,0.2,4.4,0.6c-0.6-1.2-1.3-2.399-2.2-3
			c-0.6-0.399-1.1-0.899-1.5-1.399c-0.2,0-0.5,0-0.7,0h-10c-0.5,0.199-1.1,0.399-1.699,0.6v7.6C623.7,489.4,625.1,489.1,626.5,488.4
			z"/>
		<path fill="#9B1D20" d="M586.6,481.3v-1h-3.4c0.3,0.2,0.601,0.4,0.9,0.4C585,480.9,586,480.9,586.6,481.3z"/>
		<path fill="#9B1D20" d="M586.6,493.4v-4.2C585.4,490.8,585.5,492.3,586.6,493.4z"/>
		<path fill="#9B1D20" d="M546.1,480.8v-0.5h-1.9c0.3,0.101,0.601,0.101,0.9,0.2S545.7,480.7,546.1,480.8z"/>
		<path fill="#9B1D20" d="M563.9,480.3L563.9,480.3L563.9,480.3C563.801,480.3,563.801,480.3,563.9,480.3z"/>
		<path fill="#B32035" d="M595,343.8L595,343.8c0.101-0.6,0.101-1.1-0.1-1.6c-0.7-0.1-1.5-0.1-2.2-0.2c0.101,0.3,0.2,0.7,0.2,1.1
			C593.6,343.4,594.301,343.6,595,343.8z"/>
		<polygon fill="#B32035" points="592.9,343.1 592.9,343.1 592.9,343.1 592.9,343.1 		"/>
		<path fill="#B42125" d="M604.7,344c-0.2-0.3-0.6-0.6-1-1c-1.5-0.1-3-0.3-4.5-0.4c-0.3,2.3-2.1,1.9-4.2,1.2l0,0
			c-0.699-0.2-1.399-0.5-2.1-0.7l0,0l0,0l0,0c-0.1,2,0.3,3.5,2.8,3.8c2,0.3,3.5,1.6,2.601,4c-1,2.7-0.801,4.9,2.1,6.4
			c1.5,0.8,1.9,2.5,2.6,3.9c3.801,0.4,7.801,0.8,12.101,1.2c-1.101-2.4-1.9-5-2.4-7.8C611.9,350.5,607,347.9,604.7,344z
			 M610.801,354.7c-0.301,1.6-1,3-2.801,3.5c-0.899-0.6-2.6-0.3-2.5-1.9c0.2-2.3,2.5-1.9,3.9-2.6
			C610.2,353.4,611,353.8,610.801,354.7z"/>
		<path fill="#E9274E" d="M508.6,356.5c1.399,0.2,2.5,0.3,2.7-1.1c0.399-2.6,2.6-3.9,4-5.8c2.3-3.1,1.899-5.3-1.2-7.6
			c-1.2-0.9-2-1.5-0.1-3.3c0.199-0.2,0.3-0.4,0.5-0.5c-1.801,0-3.601-0.1-5.4-0.1c-0.4,0-0.9,0-1.3,0c0.8,1.4,1,3.3,2.6,4.3
			c1.2,0.8,1.5,2.7-0.7,3.5c-1,0.3-1.399,0.9-1.1,1.8c0.4,1.2,1.1-0.1,1.6,0.1c1.301,0.5,2.5,1.5,0.9,2.7c-1.3,0.9-2,2-2,4.1
			c-1.5-1.4-1.5-3.2-3.3-3.1l0,0c-0.4,0-0.9,0.1-1.3,0.1l0,0c-0.5,0.8-1.101,1.9-1.9,1.8c-4.6-0.6-5,3.1-6.1,5.9
			c0,0.1,0,0.1-0.101,0.2h3.101C501.1,356.6,504.4,355.8,508.6,356.5z"/>
		<path fill="#B658A1" d="M454.7,339.7c3.7,0.3,7.101-1.2,10.8-1.6c0.601-0.1,1-0.2,1.4-0.5c-2.3,0-4.5,0-6.8,0h-4.2
			c-0.4,0.6-0.8,1.3-1.1,1.9C454.7,339.6,454.7,339.6,454.7,339.7z"/>
		<path fill="#8F1F3A" d="M532.801,498.8L532.801,498.8c-0.301,0-0.5,0-0.801,0c0,0.7,0.2,1.4,0,2.101c-1,3,0.5,3.899,3,4.1v-7.6
			C534.4,497.8,533.7,498.3,532.801,498.8L532.801,498.8z"/>
		<path fill="#8F1F3A" d="M559.7,510.8v2.9h4.101V511C562.6,510.5,561.1,510.4,559.7,510.8z"/>
		<path fill="#50B6E7" d="M300.5,405.1L300.5,405.1c-1.399-1.3-3.1-1.4-3-3.2l0,0l0,0c-1.7-0.3-3.7-1.6-4.899-0.3
			c-1.5,1.6-3.601,2-4.9,3.6c-1.8,2.2-3.4,1-5-0.1c-0.4-0.3-0.5-1-0.9-1.4c-0.6-0.5-1.399-0.5-1.8,0.1c-0.399,0.5,0,1.1,0.5,1.4
			c1,0.6,2.4,1.3,1.5,2.6c-0.1,0.1-0.2,0.3-0.3,0.4h11.7C294.7,406.6,297.6,405.9,300.5,405.1z"/>
		<path fill="#50B6E7" d="M272.6,421.8h-1v0.4c0.3,0.1,0.6,0.3,1,0.5C272.6,422.4,272.6,422.1,272.6,421.8z"/>
		<path fill="#50B6E7" d="M273.9,433.1L273.9,433.1c3.1,1,5.2,0.2,5.1-3.1c-0.1-3.9,2.4-4.4,4.8-5.6c0.9-0.4,1.9-0.801,2.9-0.9
			c1.7-0.3,1.9-0.9,1.5-1.7H276c0.2,0.3,0.3,0.601,0.5,0.9c-1.399,0.3-2.6,0.5-3.899,0l0,0c-0.5,1.899,0.5,4.3,2.199,4.8
			c1.4,0.4,1.7,1.5,1.801,2.6c0.1,0.601,0,1.2-0.7,1.4c-1.2,0.3-1.601-0.6-2.101-1.4c-0.6-1.199-1.5-0.8-2.3-0.3v2.601
			C272.3,432.3,273,432.4,273.9,433.1z"/>
		<path fill="#3BC1EF" d="M316.6,404.5c2.7-0.7,3.8-5,1.6-6.6c-2.3-1.7-4.7-3.2-5-6.5c-0.1-1-1.3-1.1-2.2-1.4
			c-1.6-0.6-3.3-0.9-4.699-1.9c-1.5-1.1-3.4-0.9-4.301,0.6c-1.1,1.6-3.199,2.3-3.699,4.3c0,1.9,2,3.5,0.699,5.6l0,0
			c0.2,1.4-0.699,2.4-1.399,3.4l0,0c-0.101,1.7,1.6,1.9,3,3.1l0,0l0,0c-2.801,0.7-5.7,1.4-7,3.1h21.8
			C314.7,406.7,313.9,405.2,316.6,404.5z"/>
		<path fill="#5B88C6" d="M278,396.3c1.601-0.9,4.3,1.1,4.5,3.1c0.2,2.3,3.601,4.6,5.3,3.9c2.2-0.9,0.5-3.7,2.2-4.2
			c1.5-0.5,2.7,2.8,4.7,0.8l0,0c-3.2-0.7-6-3.4-5.2-5.9c0.601-1.8-0.1-3.2-0.3-4.7c-0.1-0.9-0.2-2.3-1.4-1.6
			c-0.8,0.5-3.3,1.1-1.899,2.8c1.399,1.7,0.899,2.9-0.2,4.1c-1.4,1.5-3.1,1.4-4.7,0.6c-1.1-0.5-2.1-1.3-3.2-0.8
			c-2,0.8-3.199-0.3-4.5-1.4c-0.199,0-0.399,0-0.699,0c-0.301,0.2-0.7,0.3-1,0.5v1.6c0.399,0.1,0.8,0.3,1.199,0.7
			C274.4,397.1,275.9,397.5,278,396.3z"/>
		<path fill="#5B88C6" d="M291.1,389.8c1.5,3.7,2.199,8,7.1,8.7l0,0c0.2,0,0.5,0,0.7,0l0,0c1.3-2.1-0.7-3.7-0.7-5.6
			c-1.9-0.5-4.2-0.4-3.5-3.5l0,0C293.6,390.7,291,389.5,291.1,389.8z"/>
		<path fill="#5B90CB" d="M290.5,357.4c-0.899-2-2.5-2.7-3.399-0.7c-0.4,1-1,1.9-1.601,2.8c2.4,0,5.101,0,7.8,0
			C292,358.8,290.8,358,290.5,357.4z"/>
		<path fill="#5B90CB" d="M295.6,344.8c2.7,0.5,6.2-0.9,8.1,2.5c3,1.5,4.2,3.9,3.3,7c-0.899,3.1-3.199,4.3-6.3,4.1
			c-1-0.1-1.6,0.5-2.2,1.1c8.4,0,15.9,0,15.9,0h10c0.6-0.8,1.4-1.6,2.4-2.2c0.8-0.5,2.1-1.5,1.3-1.9c-3-1.5-0.8-5-3-6.6
			c-2.7,3.7-6.9,3.7-10.8,4.5c-1.101,0.2-2.101-0.3-2.301-1.5c-0.199-1.3-0.5-3.1,1.2-3.5c3.9-0.9,2.3-4.2,2.5-6.2
			c0.101-1.6-1.5,0.1-2,0.6c-3.3,2.7-4.399,2.7-7.3-0.1l0,0l0,0l0,0c-0.1-0.1-0.1-0.2-0.2-0.3l0,0c-0.8-1.3-1.5-2.5-1.8-4
			c-3.899,0.1-7.9,0.2-11.9,0.4c0.4,0.8,0.5,2,0.8,3.9C293.5,344.1,293.8,344.4,295.6,344.8z"/>
		<path fill="#5B90CB" d="M282.2,341.1L282.2,341.1c1.4-1.4,3.3-1.4,5-2.1c0.2-0.1,0.3-0.1,0.4-0.2c-2.2,0.1-4.301,0.2-6.5,0.4
			C281.1,339.8,281.4,340.5,282.2,341.1z"/>
		<path fill="#7B75B6" d="M363.9,359.1c-2.8,1.9-5.8,2.2-9,1.4c-1.7,0.5-2.9,0.8-3.3,3.4c-0.2,1.6-2,2-3.9,2.3
			c0.7,1.3,1.3,2.8,1.5,4.4c1.4-0.5,2.601-1.2,2.9-3.1c0.1-0.3,0.2-0.6,0.399-0.9c3,2.6,4.9-1.2,7.5-1.3
			c2.7-0.1,3.601,1.4,5.101,2.9c1.6,1.6,3,3.2,3.899,5.2c0-0.1,0-0.2,0-0.3c0-2.4-0.199-4.7-0.6-6.9c-1-1.2-1.7-2.6-1.4-4.7
			c0-0.2,0-0.4,0-0.5c-0.1-0.2-0.199-0.5-0.199-0.7C366.301,359.3,365.1,359,363.9,359.1z"/>
		<path fill="#7B75B6" d="M335.9,388.2c-0.2,1.5-1.5,3.5,1.3,4c1.7,0.3,5.3-2.2,5-3.8c-0.2-0.9-0.2-2-0.5-2.9
			c-1.399,0.6-2.899,1-4.6,1h-1C336.2,387.1,336,387.6,335.9,388.2z"/>
		<path fill="#7B75B6" d="M388.6,363.5c1.8,0.1,1.899,0.7,1.2,1.7c-1.4,1.8-0.8,3.7-0.9,5.6c1.601,1,3,0.9,4.101-0.7V370l0,0
			c0.699-2.1,1.5-4.1,3.399-5.5l0,0c-0.5,0-0.899,0-1.399,0l0,0l0,0c-2.801-1.4-5.4-3-8.5-3.7c-0.7,1-1.4,2-2,3.1
			C385.7,363.6,387.1,363.4,388.6,363.5z"/>
		<path fill="#7B75B6" d="M367.4,379.2c0.5-3.2-3.2-3.2-4.2-5.3c-0.3-0.6-1.2,0.2-1.6,0.8c-1.2,2.1-2.8,1.3-4.4,0.7
			c-0.899-0.3-1.6-2.5-2.7-1.1c-0.899,1-1.199,3.2,0,4.2c2.101,1.7,2.301,4.2,3.4,6.3c0.8,1.6,1.6,4.1-2.1,3.6
			c-1.2-0.2-1.5,0.9-1.601,1.8l0,0l0,0c0.601,2.5,0.3,4.7-1,7.2c-1,2-2.399,4.4-1.399,7.1c0.399,1-0.601,1.4-0.9,2.1
			c0,0.1,0.1,0.1,0.1,0.2c2.801-0.8,3.7-3.5,5.301-5.4c-0.4-2.9,1.5-4.7,3.5-6.3l0,0c0.199-4.5,1.699-6.2,5.699-5.8
			c1.2-2.6,2.2-5.4,2.801-8.4H368.2C367.2,380.7,367.301,379.8,367.4,379.2z"/>
		<path fill="#52A3D9" d="M339.301,404.6c3.1,0.2,6,0.7,4.899-4.2c-0.3-1.5,1.7-2.6,2.5-4c0.3-1,2.101-1.9,0.9-2.9
			c-1.5-1.3-3.601-1.5-5.601-1c-0.8,0.2-1.6,0.8-2.3,1.3c-2.7,2.2-6.7,1.6-8.1-1.4c-0.601-1.3-1.5-1.9-2.3-2.8l0,0
			c-2.4,0.2-4.601-0.3-6.101-2.5c-0.1-0.2-0.3-0.4-0.399-0.5h-2.5c-0.601,0.5,0.1,1.2,0.399,1.8c0.601,1.5-0.399,2.2-1.5,1.7
			c-3.5-1.7-7.7-1-10.899-3.5h-7.2c-0.5,0.3-1.101,0.8-1.601,1.4c-0.899,1.1-2.5,0.3-3.899,0.5c-0.101,0-0.2,0.1-0.301,0.1
			c-0.199,0.1-0.399,0.2-0.6,0.2c0,0.2,0,0.4,0,0.6l0,0c-0.7,3.1,1.7,3,3.5,3.5c0.5-2,2.7-2.7,3.7-4.3c1-1.4,2.8-1.7,4.3-0.6
			c1.4,1,3.101,1.4,4.7,1.9c0.9,0.3,2.1,0.4,2.2,1.4c0.3,3.3,2.7,4.8,5,6.5c2.2,1.6,1.1,5.9-1.601,6.6c-2.6,0.7-1.8,2.2-1.3,3.7
			h20.5c0-0.2,0-0.4-0.1-0.6C335.4,405.5,337.1,404.4,339.301,404.6z"/>
		<path fill="#6988C4" d="M360,365.2c-2.6,0.1-4.5,4-7.5,1.3c-0.1,0.3-0.3,0.6-0.399,0.9c-0.3,1.9-1.5,2.6-2.9,3.1
			c0.101,0.4,0.101,0.7,0.101,1.1c0.6,6.3-2.8,11.8-7.7,14c0.3,0.9,0.399,2,0.5,2.9c0.3,1.5-3.3,4.1-5,3.8c-2.9-0.5-1.601-2.5-1.3-4
			c0.1-0.6,0.3-1.1,0.2-1.6h-8.4c0.8,0.8,1.8,1.5,1.5,3l0,0c0.8,0.9,1.7,1.6,2.3,2.8c1.4,3,5.3,3.6,8.101,1.4
			c0.699-0.6,1.5-1.2,2.3-1.3c2-0.4,4.1-0.3,5.6,1c1.2,1-0.7,1.9-0.899,2.9c0.8,0.4,1.5,1,2.1-0.4c1.1-2.6,3.1-4.3,5.5-5.8l0,0
			c0.1-1,0.4-2,1.6-1.8c3.7,0.5,3-2,2.101-3.6c-1.101-2.1-1.3-4.6-3.4-6.3c-1.2-1-0.8-3.1,0-4.2c1.101-1.4,1.7,0.7,2.7,1.1
			c1.6,0.6,3.3,1.4,4.4-0.7c0.399-0.6,1.3-1.4,1.6-0.8c1,2.1,4.6,2.1,4.2,5.3c-0.101,0.6-0.2,1.6,0.7,1.7h0.1c0.5-2.4,0.8-5,0.8-7.6
			c-0.899-1.9-2.3-3.5-3.899-5.2C363.6,366.5,362.7,365,360,365.2z"/>
		<path fill="#3E61A8" d="M272.6,393c0.199,0,0.399,0,0.699,0c0.301-0.2,0.7-0.4,0.801-0.6c0.399-1.3,3.5-4.3,5.899-5.8h-8.3v1.8
			c0.1,0,0.2-0.1,0.4-0.1c0.1,0,0.199-0.1,0.3-0.1c-0.101,0.1-0.2,0.1-0.3,0.2c-0.2,0.1-0.301,0.3-0.4,0.4v2.4
			C272.1,391.7,272.8,392.2,272.6,393z"/>
		<path fill="#5B88C6" d="M294.7,388.8c0.2-0.1,0.4-0.2,0.6-0.3c0.101,0,0.2,0,0.301-0.1c1.399-0.2,3.1,0.6,3.899-0.5
			c0.5-0.6,1-1.1,1.601-1.4h-10.2c0,0.1-0.101,0.3-0.101,0.4C291.9,388.2,295,385,294.7,388.8z"/>
		<path fill="#4AB1E4" d="M307,354.3c0.9-3.2-0.3-5.6-3.3-7c-3.1-0.6-6.2-1-9.4-0.7c-3.3,0.3-7.1,2-9.3-2.5
			c-0.2-0.5-1.5-0.4-2.2,0.1c-0.699,0.5-0.5,1.3,0.101,1.8c3.3,2.7,6.1,5.8,8.399,9.5c1,1.5,2.4,3.2,4.5,4c1,0,1.9,0,2.9,0
			c0.601-0.6,1.101-1.2,2.2-1.1C303.801,358.6,306.1,357.4,307,354.3z"/>
		<path fill="#3BC3F1" d="M182.4,490.2c1.3-0.601,2.7-1,4.1-1.3V484.1h7.101c0.199-0.1,0.5-0.1,0.699,0H206.6v-3.8h-24.2V490.2
			L182.4,490.2z"/>
		<path fill="#3BC3F1" d="M148.3,485.8c-0.3,0.4-0.6,0.7-0.8,1.101c2.2-2.101,5.101-3.301,8.5-3.301c4.9,0,8,2.4,10.2,4.5l0.1,0.101
			l2.801-3L169,485.1c-2.899-2.699-6.5-5.3-13-5.3c-1.6,0-3.1,0.2-4.5,0.601C151.6,482.8,149.5,484.1,148.3,485.8z"/>
		<path fill="#3BC3F1" d="M276.3,440.1c-0.199,1-0.3,1.801,0.7,2.4s1.7,0,2.4-0.7c3.6-3.3,6.6-6.899,7-12.2
			c0.1-1.899,2.399-4.1,4.7-5.199V421.8h-2.9c0.4,0.8,0.2,1.4-1.5,1.7c-1,0.2-2,0.5-2.9,0.9c-2.399,1.1-4.899,1.699-4.8,5.6
			c0.101,3.3-2,4.1-5.1,3.1l0,0c-0.8,0.5-1.601,1-2.4,1.5v5c0.9-0.3,1.8-0.699,2.601-1C275.9,437.8,276.7,438.2,276.3,440.1z"/>
		<path fill="#3BC3F1" d="M260.8,480.2L260.8,480.2L260.8,480.2c-0.199-0.101-0.399-0.3-0.5-0.4c-4.399,0-8.399,1.8-11.3,4.7
			c0.601,1.2,1.3,2.4,2.2,3.5c2.2-2.7,5.5-4.4,9.2-4.4c0.7,0,1.399,0,2,0.101c-0.101-0.4-0.2-0.7-0.2-1.101
			C262,481.7,261.2,481,260.8,480.2z"/>
		<path fill="#48C5E1" d="M271.4,502.5c0.8,0.7,1.8,1.1,2.7,1.5v-8.3h-11.5c-0.5,0.1-0.9,0.1-1.5,0h-1v2.399
			c1.3-0.399,2.6-1.1,3.5,0.801l0,0l0,0c0,0.199,0,0.399,0,0.5h6.6v3.3c0.1-0.101,0.2-0.101,0.3-0.2
			C270.6,502.3,271.2,502.3,271.4,502.5z"/>
		<path fill="#48C5E1" d="M336.301,483.1v0.801c0.1-0.101,0.199-0.101,0.3-0.2C336.801,483.4,336.6,483.2,336.301,483.1z"/>
		<path fill="#48C5E1" d="M267.5,484.6c0.3-1.399,1.601-0.899,2.601-0.5c0.8,0.301,1.699,0.2,2-0.5c-0.9-0.699-1.801-1.3-2.7-1.8
			c-1.2,0.4-2.4,0.9-3.4-0.399c-0.3-0.4-0.399-0.801-0.3-1.101c-1.3-0.3-2.8-0.5-4.3-0.6c-0.2,0.1-0.4,0.3-0.601,0.399l0,0
			c0.4,0.801,1.2,1.601,1.301,2.4c0,0.4,0.1,0.7,0.199,1.1c2.2,0.2,3.9,0.9,5.301,1.7C267.5,485.1,267.5,484.9,267.5,484.6z"/>
		<path fill="#48C5E1" d="M287.7,497c0,2.9,0.7,5.7,1.9,8c1.199,0,2.5,0,3.699,0c0.2-0.2,0.5-0.5,0.7-0.7c-1.3-2.1-2-4.7-2-7.399
			c0-7.601,5.5-13.4,12.7-13.4c7.301,0,12.801,5.8,12.801,13.5c0,1.1-0.101,2.2-0.4,3.2c0.7-1.5,1.6-2.9,2.1-4.5
			c0.2-0.8,0.7-2.7,1.9-3.4c-1.9-7.399-8.3-12.6-16.4-12.6C295.2,479.7,287.7,487.3,287.7,497z"/>
		<path fill="#48C5E1" d="M269.8,487c0.101,0.1,0.301,0.2,0.4,0.3l0.1,0.101l0.301-0.301c-0.2,0-0.4,0-0.7-0.1
			C269.9,487,269.9,487,269.8,487z"/>
		<path fill="#3AA3DA" d="M248.3,488.5c0.101-1-0.199-1.9-0.699-2.6c-1.301,1.6-2.4,3.5-3,5.6c0.199-0.1,0.5-0.1,0.8-0.2
			C247.1,491.1,248.2,490.2,248.3,488.5z"/>
		<path fill="#3AA3DA" d="M250,507.8c-0.2,1.101-0.5,1.8-0.899,2.3c1.5,1.301,3.199,2.4,5.1,3.101c0.2-0.4,0.3-0.9,0.3-1.5
			c0.2-2,1.7-1.4,3.101-1.101c0.199-0.1,0.399-0.199,0.5-0.199l0,0c-2.5-0.5-4.601-1.5-6.2-3.101H251.8
			C251.1,507.2,250.1,507.1,250,507.8z"/>
		<path fill="#549CD4" d="M182.4,498.4c0.7,1,1.1,2.1,0.8,3.6c-0.6,2.7,0.6,4.2,3.3,5.2v-8.4c-0.6-0.399-1.2-1-1.7-1.899
			c-0.399-0.7-1.6-1.101-0.6-2.101c0.7-0.7,1.5-1.7,2.3-1.5v-1.5c-1.5,0.7-2.8,1.7-4.1,2.7V498.4z"/>
		<path fill="#549CD4" d="M194.7,513.3c0,0.101,0.1,0.3,0.1,0.4h2.2c0-1.3-0.2-2.5-0.7-3.8H193C193.8,510.7,194.4,511.7,194.7,513.3
			z"/>
		<path fill="#6A5BA7" d="M191.5,498.7h0.3c2.601-1.9,4.9-1.101,7.2,0h5.5V495h-12.6C191.4,496.2,190.8,497.4,191.5,498.7z"/>
		<path fill="#2BBDEB" d="M269,508.9c1.601-1.101,3.4-1.301,5.101-1.2V504c-1-0.3-1.9-0.8-2.7-1.5c-0.2-0.2-0.8-0.2-1,0
			c-0.101,0.1-0.2,0.1-0.3,0.2v4.7c-2.101,1.699-4.9,2.8-7.801,3.1c0.101,0,0.301,0,0.5,0.1C265.2,511,267.1,510.2,269,508.9z"/>
		<path fill="#2BBDEB" d="M258,510.6c0.8,0,1.601-0.1,2.101,0.7l0,0c0.5,0.8,1.3,0.7,2.1,0.7c0-0.4-0.8-1.2-0.4-1.5
			c-0.3,0-0.6,0-0.899,0c-0.9,0-1.8-0.1-2.7-0.2l0,0C258.1,510.4,258.1,510.5,258,510.6z"/>
		<path fill="#2BBDEB" d="M243.8,499c0.4,4.5,2.301,8.3,5.301,11c0.399-0.4,0.699-1.1,0.899-2.3c0.101-0.7,1.2-0.601,1.8-0.601V507
			c-1.1-1.1-2-2.5-2.699-4c-0.301,0-0.5,0-0.801,0.1c-1.1,0.301-2.5,1.4-3.199-0.399c-0.601-1.601,0.699-2.5,1.899-3.2
			c0.3-0.2,0.7-0.4,1.101-0.7c0-0.3-0.101-0.7-0.101-1C246.1,497.4,244.8,497.9,243.8,499z"/>
		<path fill="#3BC3F1" d="M246.5,502.4c0.8-0.101,1.5-0.2,2.2-0.4c-0.2-0.5-0.3-1.1-0.4-1.6C247.6,500.8,246.9,501.3,246.5,502.4z"
			/>
		<path fill="#3BC3F1" d="M263.5,498.9c-0.899-2-2.2-1.2-3.5-0.801v1.4h2.601C263,499.2,263.3,499,263.5,498.9L263.5,498.9z"/>
		<path fill="#389CD6" d="M141.4,506.1c1.7,0.601,3.2,2,5,1.9c1.3-0.1,2.8,1.1,3.5,2.5c0.899,1.7,2.399,2.6,3.899,3.6
			c0.601,0.101,1.301,0.101,2,0.101c0.9,0,1.801-0.101,2.601-0.2c0.5-1.2,1.1-1.2,2-0.4c3.899-1,6.6-3.199,8.7-5.3l0.1-0.1
			l-0.6-0.601c-0.101,0.101-0.2,0.2-0.301,0.2c-1.8,1.5-3.3,1.4-4.899,0.2c-1.601,1.1-3.3,1.8-5.5,2.1c-0.601,0.7-1.4,1-2.4,0.7
			c-0.5-0.1-1-0.399-1.5-0.7c-3.899-0.6-7.2-2.899-9-6.3c-1.6-0.5-3.3-0.899-5-0.8C140.4,504.2,140.9,505.2,141.4,506.1z"/>
		<path fill="#15AFD7" d="M336.301,500.6c1-0.199,2.3-0.199,4-0.3c0,0,0,0,0.1,0v-15.8c-0.3-1-0.5-2-0.8-3c-1.101-0.9-2.2-0.2-3.3,0
			v1.6c0.3,0.101,0.5,0.301,0.3,0.601c-0.101,0.1-0.2,0.1-0.3,0.2V500.6L336.301,500.6z"/>
		<path fill="#15AFD7" d="M294,504.4c-0.2,0.199-0.5,0.5-0.7,0.699c-0.8,0.9-0.3,3-1.8,2.9h-0.1c0.399,0.4,0.7,0.9,1.1,1.3
			c1.9-0.1,3.8,0.101,5.4-0.8C296.3,507.4,295,506,294,504.4z"/>
		<path fill="#15AFD7" d="M319.2,495.8c-0.5,1.601-1.399,3-2.1,4.5c-1,4.7-4.3,8.3-8.7,9.601c1.2,1.1,2.7,1.8,4.3,2.3
			c5.4-2.9,9-8.601,9-15.3c0-1.601-0.2-3.2-0.6-4.601C319.9,493,319.5,494.9,319.2,495.8z"/>
		<path fill="#15AFD7" d="M262.2,512c1.5,0.1,2.4,1.7,4.4,0.7c1.899-0.9,3.699-1.601,5.6-2.101c0.7-0.5,1.3-1,1.8-1.399l0.101-0.101
			V507.7c-1.801-0.101-3.5,0.1-5.101,1.2c-1.899,1.3-3.8,2.1-6.1,1.6c-0.2,0-0.4-0.1-0.5-0.1c-0.2,0-0.4,0-0.601,0.1
			C261.4,510.7,262.1,511.5,262.2,512z"/>
		<path fill="#1183BF" d="M349.1,510.7c-1.601,0.2-2.7,1.5-3.2,2.899v0.101h6.1c-0.1-0.2-0.1-0.3-0.199-0.5
			c-0.101-0.2,0.699-0.7,1.1-1.101c1.3-0.5,1.7-1.3,1.7-2.199H351C350.7,510.3,350.1,510.6,349.1,510.7z"/>
		<path fill="#2498C7" d="M336.301,500.6V513.7h9.5V513.6c0.399-1.399,1.6-2.699,3.199-2.899c1-0.101,1.601-0.4,1.9-0.8h-10.5V500.3
			c0,0,0,0-0.1,0C338.6,500.3,337.301,500.4,336.301,500.6z"/>
		<path fill="#2BBDEB" d="M258,510.6L258,510.6L258,510.6z"/>
		<path fill="#2BBDEB" d="M258,510.6c-0.1,0-0.3-0.1-0.399-0.1c-1.301-0.3-2.9-0.9-3.101,1.1c0,0.601-0.2,1-0.3,1.5
			c1,0.4,2.2,0.7,3.3,0.9C257.2,513,257.8,511.8,258,510.6z"/>
		<path fill="#3862AD" d="M261.7,513c-0.9-0.1-0.9,0.6-1.1,1.2c1.1,0,2.1-0.101,3-0.2C263.4,513.6,262.4,513.1,261.7,513z"/>
		<path fill="#3AA3DA" d="M260.1,511.3L260.1,511.3c-0.5-0.8-1.301-0.7-2.101-0.7l0,0l0,0l0,0l0,0c-0.2,1.101-0.8,2.4-0.5,3.4
			c0.5,0.1,1.101,0.2,1.7,0.2C258.8,513.1,258.3,512,260.1,511.3z"/>
		<path fill="#B02024" d="M622.4,480.3v0.601c0.6-0.2,1.1-0.4,1.7-0.601H622.4z"/>
		<path fill="#B42125" d="M559.6,432c-1.3,0.9-3.4,0.1-4.601,1.7l0,0c1.9-0.2,3.9,1.399,6.2-1.2c-0.5,3.1-1.6,4.4-3.6,4.5
			c-1.6,0.1-2.8,0.9-4.1,1.5c1.1,1.3,2.3,0.4,3.5,0.1c1.1-0.3,2.1,0.101,2.699,1c0.801,1.101-0.1,2-0.699,2.7
			c-1.2,1.3-2.801,2-4.5,2.4c-1.2,0.2-2.2,0-3-1.2c-1.2-1.9-0.7-3.5,0.6-5l0,0l0,0c-0.6-0.5-1.3-1-1.8-1.5
			c-0.7-0.7-1.2-1.4-0.601-2.4c0.601-0.899,1.5-1,2.4-0.8s1.9,1,2.7-0.1c0,0,0,0,0-0.101c-1.2,0-1.7-0.8-2.3-1.8
			c-0.5-0.8-1.301-1.899-2.101-1.6c-2.3,1-3.6-0.4-4.899-1.601c-1.601,1.2-3.2,2.2-4.9,3c-0.3,0.801-0.8,1.5-1.2,2.2
			c-1.399,2-2.899,3.9-1.899,6.601c0.699-1.9,0.8-4.2,3.199-4.801c2.601-0.6,4.4,1.601,5.801,3c1.899,1.9,0.1,4-1.5,5.601
			c-1.601,1.7-2.7,0.899-3.7-0.8c-0.7-1.101-1.601-2.301-3.2-2.301c-0.2,2.4-0.1,4.601,2.4,6c0.8,0.4,2.199,1.2,1.399,1.9
			c-1.399,1.4-1.3,4.9-3.1,4.3c-3.9-1.2-5.601,0.7-7,2.9c5.8-0.8,11.399-2.601,16.6-5.2l0,0c-1.399-3-0.3-4.8,2.9-5.2
			c1.899-0.3,3.5-0.2,4.6,0.601c2.8-2.101,5.4-4.4,7.9-6.9c-0.7-2-0.601-4.2-1.2-6.2C562.1,431.8,561.9,430.5,559.6,432z
			 M546.9,436.2c0,0.1-0.4,0.3-0.6,0.2c-1.5-0.5-1.2-1.801-1.3-3C546,434.2,547.1,434.7,546.9,436.2z"/>
		<path fill="#B42125" d="M519.801,482.2c1.399-0.4,2.899-0.9,4,0.7c1.6,0,2.5-1.801,4.199-1.4l0,0c1.2-0.7,2.601-0.8,3.9-1.2h-12.1
			V482.2L519.801,482.2z"/>
		<path fill="#B42125" d="M523.7,482.9c-0.1,0.1-0.1,0.1-0.1,0.199C523.6,483,523.7,483,523.7,482.9z"/>
		<path fill="#C4213E" d="M519.801,484.1h0.1c-0.1-0.1-0.1-0.3-0.1-0.399V484.1z"/>
		<path fill="#C4213E" d="M505.801,483.1v-2.8H502.2C503,481.4,504.2,482.3,505.801,483.1z"/>
		<path fill="#C4213E" d="M527.9,481.5c-1.7-0.4-2.6,1.4-4.2,1.4c0,0.1-0.1,0.1-0.1,0.199c-0.1,0.301-0.2,0.601-0.1,1h3.1
			C526.7,483.2,527.1,482.4,527.9,481.5L527.9,481.5z"/>
		<path fill="#C4213E" d="M532.1,498.9L532.1,498.9c0.3,0,0.5,0,0.8,0l0,0c0-1.801-0.7-3.101-2-3.9v4
			C531.301,498.9,531.7,498.9,532.1,498.9z"/>
		<path fill="#D22227" d="M591,353.4c-1-1.6-1.5-3.4-3.1-4.7c-0.8-0.7-0.2-1.5,0.5-2c1.5-1.2,3-2.4,4.5-3.5l0,0l0,0l0,0l0,0
			c-0.1-0.4-0.1-0.8-0.2-1.1c-6.3-0.5-12.6-1-19-1.4c-1.2,1.9-2.7,2.8-5.1,2.8c-1,0-1.1,1.1-1.2,2.1c-0.2,3-1.9,5.9,0.4,8.8
			c0.399,0.5-0.3,1.3-0.8,1.8c-2.4,2.3-10.601,3.8-13.2,1.9c-1.8-1.3-3.101-3.4-3.101-5.9c0-2.3-0.5-3.8-3.199-3.8
			c-0.7,0-1.4-0.4-1.5-1.1c-0.2-1.1,0.699-1.4,1.399-1.7c2.5-1,4-2.4,4.9-5.2c0.1-0.3,0.2-0.6,0.399-0.9c-3.1-0.1-6.199-0.3-9.3-0.4
			c0.601,2.3-0.3,4.1-3.5,5.1c-1.399,0.5-2.1,1.8-1.2,3.4c0.601,1.1,1.101,2.3,0.9,3.6c-0.6,3.1-1.3,5.9,2.7,7.7
			c1.9,0.9,0.1,3.5,0.4,5.4c1.699,1,3.3,2.2,4.8,3.5c1.8-0.3,3.1,0.4,4.6,1.4c1.4,1,2.8,2,4.4,2.6c1.2,0.5,2.6,1.3,2.2,3.1
			c-0.301,1.3-0.601,2.9-2.101,3.3c-0.2,0.1-0.399,0.1-0.6,0.2c0.7,1.3,1.3,2.6,1.899,3.9c0.4,0.2,0.5,0.7,0.5,1.2c0.4,1,0.7,2,1,3
			c0.301,1.2,0.601,2.5,0.9,3.8c0.5-0.6,1.4-0.6,2.1-1c2.101-1.3,2.101-2.9,0.101-4.5c-1.8-1.5-2.5-2.7-0.4-5.2
			c1.8-2.1,4.7-3.3,5.4-7c0.399-2.2,3.2-3.9,5.3-5.8c-0.8-1.5-1.6-2.9-2.5-4.2c-0.3-0.1-0.5-0.3-0.5-0.7c-0.5-0.8-1.1-1.6-1.6-2.3
			c1.1,0,2,0,2.899,0c1-1,2.5-1.8,4.2-1.6c1.3,0.1,2.2,0.8,2.4,1.7c3.5,0.1,8.3,0.3,14.1,0.8C593.9,358.8,593.4,357.2,591,353.4z
			 M554.4,367.8c-0.7,0.1-0.8-0.6-0.8-1.2c0.1-0.6,0.2-1.2,1-0.9c0.3,0.1,0.7,0.6,0.8,1C555.5,367.3,554.9,367.7,554.4,367.8z
			 M582.6,344.8c-2.7,1.5-4,3.3-1.5,6.1c0.5,0.5,0.2,1.6-0.601,2.2c-0.899,0.7-1.5,0-2.1-0.5c-1.5-1.4-3.1-2.9-2.6-5.2
			c0.3-1.4,4.899-5,6.3-5c0.5,0,0.8,0.3,1,0.7C583.4,343.7,583.2,344.4,582.6,344.8z"/>
		<path fill="#BC2226" d="M547.5,345.5c-0.699,0.3-1.6,0.6-1.399,1.7c0.2,0.8,0.899,1.1,1.5,1.1c2.7,0,3.2,1.5,3.2,3.8
			c0,2.4,1.3,4.5,3.1,5.9c2.6,1.9,10.8,0.5,13.2-1.9c0.5-0.5,1.2-1.2,0.8-1.8c-2.3-2.9-0.6-5.9-0.4-8.8c0.101-1,0.2-2.2,1.2-2.1
			c2.4,0,4-0.9,5.101-2.8c-7-0.5-14-0.8-21-1.2c-0.101,0.3-0.301,0.6-0.4,0.9C551.5,343.1,549.9,344.5,547.5,345.5z"/>
		<path fill="#BC2226" d="M563.9,430.9c0.4-1.5,1.1-2.5,2.8-2.5c0.8,0,1.8,1.8,2.2-0.301c0.3-1.699,2.1-3.3,0.4-5.1
			c-1.2-1.2-2.2-1-3.601,0c-0.899,0.7-2.399,1-3.6,0.9c-2.1-0.2-2.9,1.1-3.7,2.399c-1.6,2.8-4.3,3.4-6.6,1.101
			c-0.7-0.7-1.3-1.4-1.9-2.101c-1.3,1.3-2.7,2.601-4.2,3.7c1.301,1.2,2.601,2.6,4.9,1.6c0.8-0.3,1.6,0.801,2.1,1.601
			c0.5,0.899,1.101,1.7,2.301,1.8c0,0,0,0,0.1,0c0,0,0,0,0-0.1c1.2-1.601,3.3-0.801,4.6-1.7c2.3-1.5,2.5-0.3,3.101,1.6
			c0.6,2,0.5,4.2,1.199,6.2c0.801-0.9,1.601-1.8,2.4-2.7l0,0C565.1,435.1,563.301,433.5,563.9,430.9z"/>
		<path fill="#BC2226" d="M497.4,425.4C497.5,425.4,497.5,425.4,497.4,425.4c1.8-0.9,1.8-2.2,0.7-3.601h-2.7
			C496.5,422.7,497.7,423.7,497.4,425.4z"/>
		<path fill="#BC2226" d="M600.4,357.4c-2.9-1.5-3.1-3.7-2.1-6.4c0.899-2.4-0.5-3.7-2.601-4c-2.5-0.4-2.899-1.8-2.8-3.8l0,0l0,0
			c-1.5,1.2-3,2.3-4.5,3.5c-0.6,0.5-1.3,1.4-0.5,2c1.601,1.3,2.101,3.1,3.101,4.7c2.399,3.8,2.899,5.4,0.699,6.9
			c3.5,0.2,7.301,0.6,11.4,0.9C602.301,359.8,601.9,358.1,600.4,357.4z"/>
		<path fill="#BC2226" d="M567.301,372.4c-0.601,3.7-3.601,4.9-5.4,7c-2.1,2.5-1.4,3.7,0.4,5.2c1.899,1.7,2,3.2-0.101,4.5
			c-0.6,0.4-1.5,0.4-2.1,1c0.3,1.7,0.5,3.4,0.6,5.2c0.2,3.4-0.1,6.7-0.7,9.8c0.601,0.2,1.5,0.3,2.7,0.2c1.4-0.1,2.4,1.2,3.601,0.9
			c2.899-0.6,4.699-3.2,7.399-4.4c0.9-0.4,0.101-1.5-0.2-2.2c-0.5-1-0.3-1.9,0.601-2.4c1.2-0.7,2.399,0.3,2.5,1.2
			c0.3,2.2,2.8,2.7,3.6,4.8c0.2-1.7,0.3-3.4,0.3-5.1c0-2.6-0.1-5.2-0.399-7.8c-0.9-8.6-3.5-16.7-7.3-23.8
			C570.5,368.5,567.7,370.3,567.301,372.4z"/>
		<path fill="#BC2226" d="M575.1,357.9c-1.601-0.2-3.101,0.6-4.2,1.6c1,0,1.9,0,2.5,0c1.1,0,2.4,0,4.1,0.1
			C577.301,358.6,576.5,358,575.1,357.9z"/>
		<path fill="#BC2226" d="M570.2,362.4c-0.1-0.2-0.3-0.4-0.5-0.7C569.7,362.2,569.9,362.3,570.2,362.4z"/>
		<path fill="#BC2226" d="M609.5,353.7c-1.399,0.7-3.699,0.3-3.899,2.6c-0.101,1.6,1.6,1.3,2.5,1.9c1.8-0.5,2.5-1.9,2.8-3.5
			C611,353.8,610.2,353.4,609.5,353.7z"/>
		<path fill="#EC225F" d="M505.5,346.1c1.2,2,1.301,3.5,0.2,5.3c1.8-0.2,1.8,1.7,3.3,3.1c0-2.1,0.7-3.2,2-4.1
			c1.601-1.2,0.5-2.1-0.899-2.7c-0.5-0.2-1.2,1.1-1.601-0.1c-0.3-0.9,0.2-1.5,1.101-1.8c2.2-0.8,1.8-2.7,0.7-3.5
			c-1.601-1-1.8-2.9-2.601-4.3c-1.5,0-2.899,0-4.399-0.1c0,0.6,0,1.3-0.101,1.9C503.301,341.7,504.4,344.3,505.5,346.1z"/>
		<path fill="#ED263D" d="M518.2,352.7c3-2.6,4.7-6.2,6.4-9.7c0.2-0.4-0.4-1.3,0.1-2.1c2.7,0.7,4.601,0.6,3.3-2.4
			c-4.5-0.1-9-0.2-13.5-0.3c-0.199,0.2-0.3,0.4-0.5,0.5c-1.899,1.8-1.1,2.4,0.101,3.3c3.1,2.3,3.5,4.5,1.2,7.6
			c-1.4,1.9-3.5,3.2-4,5.8c-0.2,1.4-1.4,1.3-2.7,1.1c-4.3-0.7-7.5,0.2-9.101,2.9h10.2h3.4c1.1-1.3,1.899-3,2.899-4.4
			C516.6,354,517.4,353.4,518.2,352.7z"/>
		<path fill="#E82A78" d="M496.5,353.8c0-2,2.2-2.8,4.2-2.5c1.3,0.2,2.5,0.4,3.7,0.1l0,0l0,0c0.4,0,0.9-0.1,1.3-0.1l0,0
			c1.101-1.8,0.9-3.3-0.2-5.3c-1.1-1.8-2.3-4.4-2.1-6.2c0-0.7,0.1-1.3,0.1-1.9c-0.899,0-1.8,0-2.8,0c1.4,0.9,2.2,2,0.7,3.7
			c-0.399,0.5-0.5,1.1,0,1.6c2.9,2.5,0.8,3.5-1.3,4.6c-2.4,1.3-3.6,4.4-6.9,4.5c-0.199,0-0.6,0.6-0.6,0.8c1.2,4.6-2.1,2.2-3.7,2.4
			c-0.399,0.1-1.1-0.5-1.3-0.3c-2.6,2.6-5.6,1.1-8.5,1.3c-3.3,0.2-2.1-1.4-2.5-2.6c-0.3-1.1,0-2.4-1.8-2.4c-1.5,0-2.9,0.2-3.5,1.6
			c-0.601,1.3-0.7,2.8,1.3,3c0.5,0.1,1.9-0.4,1.3,0.4c-0.8,1.1,0.2,2,0.7,2.9h8.3h0.7h9.8c0.2-0.2,0.4-0.5,0.601-0.8
			C495.1,357,496.5,356.1,496.5,353.8z"/>
		<path fill="#EC225F" d="M502.5,353.3c0.801,0.1,1.5-1,1.9-1.8l0,0c-1.3,0.2-2.5,0.1-3.7-0.1c-2-0.3-4.3,0.5-4.2,2.5
			c0,2.3-1.399,3.2-2.199,4.7c-0.101,0.3-0.301,0.6-0.601,0.8h2.7c0-0.1,0-0.1,0.1-0.2C497.5,356.4,497.9,352.7,502.5,353.3z"/>
		<path fill="#DF4F9B" d="M474.1,356.5c0.6-0.8-0.8-0.4-1.3-0.4c-2-0.3-1.9-1.7-1.3-3c0.699-1.4,2-1.6,3.5-1.6
			c1.699,0.1,1.5,1.3,1.8,2.4s-0.8,2.8,2.5,2.6c2.899-0.2,5.899,1.4,8.5-1.3c0.2-0.2,0.899,0.3,1.3,0.3c1.6-0.2,4.899,2.2,3.7-2.4
			c-0.101-0.2,0.399-0.7,0.6-0.8c3.2-0.1,4.5-3.2,6.9-4.5c2.1-1.1,4.2-2.1,1.3-4.6c-0.5-0.4-0.4-1.1,0-1.6c1.5-1.8,0.6-2.8-0.7-3.7
			c-10.4-0.2-20.8-0.2-31.1-0.3c-0.301,0.3-0.7,0.5-1.101,0.6c-2.1,0.8-3,3.5-6,3.3c-0.899,0-2.2,0.8-3.3,0
			c-1.9-1.3-2.7,1.2-4.3,1.2c1.899,1.5,3.2,3.5,5.899,3.1c0.601-0.1,1.301,0.4,1.101,1c-0.7,4,0.7,8.2-0.601,12.2
			c0,0.1-0.1,0.2-0.1,0.2H475C474.301,358.5,473.301,357.6,474.1,356.5z"/>
		<path fill="#B67AB1" d="M435.1,339.2c-0.2,2.7-2.2,4.6-2.101,7.4c0,1.5,0.101,2.9,0.801,4.2l0,0l0,0c1.5,0.5,2.899,2.3,4.6,0.5
			c1.4-1.5,1.9-3,0.6-5.1c1.601,1.7,3.5,2.5,5.101,3.8l0,0c0.8-0.1,1.8,0.2,1.899-0.9c0.101-0.9-0.699-1-1.3-1.3
			c-0.7-0.4-1.3-0.9-2-1.3c-2.3-1.2-3.2-2.3,0-3.5c0.7-0.3,1.2-0.7,1.4-1.4c0.5-2.5,2.5-2.4,4.1-1.9c2.2,0.7,4.3,0.5,6.4-0.2l0,0
			c0,0,0-0.1,0.1-0.1c0.4-0.7,0.7-1.3,1.101-1.9l-20.601,0.1C435.2,338.2,435.2,338.7,435.1,339.2z"/>
		<path fill="#CC61A4" d="M462,347c0.101-0.6-0.5-1.1-1.1-1c-2.7,0.4-4.1-1.7-5.9-3.1c1.601,0,2.301-2.4,4.301-1.2
			c1.1,0.7,2.399-0.1,3.3,0c2.899,0.1,3.8-2.5,6-3.3c0.399-0.2,0.8-0.4,1.1-0.6c-1,0-1.899,0-2.899,0c-0.301,0.3-0.801,0.4-1.4,0.5
			c-3.6,0.4-7.1,1.8-10.8,1.6H454.5l0,0c-2.1,0.6-4.199,0.9-6.399,0.2c-1.601-0.5-3.5-0.6-4.101,1.9c-0.199,0.7-0.699,1.1-1.399,1.4
			c-3.101,1.2-2.3,2.3,0,3.5c0.7,0.4,1.3,0.9,2,1.3c0.6,0.3,1.5,0.4,1.3,1.3c-0.2,1.1-1.2,0.8-1.9,0.9l0,0l0,0
			c-1.699,1.7-2,4-2.5,6.2c-0.3,1,1,1.3,2,1.5c2.2,0.4,3.801,0.9,4.7,1.7h12.9c0-0.1,0.1-0.2,0.1-0.2
			C462.7,355.2,461.301,351,462,347z"/>
		<path fill="#AA2958" d="M503.7,490.6c0.8-0.1,1.5,0.101,2,0.5v-8c-1.6-0.699-2.7-1.6-3.6-2.8h-0.5v10.3
			C502.301,490.7,502.9,490.7,503.7,490.6z"/>
		<path fill="#AA2958" d="M501.7,499.4v5.6c1.3,0.6,2.3,0,3.5-0.9c0.2-0.1,0.4-0.3,0.601-0.399v-6.3c-0.4,0.3-0.8,0.5-1.2,0.699
			C503.6,498.6,502.6,499,501.7,499.4z"/>
		<path fill="#AA2958" d="M532,500.9c0.2-0.601,0-1.4,0-2.101l0,0c-0.399,0-0.8,0-1.199,0v14.8h4.1V505
			C532.5,504.8,531,503.9,532,500.9z"/>
		<path fill="#B52964" d="M501.7,505v8.7h4.101v-10c-0.2,0.1-0.4,0.3-0.601,0.399C504,505,502.9,505.6,501.7,505z"/>
		<path fill="#7A6EB1" d="M326.5,339.4c-1.199,2-3.5,3.8,0,5.8l0,0l0,0c2.4-1.8,4.4-4.1,8.2-2.4c3.4,1.5,6.5-1.2,9.601-2.3
			c0.399-0.1,0.8-1.2,0.8-1.6c-1.9-0.6-4-0.9-6-1c-0.101,0-2.7,0-6.3,0c0,0.2-0.101,0.4-0.2,0.6c-0.5,0.7-1.2,0.6-1.8,0.1
			c-0.4-0.3-0.8-0.6-1.2-0.7c-0.4,0-0.9,0-1.3,0C327.5,338.1,327,338.6,326.5,339.4z"/>
		<path fill="#6172B6" d="M306.4,342.4c2.9,2.8,4,2.8,7.3,0.1c0.601-0.5,2.2-2.1,2-0.6c-0.2,2,1.5,5.3-2.5,6.2
			c-1.7,0.4-1.399,2.2-1.2,3.5c0.2,1.2,1.2,1.8,2.301,1.5c3.899-0.8,8.1-0.8,10.8-4.5c0.5-1.1,1.7-2,1.3-3.5l0,0
			c-3.5-1.9-1.2-3.8,0-5.8c0.5-0.9,1-1.4,1.6-1.6c-8.3,0.1-18.6,0.2-21.5,0.2l0,0C307.1,339.7,306.801,341,306.4,342.4z"/>
		<path fill="#6172B6" d="M306.2,342.1c0,0.1,0.101,0.2,0.2,0.3l0,0C306.4,342.3,306.301,342.2,306.2,342.1L306.2,342.1z"/>
		<path fill="#6172B6" d="M332.5,338.4c0.101-0.2,0.2-0.4,0.2-0.6c-1,0-2.1,0-3.3,0c0.4,0.1,0.8,0.4,1.2,0.7
			C331.301,339,332,339.1,332.5,338.4z"/>
		<path fill="#4282C3" d="M306.4,342.4L306.4,342.4L306.4,342.4c0.4-1.4,0.7-2.8,0.2-4.3l0,0c-0.4,0-0.7,0-0.7,0c-0.5,0-1,0-1.4,0
			c0.301,1.5,1,2.7,1.801,4C306.301,342.2,306.4,342.3,306.4,342.4z"/>
		<path fill="#3BC1EF" d="M272.5,422.7C272.5,422.7,272.6,422.8,272.5,422.7C272.6,422.8,272.6,422.8,272.5,422.7
			c1.3,0.5,2.5,0.399,3.9,0c-0.2-0.3-0.3-0.601-0.5-0.9h-3.4C272.6,422.1,272.6,422.4,272.5,422.7z"/>
		<path fill="#5FBEEA" d="M321.5,435.5c0-0.1,0.101-0.1,0.101-0.1h-2.8c0,0.1,0.1,0.1,0.1,0.199
			C319.7,436.6,320.6,436.6,321.5,435.5z"/>
		<path fill="#5FBEEA" d="M334.2,454.3c0.7-1.6,1.601-3.1,1.9-4.899c0.399-2.2,3.1-1.7,4.8-1.7s2.4-0.4,2.3-2
			c-3.7-3.601-3.399-3.5-0.8-8.101c0.7-1.3,1.6-2.8,1.5-4.3c-1.9,1.4-4.2,2.2-6.7,2.2h-12.899c0.399,0.3,0.699,0.6,1.1,0.7
			c1.3,0.5,1.3,1.7,0.9,3c-0.5,1.5-0.9,3.1-1.601,4.5c-0.7,1.7,0.2,2.899,1.2,4c1.1,1.3,2.2,0.6,3.3-0.2c0.9-0.6,1.8-0.7,2.4,0.3
			c0.7,1.2-0.4,1.5-1.101,2.101c-4.399,3.5-4.5,3.199-8-0.9c-1.699-2-3.5-4.2-6.3-5.3c-1.5-0.601-2.8-2-4-3.101
			c-1.1-1.1-2.399-1.5-3.8-0.899c-1.5,0.5-0.4,1.8-0.6,2.7c-0.101,0.8-0.4,1.6-0.5,2.3c-0.301,2.399,1.1,3.7,3.5,3.1
			c0.3-0.1,0.699-0.2,1-0.3c1.8-0.5,4.1-3,5.199-0.1c0.9,2.399,1.801,5.699-1.5,7.6c-0.8,0.5-1.3,1.2-1.5,2.1H333.6
			C333.6,456.2,333.7,455.2,334.2,454.3z M330.801,445.3c-0.7-0.2-1.301,0-2,0.101c-1,0.1-2.2,0.699-2.7-0.601s0.8-2.1,1.5-2.899
			c0.8-0.9,3.2,0.1,3.1-2.2c0.3,0,0.9-0.101,0.9,0c1.399,3.1,3.899,1.3,6.3,1.2C336.5,444.1,333.5,446,330.801,445.3z"/>
		<path fill="#5FBEEA" d="M343.1,445.6L343.1,445.6L343.1,445.6z"/>
		<path fill="#5FBEEA" d="M339.7,481.6c0-0.399,0-0.8,0-1.3h-3.3v1.2C337.5,481.4,338.6,480.7,339.7,481.6z"/>
		<path fill="#7992CA" d="M395,364.6c1.101-0.9,1-2.3,1.4-3.4l0,0l0,0c-2.7-0.7-3.7-3.2-4.7-5.4c-0.1-0.3-0.3-0.6-0.399-0.8
			c-1.7,1.9-3.301,3.9-4.801,6C389.6,361.5,392.2,363.2,395,364.6L395,364.6z"/>
		<path fill="#7992CA" d="M368.4,366c-0.3-1.8-0.8-3.5-1.3-5.2c0,0.2,0,0.3,0,0.5C366.7,363.4,367.4,364.8,368.4,366z"/>
		<path fill="#7992CA" d="M344.301,340.5c-3.101,1.2-6.2,3.8-9.601,2.3c-3.8-1.7-5.8,0.6-8.2,2.4l0,0c0.4,1.5-0.8,2.4-1.3,3.5
			c2.2,1.6,0.101,5.1,3,6.6c0.8,0.4-0.6,1.4-1.3,1.9c-1,0.7-1.8,1.4-2.4,2.2H336.6c4.6,0,8.8,2.7,11.1,6.8c1.9-0.3,3.7-0.8,3.9-2.3
			c0.3-2.6,1.6-2.9,3.3-3.4c0-0.2-0.1-0.5,0-0.7c0.5-1.1-2.2-2.3-0.2-3.1c2.101-0.8,1.3,1.5,1.8,2.4c0.4,0.8,1.101,0.8,1.7,0.5
			c1.9-1,3.8-0.3,5.7-0.4l0,0c1.2,0,2.4,0.3,2.9,1.1c-0.301-0.7-0.5-1.4-0.801-2.1c-1.1-0.5-1.699-1.2-1.1-2.2
			c-0.3-0.6-0.6-1.2-1-1.8c-0.1,0.2-0.2,0.4-0.2,0.6c-1.2,3-3.3,2.8-5.6,1.6c-1.8-1-3.4-1.9-5.2,0.2c-0.7,0.9-6.8-0.6-7.3-1.5
			c-0.601-1,0.1-1.5,0.8-1.9c1.6-1,2.7-2.3,3.1-4.3c0.301-1.5,1.601-2.2,3.2-2c2.2,0.3,4.4,0.8,6.5,1c-3.899-4.2-8.8-7.3-14.2-8.8
			C345.2,339.3,344.7,340.3,344.301,340.5z"/>
		<path fill="#984A9C" d="M394.1,387.5c-0.7-1-0.8-2.1,0.1-2.9c1.601-1.5,1.4-2.3-0.5-3.5c-3-1.9-2.899-4.2-0.399-6.8
			c0.7-0.8,2-1,2.2-2.5c0.1-0.7,1.1-1.1,1.6-0.4c1.7,2.2,3.1,0.8,4.8-0.5c-3-1.3-5.8-2.5-8.899-0.7v0.1c-0.301,2.4-1.5,4.3-4,4.9
			c-0.601,0.2-1.601,0.9-2.101-0.2c-0.3-0.8-0.1-1.6,0.7-2.1c0.7-0.4,1.1-1.1,1.2-2l0,0c0.1-1.9-0.4-3.8,0.899-5.6
			c0.801-1,0.601-1.6-1.199-1.7c-1.5-0.1-2.9,0.1-4.101,0.4c-4.2,6.9-7.2,14.9-8.5,23.4c0.3-0.5,1-0.6,1.7-0.8
			c0.5-0.1,1.2-0.7,1.2-1c0.2-3.7,4.1-3.6,5.8-5.8c0.9-1.2,2.1-0.5,2.6,0.8c0.601,1.5,1.301,2.9,2.9,3.6c3.3,1.4,3,4.4,2.6,7.1
			c-0.399,2.7-2.899,1.4-4.1,1.7c-2.3,0.2-3.9,0.1-5.3-1.7c-1.2-1.7-3.5,0.2-5.2-0.8c-0.9-0.5-2.2-0.4-2.5-1.8
			c-0.2,1.3-0.3,2.6-0.4,4c0.101,1,0.101,1.9-0.199,3c0,0.6,0,1.3,0,1.9c0,2,0.1,4,0.3,6c0.399,0,0.8,0.1,1.2,0.1
			c2.6,0.6,4.399-0.5,6.399-1.4c2.3-1.1,4.4-2.6,7.101-2.1l0,0l0,0c1.699-0.8,3.199-0.3,4.699,0.6c-0.1-1-0.1-2.1-0.1-3.1
			c0-3,0.3-5.9,0.9-8.7C395.1,388.5,394.6,388.1,394.1,387.5z"/>
		<path fill="#984A9C" d="M359.7,395L359.7,395L359.7,395c-2,1.6-3.8,3.4-3.5,6.3c0.101,5.9,0.101,5.9,6.101,6.2
			c0.8,0,1.7,0.1,2.3,0.5c0.899,0.6,1.6,0.8,2.2,0.8c-1.5-4.3-3.8-8.2-6.7-11.4c0.8-0.9,1.5-1.9,2.2-2.9
			C361.6,394.4,360.7,394.7,359.7,395z"/>
		<path fill="#8058A4" d="M390.2,399.9L390.2,399.9c-2.7-0.5-4.8,1.1-7.1,2.1c-2,1-3.8,2-6.4,1.4c-0.399-0.1-0.8-0.1-1.2-0.1
			c0.5,5.2,1.601,10.2,3.2,15c0.2-0.7,0.101-1.7-0.2-2.9c4.4,2,8.7,1.8,13.7,1.8l0,0c-2.2-3.2-3.8-6.3-5.2-9.5
			c-0.399-1-1.199-1.7-0.1-2.7c0.9-0.8,1.7-1,2.8-0.4c2.101,1.1,4,1.2,5.7,0.2c-0.1-0.7-0.2-1.4-0.3-2.1
			C393.4,401.9,391.801,400.9,390.2,399.9z"/>
		<path fill="#8058A4" d="M364.6,408c-0.601-0.4-1.5-0.5-2.3-0.5c-6-0.4-6-0.4-6.101-6.2c-1.6,2-2.5,4.7-5.3,5.4
			c-0.1,0-0.1,0-0.2,0.1l0,0c1.3,1.4,1.101,2.4-0.6,3.5c-1.5,0.9-3,1.3-4.601,1.8c0.801,0.8,1.5,1.8,2.101,2.8
			c1.6-1,3.399-0.8,3.8,1.8c0.2,1.1,1.3,2.4,0.5,3.3c-3.2,3.7-0.6,6.3,1.5,9h0.1c0.301-1.3,0.2-2.5-0.199-3.7
			c-0.9-2.5,0.699-4.3,2.399-5c1.4-0.5,3.5-0.3,4.4,2.3c0.899,2.9,5.2,4.5,8.5,4.101c0.1-0.7,0.2-1.4,0.2-2.101
			c0.399-5.6-0.4-11-2.2-15.9C366.2,408.9,365.5,408.6,364.6,408z"/>
		<path fill="#935DA6" d="M405.5,366.1c-3.3,1.2-6.1-0.6-9.1-1.4l0,0l0,0c-1.9,1.3-2.7,3.4-3.4,5.5l0,0c3.101-1.8,5.9-0.6,8.9,0.7
			c-1.7,1.3-3.1,2.7-4.8,0.5c-0.5-0.6-1.5-0.3-1.601,0.4c-0.1,1.4-1.399,1.7-2.199,2.5c-2.5,2.6-2.601,4.9,0.399,6.8
			c1.9,1.2,2.101,2,0.5,3.5c-0.8,0.8-0.7,1.9-0.1,2.9c0.399,0.6,0.899,1,1.5,1.2c1.5-7.1,4.8-13.5,9.399-18.5c0-0.3,0.2-0.7,0.9-0.9
			c0.4-0.5,0.9-0.9,1.4-1.3c0-0.2-0.101-0.3-0.2-0.5C406.801,366.8,406.4,365.7,405.5,366.1z"/>
		<path fill="#935DA6" d="M390.2,399.9L390.2,399.9c1.601,1,3.2,2,4.9,2.7c-0.101-0.7-0.2-1.4-0.2-2.1
			C393.4,399.6,391.9,399.1,390.2,399.9z"/>
		<path fill="#A88FC2" d="M436.5,356.6c-1.5,0.8-3.1,0.3-4.699,0.4c-3.4,2.9-6.4,2.9-9.7-0.4c-0.7-0.7-2.4-0.9-3.5-1.7l0,0
			c-2.4-0.5-2.4-2.7-2.5-4.3c-0.101-2.2-1-3.6-2.9-4.5l0,0c0.101,0.6-0.1,1.2,0.2,1.7c1.8,3,1.1,4.1-2.3,3
			c-1.101-0.3-1.7-0.2-2.101,1c-0.3,1-0.6,2,0.601,2.7c1.5,1,3.899,1.5,3.399,3.8c-0.5,2.3-3.3,2-5,2.9c-0.6,0.3-1.3,0.4-1.899,0.7
			c-2.2,0.8-4.4,2.6-6.601-0.3c-0.5-0.7-1.8-0.9-2.899-0.3l0,0c-0.5,1.1-0.4,2.5-1.4,3.4l0,0c0.5,0,0.9,0,1.4,0l0,0l0,0
			c3,0.8,5.7,2.7,9.1,1.4c0.9-0.3,1.3,0.7,1.7,1.5c0.101,0.2,0.101,0.3,0.2,0.5c1.4-1.3,2.9-2.4,4.4-3.4c-0.301-0.1-0.601-0.1-1-0.1
			c1.3-0.6,2.6-1.2,4-1.7c0.199-0.1,0.3-0.1,0.5-0.1c4.199-2.1,8.899-3.2,13.899-3.2h11.4c-0.5-0.8-1.5-1.6-1.9-2.4
			C438.1,355.8,437.4,356,436.5,356.6z"/>
		<path fill="#A88FC2" d="M405.1,370.2c0.3-0.3,0.6-0.6,0.899-0.9C405.301,369.6,405.1,369.9,405.1,370.2z"/>
		<path fill="#908AC2" d="M345.2,408.7c3,2.6,3.9-0.6,5.601-1.9l0,0l0,0c0-0.1,0.1-0.2,0.1-0.3c0.3-0.7,1.3-1.1,0.9-2.1
			c-0.9-2.6,0.399-5.1,1.399-7.1c1.3-2.5,1.601-4.6,1-7.2l0,0c-2.3,1.4-4.399,3.2-5.5,5.8c-0.6,1.5-1.3,0.8-2.1,0.4
			c-0.8,1.4-2.8,2.4-2.5,4c1.1,4.9-1.8,4.4-4.9,4.2c-2.1-0.2-3.899,0.9-3.6,3.1c0,0.2,0,0.4,0.1,0.6h0.9c2.6,0,5.1,0.9,7.2,2.3
			c0.1-0.3,0.2-0.6,0.2-1C344,409,344.7,408.3,345.2,408.7z"/>
		<path fill="#7F5FA8" d="M359.7,395L359.7,395c1-0.3,1.9-0.6,2.601-0.5c1.2-1.7,2.2-3.4,3.1-5.3C361.4,388.8,359.9,390.5,359.7,395
			z"/>
		<path fill="#7F5FA8" d="M375.4,392.5c-0.1,1-0.1,2-0.2,3C375.5,394.5,375.5,393.5,375.4,392.5z"/>
		<path fill="#935DA6" d="M388.801,370.8L388.801,370.8c-0.101,0.9-0.5,1.5-1.2,2c-0.8,0.5-1.101,1.3-0.7,2.1
			c0.5,1.1,1.5,0.4,2.1,0.2c2.4-0.7,3.601-2.5,4-4.9C391.801,371.8,390.4,371.8,388.801,370.8z"/>
		<path fill="#6988C4" d="M363.9,359.1L363.9,359.1c-1.9,0-3.8-0.7-5.7,0.4c-0.6,0.4-1.3,0.3-1.7-0.5c-0.5-0.9,0.4-3.2-1.8-2.4
			c-2,0.8,0.7,2,0.2,3.1c-0.1,0.2,0,0.5,0,0.7C358.1,361.3,361.1,361,363.9,359.1z"/>
		<path fill="#908AC2" d="M354.5,439c-0.1-0.1-0.6,0.3-0.899,0.4l0,0l0,0c-1.601,1-3.101,0.399-3.5-1.2c-0.5-1.7-3.3,1.7-2.5-1.3
			C348,435.6,349.5,435.3,350.5,434.6c1.101-0.699,1.2-1.8,0.4-2.699c-1-1.301-1.7-0.4-2.4,0.6c-1,1.6-1.199,1.9-2.5-0.3
			c-0.1-0.2-0.3-0.4-0.399-0.601c-0.601,0.601-1.2,1.2-1.8,1.601c0.1,1.5-0.8,3-1.5,4.3c-2.601,4.6-2.9,4.4,0.8,8.1l0,0l0,0l0,0l0,0
			c1.5,1.801,0.399,3-1,3.9c-2.8,1.9-4.8,4.2-5.4,7.5c0.7,0,1.4,0,2.101-0.1c0.399-2.801,1.6-3.601,4.8-1.101
			c0.2,0.101,0.399,0.2,0.5,0.2c0.3-0.1,0.7-0.2,1-0.3c0.7-0.4,1.3-0.9,1.899-0.9c0.101,0.101,0.101,0.101,0.101,0.2
			c1.1-0.4,2.2-0.9,3.3-1.5c-0.2,0-0.3,0-0.6,0c-2.9,0.3-2.9,0.1-4.4-3c2.5,0.6,4.6-0.9,7.2,0.4c0.5,0.199,1.1,0.3,1.6,0.3
			c0.9-0.601,1.7-1.3,2.601-2c0.1-0.4,0.2-0.9,0.2-1.4c0-1,0.199-2,1.399-1.899c0.5,0,1,0.199,1.3,0.5c1.7-1.801,3.2-3.9,4.4-6.101
			C360.7,441.1,357.5,441.2,354.5,439z"/>
		<path fill="#66CBE5" d="M272.1,483.6c-0.4,0.7-1.2,0.801-2,0.5c-1-0.399-2.301-0.899-2.601,0.5c-0.1,0.301,0,0.5,0,0.7
			c0.8,0.5,1.601,1,2.3,1.601h0.101c0.2,0.1,0.399,0.1,0.7,0.1l2.399-2.8l-0.1-0.101C272.6,484,272.3,483.8,272.1,483.6z"/>
		<path fill="#66CBE5" d="M260.8,480.2c0.2-0.101,0.4-0.3,0.601-0.4c-0.3,0-0.601,0-0.9,0c-0.1,0-0.1,0-0.2,0
			C260.4,479.9,260.6,480.1,260.8,480.2L260.8,480.2z"/>
		<path fill="#66CBE5" d="M315.6,454.9c3.399-2,2.399-5.301,1.5-7.601c-1.101-2.899-3.4-0.399-5.2,0.101c-0.3,0.1-0.7,0.199-1,0.3
			c-2.4,0.6-3.8-0.7-3.5-3.101c0.1-0.8,0.3-1.6,0.5-2.3c0.2-0.899-1-2.1,0.6-2.7c1.4-0.5,2.601-0.1,3.801,0.9
			c1.199,1.2,2.5,2.5,4,3.1c2.8,1.101,4.6,3.301,6.3,5.301c3.5,4.1,3.6,4.399,8,0.899c0.7-0.6,1.8-0.899,1.1-2.1
			c-0.6-1-1.5-0.9-2.399-0.3c-1.101,0.8-2.2,1.5-3.301,0.199c-1-1.1-1.899-2.3-1.199-4c0.6-1.5,1.1-3,1.6-4.5
			c0.4-1.199,0.3-2.5-0.9-3c-0.399-0.1-0.699-0.399-1.1-0.699h-2.6l-0.101,0.1c-0.899,1.1-1.8,1.1-2.5,0c0-0.1-0.1-0.1-0.1-0.2
			h-22.7c0,0.5-0.2,1-0.2,1.4c0,1-0.1,2.399-1.5,2.2c-1.4-0.2-2.3-1.2-0.9-2.601c-0.1-0.3-0.1-0.7-0.199-1H291.3v-11
			c-2.3,1.101-4.6,3.4-4.699,5.2c-0.4,5.3-3.4,8.9-7,12.2c-0.7,0.6-1.4,1.3-2.4,0.7c-1-0.601-0.9-1.4-0.7-2.4
			c0.4-1.9-0.399-2.3-2.1-1.6c-0.9,0.399-1.7,0.8-2.601,1V457h42.501C314.2,456.2,314.7,455.4,315.6,454.9z"/>
		<path fill="#66CBE5" d="M262.6,495.7h-1.5C261.7,495.8,262.1,495.8,262.6,495.7z"/>
		<path fill="#3BC3F1" d="M266,481.4c1,1.3,2.2,0.8,3.4,0.399c-1.2-0.6-2.4-1.1-3.7-1.5C265.7,480.7,265.7,481,266,481.4z"/>
		<path fill="#2BBDEB" d="M293.3,505.1c-1.199,0-2.5,0-3.699,0c0.5,1,1.1,2,1.8,2.9h0.1C293,508.1,292.5,506,293.3,505.1z"/>
		<path fill="#5B7ABC" d="M184.2,494.8c-1,1.101,0.1,1.4,0.6,2.101c0.5,0.899,1.101,1.5,1.7,1.899v-0.1h5
			c-0.7-1.4-0.1-2.601,0.4-3.8h-5.4V493.3C185.6,493.2,184.8,494.2,184.2,494.8z"/>
		<path fill="#5B7ABC" d="M191.8,498.7h7.2C196.7,497.6,194.4,496.8,191.8,498.7z"/>
		<path fill="#59A8DC" d="M339.7,481.6c0.2,1,0.5,2,0.8,3V480.4h-0.8C339.7,480.7,339.7,481.1,339.7,481.6z"/>
		<path fill="#5971B4" d="M392.801,507.2c-2.301,1.7-5.2,2.6-8.601,2.6h-7.5v-10.1c-0.1-0.101-0.1-0.2-0.2-0.3
			c-0.6-1-2.199-1.801-3.899-2.2v11.6c0.7-0.1,1.399-0.2,1.899,0.5c0.801,1.101-0.199,1.8-0.8,2.3c-0.399,0.4-0.8,0.801-1.1,1.2v0.9
			h11.6c2.8,0,5.4-0.5,7.7-1.5c0.2-1.2,0.5-2.3,1-3.4C393.1,508.3,393,507.7,392.801,507.2z"/>
		<path fill="#5971B4" d="M352.801,512c0.1,0.4,0.3,0.9,0.3,1.3c0,0.101,0,0.2,0.1,0.3h5.7l0.1-0.1v-3.7h-4.5
			C354.5,510.7,354.1,511.5,352.801,512z"/>
		<path fill="#2D71B0" d="M353.1,513.3c-0.101-0.399-0.2-0.899-0.3-1.3c-0.4,0.4-1.2,1-1.101,1.1c0.101,0.2,0.101,0.4,0.2,0.5h1.3
			C353.2,513.6,353.2,513.5,353.1,513.3z"/>
		<path fill="#847DBA" d="M365.7,428.7c-2.1-0.101-4.3-1-6.1-2.101c-2.5-1.5-4.2-2-4.9,1.601c0,0.3-0.7,0.399-1.1,0.6l0,0H353.5
			c1.801,3.5,0.601,6.9,0.101,10.4l0,0c0.3-0.101,0.8-0.5,0.899-0.4c3,2.3,6.2,2.101,9.7,1.2c0.8-1.4,1.601-3,2.2-4.5
			c-0.3,0-0.6-0.2-0.8-0.5c-0.7-1.3,0.9-2.7,1.7-3.8c0.1-0.2,0.3-0.3,0.6-0.3c0.2-0.7,0.3-1.5,0.5-2.301
			C367.5,428.7,366.5,428.8,365.7,428.7z"/>
		<path fill="#847DBA" d="M357.1,447.8c0,0.5-0.101,1-0.2,1.4c1-0.9,2-1.8,2.9-2.9c-0.4-0.3-0.801-0.5-1.301-0.5
			C357.301,445.8,357.1,446.7,357.1,447.8z"/>
		<path fill="#847DBA" d="M352.7,450.9c-2.6-1.2-4.7,0.199-7.2-0.4c1.5,3.1,1.5,3.3,4.4,3c0.2,0,0.4,0,0.6,0
			c1.301-0.7,2.601-1.5,3.9-2.4C353.801,451.2,353.2,451.1,352.7,450.9z"/>
		<path fill="#B02024" d="M539,453.7c1.801,0.5,1.7-3,3.101-4.3c0.8-0.7-0.601-1.5-1.4-1.9c-2.399-1.4-2.5-3.6-2.399-6
			c-0.2-0.2-0.5-0.5-0.7-0.7c-1-2.7,0.5-4.5,1.899-6.6c0.5-0.7,0.9-1.4,1.2-2.2c-3.3,1.7-6.899,2.8-10.6,3.2c0,0.2,0,0.5-0.2,0.7
			c-1.6,2.5-1,5.3-1.4,7.899c-0.1,0.7-0.5,1.3-0.399,2c0.7,5-1.2,7.4-6.4,8.4c-0.6,0.1-1.2,0.6-1.7,1.1c-0.8,0.7-1.6,1.3-2.5,1.8
			h7.601h0.1c2.3,0,4.5-0.199,6.7-0.5C533.4,454.4,535,452.5,539,453.7z"/>
		<path fill="#B02024" d="M497.5,425.4C497.5,425.4,497.5,425.5,497.5,425.4c-2.6-0.2-5.199-0.4-7.699-0.7l0,0l0,0
			c-2.2,1.899-0.9,4.1-0.601,6.2l0,0c4.2,0.5,6.9-3.801,11.101-3.4l0,0c0.899-0.1,1.699-0.3,2.399-0.5v-5.3H501h-2.8
			C499.2,423.2,499.2,424.5,497.5,425.4z"/>
		<path fill="#B02024" d="M551.4,446.1c-3.2,0.5-4.2,2.2-2.9,5.2l0,0c2.601-1.3,5.101-2.899,7.5-4.6
			C554.801,445.9,553.301,445.8,551.4,446.1z"/>
		<path fill="#BC2226" d="M538.301,441.4c1.6,0.1,2.5,1.199,3.199,2.3c1,1.7,2.101,2.5,3.7,0.8c1.5-1.6,3.3-3.7,1.5-5.6
			c-1.399-1.4-3.2-3.601-5.8-3c-2.4,0.5-2.6,2.899-3.2,4.8C537.801,441,538.1,441.2,538.301,441.4z"/>
		<path fill="#BC2226" d="M552.1,438.6L552.1,438.6c-1.3,1.5-1.9,3.101-0.601,5c0.801,1.2,1.801,1.4,3,1.2
			c1.7-0.399,3.301-1.1,4.5-2.399c0.7-0.7,1.5-1.601,0.7-2.7c-0.7-0.9-1.6-1.3-2.7-1c-1.199,0.3-2.399,1.2-3.5-0.101
			C553.1,438.6,552.6,438.6,552.1,438.6z"/>
		<path fill="#B02024" d="M552.1,433.9c-0.9-0.2-1.9-0.101-2.4,0.8c-0.6,1-0.1,1.8,0.601,2.399c0.6,0.5,1.199,1,1.8,1.5l0,0
			c0.5,0,0.899,0,1.399,0c1.301-0.6,2.601-1.3,4.101-1.5c2-0.199,3.1-1.5,3.6-4.5c-2.3,2.5-4.3,0.9-6.2,1.2h-0.1c0,0,0,0-0.1,0.101
			C554,434.9,553.1,434.1,552.1,433.9z"/>
		<path fill="#C72227" d="M523.6,483.1c0-0.1,0.1-0.1,0.1-0.199c-1.1-1.601-2.6-1.101-4-0.7v1.5c0,0.1,0.101,0.3,0.101,0.399h3.6
			C523.5,483.7,523.5,483.4,523.6,483.1z"/>
		<path fill="#BC2226" d="M545,433.5c0,1.2-0.199,2.5,1.301,3c0.199,0.1,0.6-0.1,0.6-0.2C547.1,434.7,546,434.2,545,433.5z"/>
		<path fill="#921E33" d="M489.301,450.5c-1-0.9-2.601-1.1-2.4-2.9c0.2-2,1.7-2.399,3.3-3c2.8-1,6.101-1.1,7.3-4.8
			c0.5-1.399,2.301-1.5,3.601-1c1.7,0.601,3,0.101,3.8-1.399c0.4-0.801,0.3-1.5,0-2.101h-2.1v-1.7c-2.101-1.399-2.101-3.8-2.4-6.1
			c-4.2-0.4-6.9,3.9-11.1,3.4l0,0l0,0c-1.601-0.101-2.801,0.8-4.2,1.399c0,0.3,0,0.5,0,0.8l0,0c0.899,3,0.399,4.4-1.9,4.601v13.7
			c0.4,0.399,1.101,0.699,1.601,1c2.399,1.1,3.699,2.6,3.8,4.6h4.899C493.7,454.6,491.301,452.3,489.301,450.5z"/>
		<path fill="#ED2725" d="M484.5,423.8c2.5-1.899,3.801-0.6,5.301,1l0,0c2.5,0.2,5.1,0.5,7.6,0.7c0,0,0,0,0-0.1
			c0.2-1.801-0.9-2.7-2-3.601h-12.3v2.2C483.6,424.1,484.1,424.1,484.5,423.8z"/>
		<path fill="#ED2725" d="M542.4,358.9c-3.9-1.8-3.3-4.6-2.7-7.7c0.3-1.3-0.2-2.5-0.899-3.6c-0.9-1.6-0.301-2.9,1.199-3.4
			c3.2-1.1,4.101-2.8,3.5-5.1c-5.1-0.2-10.199-0.4-15.399-0.5c1.3,3-0.7,3.1-3.3,2.4c-0.4,0.8,0.1,1.6-0.101,2.1
			c-1.8,3.5-3.399,7.1-6.399,9.7c-0.801,0.7-1.601,1.2-2.2,2.2c-0.9,1.5-1.7,3.1-2.9,4.4h12.4l0,0c6.2,0,12.1,1.8,17.2,4.9
			C542.5,362.4,544.301,359.7,542.4,358.9z"/>
		<path fill="#ED2725" d="M558.7,374.8c0.4-1.7-1.1-2.6-2.2-3.1c-1.6-0.7-3-1.7-4.399-2.6c-1.4-1-2.7-1.6-4.601-1.4
			c3.4,2.9,6.301,6.5,8.5,10.5c0.2,0,0.4-0.1,0.601-0.2C558.1,377.7,558.4,376.1,558.7,374.8z"/>
		<path fill="#BC2226" d="M582.1,342.2c-1.3,0-6,3.6-6.3,5c-0.5,2.4,1.199,3.8,2.6,5.2c0.6,0.6,1.2,1.2,2.1,0.5
			c0.7-0.6,1-1.6,0.601-2.2c-2.5-2.9-1.2-4.6,1.5-6.1c0.6-0.4,0.8-1.1,0.5-1.8C582.9,342.5,582.6,342.2,582.1,342.2z"/>
		<path fill="#ED2725" d="M557.9,382.2c0.2,0.4,0.3,0.8,0.5,1.2C558.4,382.9,558.301,382.5,557.9,382.2z"/>
		<path fill="#ED2725" d="M554.6,365.7c-0.7-0.3-0.9,0.3-1,0.9c0,0.6,0.1,1.2,0.8,1.2c0.6,0,1.1-0.5,0.9-1.2
			C555.2,366.2,554.9,365.8,554.6,365.7z"/>
		<path fill="#CD2327" d="M576.6,398.6c-0.101-0.8-1.2-1.8-2.5-1.2c-0.9,0.5-1,1.4-0.601,2.4c0.301,0.7,1.101,1.8,0.2,2.2
			c-2.6,1.2-4.5,3.8-7.399,4.4c-1.2,0.3-2.2-1-3.601-0.9c-1.2,0.1-2.1,0.1-2.7-0.2c-0.199,1-0.399,1.9-0.6,2.8
			c-1.8,6.6-5.1,12.5-9.6,17.1c0.6,0.7,1.2,1.399,1.899,2.1c2.4,2.4,5,1.7,6.601-1.1c0.8-1.4,1.6-2.601,3.7-2.4
			c1.199,0.101,2.6-0.2,3.6-0.899c1.4-1,2.5-1.2,3.6,0c1.8,1.8-0.1,3.399-0.399,5.1c-0.4,2.2-1.4,0.4-2.2,0.3
			c-1.7-0.1-2.4,1-2.8,2.5c-0.7,2.601,1.1,4.3,2.3,6.2l0,0c3.8-4.5,6.899-9.7,9.3-15.3c2.2-5.3,3.8-11.1,4.5-17.1
			c0-0.4,0.1-0.9,0.1-1.3C579.4,401.3,576.801,400.8,576.6,398.6z"/>
		<path fill="#A03F6F" d="M462.6,439c-0.8,1.2,1.3,3.4,3,4.5c0.1,0,0.2-0.1,0.3-0.1c2.2-0.4,3.1-3.4,5.3-3.101
			c0.8,0.101,1.2,0.5,1.4,1.101V427.8c-1-1.7-1.7-3.8-2-5.899h-3.8c-0.2,2.6-0.9,5.1-1.9,7.6C463.7,432.5,464.7,436,462.6,439z"/>
		<path fill="#B53158" d="M485.1,433.2L485.1,433.2L485.1,433.2c0-0.3,0-0.5,0-0.8c-0.5-0.801-1.101-1.601-1.9-2v2.899v2.101
			C483.9,434.8,484.6,434.1,485.1,433.2z"/>
		<path fill="#B53158" d="M472.6,421.8h-2c0.3,2.101,1,4.2,2,5.9V421.8z"/>
		<path fill="#D97EB3" d="M419.1,348.4c-1.8,2.2,0.5,4.4-0.601,6.4c1.101,0.8,2.801,1,3.5,1.7c3.301,3.3,6.4,3.3,9.7,0.4
			c1.2-1.9,2.9-3.6,2-6.2l0,0c-0.8-1.3-0.8-2.7-0.8-4.2c-0.1-2.8,1.9-4.7,2.101-7.4c0-0.5,0-1,0-1.5h-6c-4.301,0-8.5,0.6-12.5,1.6
			c0.3,0.2,0.6,0.4,0.899,0.5C422,342.1,422.301,344.6,419.1,348.4z"/>
		<path fill="#AD68A9" d="M441.6,356.2c0.6-2.1,0.8-4.5,2.5-6.2l0,0c-1.601-1.3-3.5-2.1-5.101-3.8c1.301,2,0.801,3.6-0.6,5.1
			c-1.8,1.8-3.1,0-4.6-0.5l0,0c0.899,2.6-0.801,4.3-2,6.2c1.6-0.1,3.199,0.5,4.699-0.4c1-0.6,1.601-0.8,2.2,0.4
			c0.4,0.8,1.3,1.6,1.9,2.4h7.8c-1-0.8-2.5-1.3-4.7-1.7C442.6,357.5,441.4,357.2,441.6,356.2z"/>
		<path fill="#D096C1" d="M413.1,346L413.1,346L413.1,346c1.899,0.9,2.8,2.3,2.899,4.5c0.101,1.6,0.2,3.8,2.5,4.3l0,0
			c1.101-2-1.3-4.2,0.601-6.4c3.2-3.8,2.899-6.3-1.5-8.6c-0.3-0.2-0.601-0.3-0.9-0.5c-2.2,0.6-4.399,1.3-6.5,2.2
			C411.7,342.5,413.2,343.8,413.1,346z"/>
		<path fill="#943870" d="M501.7,499.4c1-0.4,1.9-0.801,2.9-1.2c0.399-0.2,0.8-0.5,1.2-0.7v-6.3c-0.5-0.4-1.2-0.601-2-0.5
			c-0.8,0.1-1.5,0.1-2.101,0V499.4z"/>
		<path fill="#943870" d="M483,487c-1.6,2.7-0.5,5,1.4,7l0,0c0.4,0.3,0.7,0.6,1,0.9V480.3h-4.1l-1.7,2.5c1,0.7,1.899,1.4,2.899,2.2
			C483.2,485.5,483.5,486.1,483,487z"/>
		<path fill="#842A47" d="M484.7,452.4c-0.6-0.301-1.2-0.601-1.6-1v5.6h5.399C488.5,455,487.2,453.6,484.7,452.4z"/>
		<path fill="#842A47" d="M485.1,433.2L485.1,433.2c-0.5,0.899-1.2,1.6-1.9,2.1v2.5C485.5,437.6,486,436.2,485.1,433.2z"/>
		<path fill="#9C3C83" d="M465.301,496.9c0.399,1,0.3,1.6-0.4,1.6l4.1,6l0.101,0.1h0.399l5.101-7.6c-0.3-1.3-1.101-2.4-2.3-3.5
			l-3,4.5l-3.7-5.5c-0.101,0.2-0.2,0.4-0.3,0.6C464.801,494.4,464.9,495.6,465.301,496.9z"/>
		<path fill="#9C3C83" d="M481.2,513.7h4.101v-7.9c-1.4-0.5-2.7-1-4.101-1.3V513.7z"/>
		<path fill="#8C4789" d="M481.2,502.1v2.301c1.4,0.3,2.8,0.8,4.101,1.3v-1.9c-1.2-0.7-2.601-1-3.9-1.6
			C481.301,502.2,481.301,502.2,481.2,502.1z"/>
		<path fill="#8C4789" d="M456,483.6L456,483.6L456,483.6c-0.8,0.5-1.699,0.801-2.6,0.7v13.4c1,0.899,1.4,1.8,0.3,3.3
			c-0.1,0.1-0.2,0.2-0.3,0.4v12.3h4v-26.3l7.6,11.1c0.7-0.1,0.801-0.6,0.4-1.6c-0.4-1.2-0.5-2.4,0-3.7c0.1-0.2,0.2-0.4,0.3-0.601
			l-6-8.899C458.7,485.1,457.4,484.5,456,483.6z"/>
		<path fill="#8C4789" d="M474.6,497.1l6.6-9.699V499c1.3-1.4,2.101-3.3,3.101-4.9c-1.8-2.1-2.9-4.3-1.4-7
			c0.5-0.899,0.2-1.5-0.5-2.1c-1-0.7-1.899-1.4-2.899-2.2l-7.2,10.8C473.5,494.7,474.301,495.8,474.6,497.1z"/>
		<path fill="#839DD1" d="M345.2,455.7c0.7-0.2,1.3-0.4,2-0.7c-0.1-0.1-0.1-0.1-0.1-0.2C346.5,454.8,345.801,455.4,345.2,455.7z"/>
		<path fill="#839DD1" d="M338.801,456.9c1.8-0.2,3.6-0.5,5.3-0.9c-0.2,0-0.4-0.1-0.5-0.2C340.4,453.3,339.2,454.1,338.801,456.9z"
			/>
		<path fill="#839DD1" d="M342.1,449.5c1.399-0.9,2.5-2.1,1-3.9l0,0l0,0l0,0c0.1,1.601-0.601,2-2.3,2c-1.7,0-4.4-0.399-4.8,1.7
			c-0.4,1.9-1.2,3.4-1.9,4.9c-0.4,1-0.5,1.899-0.5,2.7h2.6c0.101,0,0.301,0,0.4,0C337.4,453.7,339.301,451.3,342.1,449.5z"/>
		<path fill="#7492CA" d="M337.9,440.8c-2.4,0.101-4.9,1.9-6.3-1.2c-0.101-0.1-0.601,0-0.9,0c0.101,2.301-2.3,1.301-3.1,2.2
			c-0.7,0.8-1.9,1.601-1.5,2.9c0.5,1.3,1.7,0.7,2.7,0.6c0.7-0.1,1.2-0.2,2-0.1C333.5,446,336.5,444.1,337.9,440.8z"/>
		<path fill="#97AED7" d="M396.4,361.1L396.4,361.1c1-0.7,2.4-0.4,2.9,0.3c2.199,2.9,4.399,1.1,6.6,0.3c0.6-0.2,1.3-0.3,1.9-0.7
			c1.699-1,4.5-0.6,5-2.9c0.5-2.2-1.9-2.8-3.4-3.8c-1.1-0.7-0.8-1.7-0.6-2.7c0.3-1.2,1-1.3,2.1-1c3.5,1.1,4.1,0,2.3-3
			c-0.3-0.4-0.1-1.1-0.2-1.7l0,0c0.101-2.2-1.3-3.5-2.899-4.5c-4.601,1.9-8.9,4.5-12.8,7.6c-0.4,1.4-1.5,2.4-3.4,3
			c-0.9,0.9-1.9,1.8-2.8,2.8c0.1,0.3,0.3,0.6,0.399,0.8C392.7,357.9,393.7,360.4,396.4,361.1z"/>
		<path fill="#71AEDE" d="M397.4,349.2c-1.2,0.9-2.3,1.9-3.4,3C395.9,351.5,397,350.6,397.4,349.2z"/>
		<path fill="#6FABDC" d="M366,358c-0.3-0.8-0.699-1.5-1.1-2.2C364.301,356.8,364.9,357.5,366,358z"/>
		<path fill="#6FABDC" d="M349.6,348.6c-0.4,2-1.4,3.3-3.101,4.3c-0.699,0.4-1.399,0.9-0.8,1.9c0.5,0.9,6.601,2.4,7.3,1.5
			c1.801-2,3.4-1.1,5.2-0.2c2.3,1.3,4.4,1.4,5.601-1.6c0.1-0.2,0.2-0.4,0.2-0.6c-1.301-2.3-2.9-4.4-4.7-6.3c-2.2-0.3-4.4-0.7-6.5-1
			C351.2,346.4,349.801,347.1,349.6,348.6z"/>
		<path fill="#CE3994" d="M378.301,390.4c1.699,1,3.899-0.9,5.199,0.8c1.301,1.8,3,1.9,5.301,1.7c1.199-0.3,3.699,1,4.1-1.7
			c0.4-2.7,0.7-5.7-2.6-7.1c-1.7-0.7-2.301-2-2.9-3.6c-0.5-1.3-1.8-2-2.6-0.8c-1.7,2.2-5.601,2.2-5.801,5.8c0,0.4-0.8,0.9-1.199,1
			c-0.7,0.2-1.4,0.3-1.7,0.8c-0.101,0.4-0.101,0.8-0.2,1.2C376,390,377.301,389.8,378.301,390.4z"/>
		<path fill="#7A6BAF" d="M389.7,404.5c-1.1-0.6-1.899-0.4-2.8,0.4c-1,1-0.3,1.7,0.101,2.7c1.399,3.2,2.899,6.3,5.199,9.5l0,0
			c0,0,0,0-0.1,0c-5,0-9.3,0.2-13.7-1.8c0.3,1.2,0.4,2.1,0.2,2.9c1.5,4.5,3.6,8.8,6,12.8l0,0c1.6,2.9,3.8,0.9,5.7,0.6
			c2.2-0.3,1.399-1.699,1.3-3.1c0-1.6,1-2.8,2.2-3.7c2.2-1.5,2.399-3.1,0.6-5.1c-1.399-1.6-1.899-2.9,0.9-3.6
			c1.5-0.4,1.899-1.4,1.2-2.9c-0.4-0.9-0.301-1.8,0.399-2.5c-0.7-2-1.2-4-1.6-6.1C393.7,405.7,391.801,405.6,389.7,404.5z"/>
		<path fill="#7A6BAF" d="M360.2,422.6c-0.899-2.7-3-2.899-4.399-2.3c-1.7,0.7-3.3,2.5-2.4,5c0.4,1.2,0.5,2.5,0.2,3.7l0,0
			c0.4-0.2,1.1-0.4,1.1-0.6c0.7-3.601,2.4-3.101,4.9-1.601c1.8,1.101,4,1.9,6.1,2.101c0.9,0.1,1.9-0.101,2.7,0
			c0.101-0.7,0.2-1.301,0.3-2C365.4,427.1,361.2,425.5,360.2,422.6z"/>
		<path fill="#7A6BAF" d="M367.301,431.3c-0.801,1.101-2.4,2.5-1.7,3.8c0.2,0.4,0.5,0.5,0.8,0.5c0.6-1.5,1.1-3.1,1.5-4.699
			C367.7,431,367.4,431.1,367.301,431.3z"/>
		<path fill="#A4539F" d="M348.7,432.4c0.601-1,1.4-1.801,2.4-0.601c0.7,0.9,0.6,1.9-0.4,2.7c-1,0.7-2.6,0.9-2.899,2.3
			c-0.8,3,2-0.3,2.5,1.3c0.399,1.601,1.8,2.2,3.5,1.2l0,0c0.5-3.5,1.7-7-0.101-10.399c-2.1-2.7-4.8-5.2-1.5-9
			c0.8-0.9-0.3-2.2-0.5-3.3c-0.399-2.6-2.3-2.8-3.8-1.8c0.9,1.7,1.601,3.5,1.7,5.6c0.4,4.4-1.1,8.3-3.7,11.1
			c0.101,0.2,0.3,0.4,0.4,0.6C347.5,434.3,347.6,434,348.7,432.4z"/>
		<path fill="#7B75B6" d="M350.7,406.8L350.7,406.8L350.7,406.8c-1.6,1.3-2.6,4.4-5.6,1.9c-0.5-0.4-1.2,0.3-1.2,0.8
			c0,0.4-0.1,0.8-0.2,1c0.601,0.5,1.2,1,1.8,1.5c1.601-0.4,3.2-0.8,4.601-1.8C351.801,409.2,352,408.2,350.7,406.8z"/>
		<path fill="#97AED7" d="M410.801,364.5c0.399,0,0.699,0,1,0.1c1.1-0.7,2.3-1.4,3.5-2c-0.2,0-0.301,0.1-0.5,0.1
			C413.4,363.3,412.1,363.9,410.801,364.5z"/>
		<path fill="#745CA3" d="M392.801,507.2c0.199,0.5,0.199,1.1,0.1,1.6c-0.5,1.101-0.7,2.2-1,3.4c3.8-1.601,6.7-4.4,8.4-8
			c-1.2-0.8-2.301-1.7-3.4-2.5C396.1,504,394.7,505.8,392.801,507.2z"/>
		<path fill="#745CA3" d="M418.2,507.5c0-0.1,0.101-0.1,0.101-0.2c-0.601-0.399-1.2-0.899-1.8-1.5l-0.101-0.1l-2.6,3l0.1,0.1
			c0.4,0.3,0.7,0.601,1.101,0.9C416.301,509.5,417.4,508.7,418.2,507.5z"/>
		<path fill="#745CA3" d="M376.5,499.5c0.101,0.1,0.101,0.2,0.2,0.3v-7.1c0-0.101-0.1-0.2-0.1-0.3c-0.601-1.2-1.5-1.4-2.601-0.9
			c-1.3,0.6-0.5,1.5-0.1,2.3c0.4,0.9,1.7,1.7,0.5,2.601c-0.7,0.6-1.3,0.199-1.8-0.301v1.101C374.301,497.7,376,498.4,376.5,499.5z"
			/>
		<path fill="#5F5FA9" d="M373.7,511.6c0.601-0.5,1.601-1.3,0.8-2.3c-0.5-0.7-1.199-0.6-1.899-0.5v4
			C372.9,512.4,373.301,512,373.7,511.6z"/>
		<path fill="#5F5FA9" d="M359,513.7V513.6l-0.1,0.101H359z"/>
		<path fill="#4C89C7" d="M294.6,439c1.399,0.2,1.399-1.2,1.5-2.2c0-0.399,0.1-1,0.199-1.399h-2.8c0.101,0.3,0.101,0.699,0.2,1
			C292.3,437.8,293.2,438.8,294.6,439z"/>
		<path fill="#8B68AC" d="M425.801,440c-1.601,0.9-2.101,3.7-1.4,6c1.1,3.7-0.2,7.2-1,10.7c1.1,0.1,2.1,0.2,3.2,0.3
			c0.399-2.2,0.7-4.5,1.5-6.6c0.6-1.601,1.399-2.601,3.1-2.7c1-0.101,1.7-0.7,1.8-1.7c0.101-1.7,1-2.4,2.7-2.4c0.3,0,0.9,0,1-0.199
			c1.7-3.301,5.3-5.301,7.9-7.9h-15.5c-0.4,0-0.8,0-1.3,0C428.301,437.2,428.2,438.7,425.801,440z"/>
		<path fill="#8B68AC" d="M396.7,413.3c0.7,1.5,0.3,2.6-1.2,2.9c-2.8,0.7-2.3,2-0.899,3.6c1.8,2,1.6,3.601-0.601,5.101
			c-1.199,0.899-2.3,2.199-2.199,3.699c0,1.4,0.899,2.801-1.301,3.101c-2,0.3-4.1,2.3-5.699-0.601l0,0
			c2.8,4.5,6.199,8.601,10,12.101c2.199,0.6,4-1,6.199-0.601c1.9,0.301,2.801-1.8,3.101-3.8c1.2,0.7,1.8,2.4,3.6,1.7
			c-0.1-1.1-2.2-1.3-1.5-2.5c0.8-1.3,2.2-0.8,3.5-0.4c2.2,0.7,5,0.7,3.8,4.5c-0.399,1.301-1.699,3.2,0,4.4c1.601,1.2,2.5-1.1,4-1.1
			c0.4,0,0.801-0.4,1.2-0.601l0,0l0,0c0-0.5,0-0.899,0.101-1.399c0.3-2.601,0.899-5.2,2.1-7.601c0.4-0.8,0.9-1.1,1.5-1.3
			c-11.6-2.6-21-11.7-25.2-23.7C396.4,411.6,396.301,412.4,396.7,413.3z M399,435.7c1.4,0.2,1.7,1.7,1.5,3.3c-0.1,0.5,0.5,2-0.699,2
			c-1.301-0.1-2.5-1.3-2.5-2.8C397.301,437.2,397.6,435.5,399,435.7z"/>
		<path fill="#9A75B4" d="M405.5,450.7c0.101-1.101,1-2,1.801-1.5c2.3,1.399,5.1-0.2,7.5,1.5c1.699,1.2,3.3,0.1,3.6-2.101
			c0.2-1.199,0-2.5,0-3.8l0,0c-0.4,0.2-0.8,0.601-1.2,0.601c-1.5,0-2.5,2.3-4,1.1c-1.6-1.3-0.399-3.2,0-4.4
			c1.2-3.899-1.5-3.899-3.8-4.5c-1.2-0.399-2.7-0.8-3.5,0.4s1.4,1.4,1.5,2.5c-1.8,0.8-2.4-1-3.6-1.7c-0.301,2-1.2,4.101-3.101,3.8
			c-2.2-0.399-4,1.101-6.2,0.601c3.301,3.1,7,5.7,10.9,7.8C405.5,450.9,405.5,450.8,405.5,450.7z"/>
		<path fill="#9A75B4" d="M407.301,451.9c1.3,0.6,2.6,1.199,4,1.8C410.6,452.3,409.6,451.4,407.301,451.9z"/>
		<path fill="#8E61A8" d="M391.301,481.5c-0.2,0.4,0,1,0.5,1.9c0.5,0.8,0.1,1.6-0.601,2.3c1.601,0.899,3,2.1,4.101,3.5
			c0.6-0.2,1.199-0.5,1.8-0.8l0,0c0-1.301,0.2-2,1-2.2C396.301,484.1,394,482.5,391.301,481.5z"/>
		<path fill="#9C4F9E" d="M377.9,480.3H376c0,0,0,0,0,0.101C376.6,481.1,377.301,480.8,377.9,480.3z"/>
		<path fill="#9C4F9E" d="M384.2,484.1c2.601,0,5,0.601,7,1.601c0.7-0.7,1.101-1.5,0.601-2.3c-0.601-0.9-0.7-1.5-0.5-1.9
			c-2.101-0.8-4.5-1.2-7-1.2h-3.9c-0.7,1.2-1.6,2.5-2.5,3.8H384.2z"/>
		<path fill="#9C4F9E" d="M374.4,496.4c1.2-1-0.1-1.801-0.5-2.601s-1.2-1.7,0.1-2.3c1.101-0.5,2-0.3,2.601,0.9
			c0,0.1,0.1,0.199,0.1,0.3V485.6c-1.2,1.5-2.6,3-4.1,4.2v6.4C373.2,496.6,373.7,497,374.4,496.4z"/>
		<path fill="#A364A8" d="M376.7,485.5v-1.4h1.101c1-1.3,1.899-2.6,2.5-3.8h-2.5c-0.601,0.5-1.3,0.8-1.9,0.101c0,0,0,0,0-0.101
			h-3.399v9.4C374.1,488.5,375.5,487,376.7,485.5z"/>
		<path fill="#9D1D20" d="M521.7,454.1c5.2-1,7-3.399,6.4-8.399c-0.1-0.601,0.3-1.3,0.4-2c0.5-2.601-0.2-5.4,1.399-7.9
			c0.101-0.2,0.2-0.399,0.2-0.7c-1.2,0.101-2.4,0.2-3.6,0.2h-13.2h-8.4c0.3,0.601,0.4,1.3,0,2.101c-0.7,1.5-2,2-3.8,1.399
			c-1.4-0.5-3.2-0.399-3.6,1c-1.2,3.7-4.5,3.8-7.301,4.8c-1.6,0.601-3.1,1-3.3,3c-0.2,1.801,1.4,2.101,2.4,2.9
			c2.1,1.7,4.399,4.1,4.2,6.5h24c0.899-0.6,1.699-1.2,2.5-1.8C520.5,454.8,521.1,454.2,521.7,454.1z"/>
		<path fill="#9D1D20" d="M500.301,427.6c0.399,2.2,0.3,4.601,2.399,6.101v-4.9v-1.7C501.9,427.3,501.1,427.5,500.301,427.6
			L500.301,427.6z"/>
		<path fill="#CA2341" d="M485,432.4c1.4-0.5,2.601-1.5,4.2-1.4l0,0c-0.3-2.1-1.5-4.4,0.601-6.2l0,0c-1.5-1.6-2.9-2.899-5.3-1
			c-0.4,0.3-0.9,0.3-1.4,0.2v6.3C483.9,430.7,484.6,431.5,485,432.4z"/>
		<path fill="#724470" d="M471.2,440.3c-2.2-0.3-3.1,2.7-5.3,3.101c-0.1,0-0.2,0.1-0.3,0.1c-0.9,1.4-1.8,2.8-2.8,4.1l0,0
			c-0.101,3.101-0.4,6.301-0.5,9.4h10.3v-15.7C472.301,440.8,471.9,440.4,471.2,440.3z"/>
		<path fill="#8B5086" d="M460.801,422.1c0,0.5-0.2,1.101,0.1,1.4c2.5,3.4,0.7,6.3-1.2,9c-2,2.9-0.1,5.7,0.8,8.1
			c0.9,2.301,1.601,4.7,2.5,7c0.9-1.399,1.801-2.8,2.801-4.1c-1.7-1.1-3.801-3.3-3-4.5c2.1-3.1,1.1-6.5,2.199-9.6
			c1-2.5,1.7-5.101,1.9-7.601H461C460.9,421.9,460.801,422,460.801,422.1L460.801,422.1z"/>
		<path fill="#6D67A6" d="M458.1,428.7c0.2-0.3,0.8-0.3,1.3-0.4c0.6-1.1,1.7-1.899,0.3-3.399c-0.7-0.7-1.899-2.9,1.101-2.801
			c0.1-0.1,0.1-0.199,0.199-0.3h-8v8.601C455,431.2,456.7,431.1,458.1,428.7z"/>
		<path fill="#9C3C83" d="M484.301,494c-1,1.6-1.9,3.5-3.101,4.9v3.199c0.101,0,0.101,0.101,0.2,0.101c1.2,0.6,2.7,0.899,3.9,1.6
			V494.9C485,494.6,484.7,494.3,484.301,494L484.301,494z"/>
		<path fill="#8D569C" d="M419.4,496.4c1.7,1,4.1,1.8,7.1,2.5c0.9,0.199,1.7,0.399,2.4,0.6c0.8-1.2,1.5-2.4,1.1-3.9
			c-0.6-0.199-1.199-0.3-1.8-0.399c-5-1.101-7.3-2.2-8.2-3.8C418.9,492.6,419,494.4,419.4,496.4z"/>
		<path fill="#8D569C" d="M434.1,502.2c0.6,0.8,0.8,1.7,0.8,2.7c0,0.3,0,0.6-0.1,0.899c0.6,0,1.1-0.1,1.8-0.1
			c-0.8,0.5-1.4,0.899-2.101,1.2c-0.899,2.1-3.399,3.5-6.699,3.5c-3.601,0-6.5-1-9.4-3.2c0,0.1-0.1,0.1-0.1,0.2
			c-0.801,1.199-1.9,2-3.101,2.199c2.101,1.7,4.3,2.9,6.7,3.601c0.1-0.2,0.2-0.4,0.3-0.601c0.2-0.3,0.3-0.6,0.601-0.8
			c1.399-1.2,11.5-1.7,13.3-0.6l0,0c0.7-0.9,1.399-1.9,2.1-2.8c-1.1-2.801-0.6-4.9,0.7-6.601c-0.2-0.7-0.5-1.399-1-2
			C436.6,501.1,435.5,501.9,434.1,502.2z"/>
		<path fill="#8D569C" d="M453.301,497.7v3.7c0.1-0.101,0.199-0.2,0.3-0.4C454.7,499.5,454.301,498.5,453.301,497.7z"/>
		<path fill="#A23289" d="M438,508.5c0.101,0,0.101,0.1,0.2,0.1c0.601-1.199,0.9-2.6,0.9-4.1c0-1-0.101-1.9-0.4-2.7
			C437.301,503.7,436.9,505.8,438,508.5z"/>
		<path fill="#A23289" d="M435.9,511.3c-1.7-1.1-11.8-0.7-13.3,0.601c-0.3,0.199-0.4,0.5-0.601,0.8c-0.1,0.2-0.199,0.399-0.3,0.6
			c1.8,0.601,3.8,0.8,5.9,0.8c3.399,0,6.3-1,8.3-2.699C435.9,511.4,435.9,511.4,435.9,511.3z"/>
		<path fill="#6C518A" d="M454.301,480.7c1.699,0.399,1.6,1.7,1.6,2.899l0,0c1.4,1,2.7,1.5,3.7,0.101l-2.3-3.4h-3.8
			C453.9,480.5,454.1,480.6,454.301,480.7z"/>
		<path fill="#6C518A" d="M462.9,447.6c-0.9-2.3-1.6-4.699-2.5-7c-0.9-2.399-2.8-5.199-0.8-8.1c1.899-2.8,3.7-5.6,1.2-9
			c-0.2-0.3-0.101-0.9-0.101-1.4l0,0c-3-0.1-1.8,2.101-1.1,2.801c1.5,1.5,0.3,2.399-0.3,3.399c-0.7,2.3-1.101,4.8-4.3,5
			c-0.301,0-0.801,0.5-0.801,0.601c1.101,3.399-2.6,3.699-3.6,5.6c-0.6,1.2-2.5,2.3-0.3,3.9c0.8,0.6-0.101,1.8-0.8,2.3
			c-2.7,2.2-1,3.5,1.1,4c3.2,0.7,4.1,2.5,3.8,5.399c0,0.601,0,1.2,0.2,1.801h7.5C462.5,453.9,462.7,450.8,462.9,447.6L462.9,447.6z"
			/>
		<path fill="#615A99" d="M447.1,452.6c1.3,1.2,4,2.2,0.2,3.801c-0.3,0.1-0.5,0.3-0.8,0.6h8.3c-0.2-0.6-0.3-1.3-0.2-1.8
			c0.3-2.9-0.7-4.7-3.8-5.4c-2.101-0.5-3.8-1.8-1.101-4c0.7-0.6,1.601-1.7,0.8-2.3c-2.3-1.6-0.3-2.7,0.301-3.9
			c1-2,4.699-2.199,3.6-5.6c0-0.1,0.5-0.6,0.8-0.6c3.2-0.2,3.601-2.7,4.3-5c-0.399,0.1-1.1,0.1-1.3,0.399
			c-1.399,2.4-3.2,2.5-5.1,1.7v5H448c-3.199,4.1-2.399,9.1-3.3,13.7C444.1,451.6,446.1,451.6,447.1,452.6z"/>
		<path fill="#615A99" d="M456,483.6L456,483.6c0-1.3,0.101-2.5-1.6-2.899c-0.2-0.101-0.5-0.2-0.7-0.4h-0.3v4
			C454.301,484.4,455.2,484.1,456,483.6z"/>
		<path fill="#76629D" d="M436.7,484.5c-1.8-3.3-4.899-2-7.5-2.3c-0.8-0.101-1.5-0.4-2.2-0.7l0,0l0,0c0,0.5,0,0.9,0,1.4l0,0l0,0
			c0.301,0.199,0.5,0.399,0.601,0.699c2.899,0.301,5.5,1.4,8.1,3.5l0.2,0.101l1.8-2.4C437.2,484.9,436.9,484.9,436.7,484.5z"/>
		<path fill="#76629D" d="M428.9,499.4c2.9,0.8,4.5,1.699,5.3,2.8c1.4-0.3,2.5-1.101,3.601-2.3c-1.4-2-3.9-3.4-7.7-4.5
			C430.4,497,429.7,498.2,428.9,499.4z"/>
		<path fill="#655FA9" d="M436.7,443.3c-0.1,0.2-0.6,0.2-1,0.2c-1.7,0-2.6,0.7-2.7,2.4c-0.1,1-0.8,1.6-1.8,1.699
			c-1.7,0.2-2.5,1.2-3.1,2.7c-0.8,2.101-1.101,4.4-1.5,6.601c0.8,0,1.7,0.1,2.5,0.1H446.5c0.2-0.3,0.5-0.5,0.801-0.6
			c3.8-1.601,1.1-2.601-0.2-3.801c-1-1-3-1-2.5-3.399c0.899-4.601,0.1-9.601,3.3-13.7h-3.3C442,438,438.5,440,436.7,443.3z"/>
		<path fill="#6876B6" d="M397.1,488.5L397.1,488.5L397.1,488.5c-0.601,0.3-1.2,0.6-1.8,0.8c1.5,2.101,2.399,4.7,2.399,7.8
			c0,1.7-0.3,3.301-0.8,4.7c1.2,0.8,2.3,1.7,3.4,2.5c1-2.2,1.6-4.6,1.6-7.3c0-3.5-1-6.6-2.7-9.1
			C398.6,487.9,397.9,488.1,397.1,488.5z"/>
		<path fill="#8E61A8" d="M426.9,482.9L426.9,482.9c-1.4-1.7-2.5-2.601-5-0.801c-2.2,1.5-4.6,2.5-6.3,4.601
			c-0.2,0.8-0.4,1.6-0.4,2.399c0,3.301,1.2,5.601,4.2,7.301c-0.399-2-0.399-3.801,0.601-5.101c-0.5-0.7-0.601-1.6-0.601-2.5
			c0-3.1,2.8-5.2,6.8-5.2c0.5,0,0.9,0,1.4,0.101C427.301,483.4,427.1,483.1,426.9,482.9z"/>
		<path fill="#6072AC" d="M426.9,481.5L426.9,481.5c0.7,0.2,1.5,0.6,2.2,0.7c2.6,0.3,5.7-1,7.5,2.3c0.2,0.3,0.5,0.4,0.8,0.3l0.6-0.8
			l-0.1-0.1c-3.3-2.601-6.5-3.9-10.7-4.101C427.2,480.4,427.1,481,426.9,481.5z"/>
		<path fill="#B75FA4" d="M420.7,435.9c-1.2,2.3-1.8,4.899-2.1,7.6c-0.101,0.5,0,0.9-0.101,1.4l0,0c0,1.3,0.101,2.5,0,3.8
			c-0.3,2.2-1.899,3.3-3.6,2.1c-2.4-1.8-5.2-0.1-7.5-1.5c-0.8-0.5-1.7,0.4-1.8,1.5c0,0.101,0,0.2,0,0.3c0.6,0.301,1.2,0.601,1.7,0.9
			c2.3-0.5,3.399,0.4,4,1.8c3.899,1.5,7.899,2.5,12.1,3c0.8-3.5,2.101-7,1-10.7c-0.7-2.3-0.2-5.1,1.4-6c2.399-1.3,2.5-2.8,2-4.699
			c-1.9-0.101-3.8-0.301-5.7-0.7C421.6,434.8,421.1,435.2,420.7,435.9z"/>
		<path fill="#8978B3" d="M421.9,482.1c2.5-1.699,3.6-0.8,5,0.801l0,0c0-0.5,0-0.9,0-1.4l0,0c0.2-0.6,0.3-1.1,0.4-1.7
			c-0.301,0-0.7,0-1,0c-5.4,0-9.5,2.8-10.7,6.8C417.301,484.6,419.7,483.6,421.9,482.1z"/>
		<path fill="#9A75B4" d="M399.801,441c1.199,0.1,0.6-1.4,0.699-2c0.2-1.6-0.1-3.1-1.5-3.3c-1.399-0.2-1.699,1.5-1.699,2.5
			C397.2,439.7,398.4,440.9,399.801,441z"/>
		<path fill="#8978B3" d="M397.1,488.5L397.1,488.5c0.8-0.4,1.5-0.6,2.2-0.6c-0.4-0.601-0.8-1.101-1.2-1.601
			C397.301,486.4,397.1,487.1,397.1,488.5z"/>
		<path fill="#8C4789" d="M435.9,511.3L435.9,511.3c0,0.101,0,0.101,0,0.2c0.9-0.8,1.7-1.8,2.2-2.8c-0.101,0-0.101-0.101-0.2-0.101
			C437.301,509.5,436.6,510.4,435.9,511.3z"/>
		<path fill="#8C4789" d="M434.801,505.8c-0.101,0.4-0.2,0.8-0.301,1.101c0.7-0.301,1.4-0.7,2.101-1.2
			C436,505.8,435.4,505.8,434.801,505.8z"/>
	</g>
</g>
</svg>
