<?xml version="1.0" encoding="UTF-8"?>
<svg width="35px" height="15px" viewBox="0 0 35 15" version="1.1" xmlns="http://www.w3.org/2000/svg" xmlns:xlink="http://www.w3.org/1999/xlink">
    <title>Advanced_symbol</title>
    <g id="Page-1" stroke="none" stroke-width="1" fill="none" fill-rule="evenodd">
        <g id="Advance_Web_Home" transform="translate(-702.000000, -33.000000)" fill="#1D1D1B">
            <g id="Fill-1" transform="translate(702.000000, 33.000000)">
                <path d="M30.0311248,11.9124144 C29.1697631,11.9124144 28.837041,10.3706491 27.9773681,8.57417197 C27.3017903,7.15891911 26.5991893,6.06922501 26.5991893,6.06922501 C26.5991893,6.06922501 28.8843314,6.70853471 30.2810886,7.57388002 C31.4363268,8.2890972 32.2858659,9.03973787 32.2858659,9.99279849 C32.2858659,11.2056314 30.5428751,11.9124144 30.0311248,11.9124144 M17.4805771,4.13780127 C13.8932587,4.13780127 11.8175457,4.47179419 10.8666699,4.61348816 C11.2635719,4.1293671 13.4794673,0.927758131 17.4890219,0.927758131 C21.6488925,0.927758131 24.1181296,4.61180133 24.1181296,4.61180133 C24.1181296,4.61180133 21.2959031,4.13780127 17.4805771,4.13780127 M7.02600975,8.56405097 C6.21700526,10.2711259 5.7795686,11.9039802 5.00096511,11.9039802 C4.31356464,11.9039802 2.70737828,11.1651474 2.70737828,10.0434035 C2.70737828,8.8980439 3.8845727,8.07655624 4.88273899,7.47098321 C6.13086908,6.71528204 8.40081069,6.06922501 8.40081069,6.06922501 C8.40081069,6.06922501 7.68132027,7.1791611 7.02600975,8.56405097 M25.7564059,4.90024977 C25.356126,4.40094721 21.8836558,0 17.4957776,0 C13.3071949,0 9.73507697,4.16141693 9.24359407,4.89350244 C7.09018964,5.28316085 0,7.16735327 0,10.8615175 C0,12.8233042 2.56044009,14.0327634 3.52989432,14.4578454 C4.30511992,14.7985856 5.04994451,15.1426995 5.53636057,14.9335323 C6.11566858,14.6855678 6.48554746,13.906251 6.71693288,13.229831 C7.76070067,10.1665423 8.80615741,7.60424301 10.131979,5.6492036 C11.1875694,5.44847048 13.5960044,4.96940992 17.4721324,4.96940992 C21.6928051,4.96940992 24.2633789,5.54630679 24.8832215,5.6643851 C26.6059451,8.28234986 27.4723737,11.0858663 28.2763113,13.2129626 C28.6647686,14.2402439 29.0093133,14.7479806 29.477151,14.9352191 C30.0209912,15.1528205 30.6594122,14.7817173 31.4819283,14.4224219 C32.314578,14.0580659 35,12.8688487 35,10.775489 C35,7.32422874 28.2222651,5.31352384 25.7564059,4.90024977"></path>
            </g>
        </g>
    </g>
</svg>