<?xml version="1.0" encoding="UTF-8"?>
<!-- Generator: Adobe Illustrator 26.4.1, SVG Export Plug-In . SVG Version: 6.00 Build 0)  -->
<svg version="1.1" id="Layer_1" xmlns="http://www.w3.org/2000/svg" xmlns:xlink="http://www.w3.org/1999/xlink" x="0px" y="0px" viewBox="0 0 190 28" style="enable-background:new 0 0 190 28;" xml:space="preserve">
<style type="text/css">
	.st0{fill:#008D36;}
	.st1{fill:#FFFFFF;}
</style>
<g>
	<path class="st0" d="M20.54,5.63C18.4,2,15.76,0,13.09,0S7.76,2,5.64,5.63C3.85,8.64,2.7,12.42,2.7,15.24   c0,5.75,4.65,10.43,10.38,10.43S23.46,21,23.46,15.24C23.46,12.42,22.32,8.64,20.54,5.63z"/>
	<g>
		<path class="st0" d="M38.83,3.08c-1.73,0-2.77,0.79-3.38,2.55l-5.33,15.14c-0.07,0.17-0.11,0.36-0.11,0.53    c0,0.78,0.67,1.39,1.52,1.39c1,0,1.29-0.93,1.77-2.49l0.1-0.3c0.06-0.18,0.11-0.36,0.17-0.52c0.58-1.88,0.8-2.43,1.86-2.43h4.51    l1.89,5.46h4.02L39.11,3.08H38.83z M38.91,14.29c0,0.02,0,0.04,0,0.05c-0.05,0.02-0.17,0.03-0.45,0.03H35.3l1.85-5.46l1.69,5.04    C38.91,14.16,38.91,14.26,38.91,14.29z"/>
		<path class="st0" d="M54.39,10.66c-1.12-0.94-2.17-1.72-3.71-1.72c-3.07,0-4.91,2.67-4.91,7.14c0,4.14,1.84,6.51,5.03,6.51    c1.03,0,1.84-0.23,2.53-0.74v1.24c0,2.46-0.56,2.9-1.74,2.9h-1.33V28h1.41c3.85,0,5.48-1.71,5.48-5.71V11.37h-0.39    C55.71,11.36,54.96,11.13,54.39,10.66z M51.54,19.86c-0.89,0-1.71-0.48-1.71-3.97c0-1.93,0.3-4.24,1.71-4.24    c0.71,0,1.35,0.64,1.79,1.81v3.42C53.33,18.75,52.66,19.86,51.54,19.86z"/>
		<path class="st0" d="M67.79,11.12c-0.27-1.45-1.05-2.19-2.29-2.19c-0.92,0-1.76,0.46-2.42,1.3V9.23h-3.74v9.76    c0,2.26,0.78,3.41,2.3,3.41h1.44v-6.25c0-2.27,0.93-3.61,1.23-3.73c0.05,0,0.11,0.02,0.19,0.06c0.36,0.37,0.85,0.57,1.36,0.57    h0.27l1.7-1.73L67.79,11.12z"/>
		<path class="st0" d="M73.24,8.94c-2.5,0-5.48,1.21-5.48,6.98c0,5.6,2.98,6.77,5.48,6.77c3.63,0,5.48-2.27,5.48-6.77    C78.73,11.61,76.62,8.94,73.24,8.94z M73.24,20.49c-1.04,0-1.74-0.78-1.74-4.58c0-4.21,0.85-4.78,1.77-4.78    c1.47,0,1.71,1.8,1.71,5.84C74.98,20.49,73.67,20.49,73.24,20.49z"/>
		<path class="st0" d="M84.82,18.91V9.22h-5.58v1.86h0.54c0.99,0,1.32,0.3,1.32,2.08v5.86c0,0.09-0.01,0.17-0.01,0.25    c-0.01,0.1-0.01,0.2-0.01,0.3c0,1.77,0.9,2.83,2.41,2.83h3.12v-1.9h-0.59C85.03,20.49,84.82,20.35,84.82,18.91z"/>
		<path class="st0" d="M82.96,7.4c1.13,0,2.02-0.88,2.02-2.01c0-1.12-0.88-1.99-2.02-1.99c-1.13,0-2.01,0.87-2.01,1.99    C80.95,6.52,81.84,7.4,82.96,7.4z"/>
		<path class="st0" d="M99.45,19.01v-5.78c0-3.56-1.92-4.3-3.54-4.3c-1.49,0-2.68,0.57-3.71,1.8V9.22h-5.65v2.01h0.51    c1.35,0,1.4,0.17,1.4,1.8l0.03,9.37h3.71V15.6c0-0.88,0.51-2.03,1.32-2.91c0.39-0.43,0.8-0.69,1.11-0.69    c0.63,0,0.95,0.51,0.95,3.26v4.62c0,2.27,1.2,2.52,1.73,2.52h4.04v-1.86h-0.62C99.7,20.55,99.45,20.36,99.45,19.01z"/>
		<path class="st0" d="M107.45,7.54V6.62c0-1.14,0.38-1.14,0.66-1.14h2.44V3.42h-1.67c-3.43,0-5.17,1.45-5.17,4.3v1.37h-1.87v2.4    h1.89v7.46c0,1.35-0.25,1.53-1.24,1.53h-0.62v1.9h3.15c1.63,0,2.47-1.11,2.47-3.3v-7.62h1.91V9.08h-1.92L107.45,7.54z"/>
		<path class="st0" d="M115.49,8.94c-2.5,0-5.48,1.21-5.48,6.98c0,5.6,2.98,6.77,5.48,6.77c3.63,0,5.48-2.27,5.48-6.77    C120.98,11.61,118.87,8.94,115.49,8.94z M115.49,20.49c-1.05,0-1.74-0.78-1.74-4.58c0-4.21,0.85-4.78,1.77-4.78    c1.47,0,1.71,1.8,1.71,5.84C117.23,20.49,115.92,20.49,115.49,20.49z"/>
		<path class="st0" d="M128.53,8.94c-0.92,0-1.76,0.46-2.42,1.3V9.23h-3.74v9.76c0,2.26,0.78,3.41,2.3,3.41h1.44v-6.25    c0-2.27,0.93-3.61,1.23-3.73c0.05,0,0.11,0.02,0.19,0.06c0.36,0.37,0.85,0.57,1.36,0.57h0.27l1.7-1.73l-0.04-0.19    C130.56,9.68,129.78,8.94,128.53,8.94z"/>
		<path class="st0" d="M150.99,18.99v-4.73c0-3.37-0.58-5.32-3.59-5.32c-1.45,0-2.7,0.69-3.74,2.06c-0.53-1.3-1.71-2.06-3.27-2.06    c-1.27,0-2.34,0.5-3.29,1.55V9.23h-5.68v2.09h0.63c1.27,0,1.35,0.19,1.35,1.77v9.32h3.71v-6.79c0-2.23,1.17-3.79,2.22-3.79    c0.64,0,0.83,0.78,0.83,3.45v4.52c0,1.84,0.85,2.62,2.86,2.62h2.75v-1.88h-0.6c-0.88,0-1.11-0.15-1.11-1.53v-3.39    c0-2.05,1.44-3.79,2.34-3.79c0.57,0,0.69,0.52,0.69,3.13v4.7c0,1.7,0.98,2.75,2.56,2.75h3.27v-1.88h-0.62    C151.17,20.52,150.99,20.31,150.99,18.99z"/>
		<path class="st0" d="M156.73,18.36c-1.19,0-2.15,0.97-2.15,2.18c0,1.2,0.94,2.15,2.15,2.15c1.19,0,2.15-0.96,2.15-2.15    C158.88,19.34,157.92,18.36,156.73,18.36z"/>
		<path class="st0" d="M172.68,18.94v-5.78c0-2.64-1.4-4.22-3.75-4.22c-1.42,0-2.62,0.56-3.6,1.69V3.4h-5.63v2.01l0.36,0.02    c0.7,0.05,1.44,0.3,1.55,1.86v15.11h3.72v-6.77c0-2.03,1.3-3.6,2.42-3.6c0.64,0,1.21,0.19,1.21,2.58v3.28    c0,2.64,0.19,4.51,2.75,4.51h2.72v-1.9h-0.62C172.75,20.49,172.68,20.37,172.68,18.94z"/>
		<path class="st0" d="M183.45,9.26v6.87c0,2.21-1.1,3.53-2.16,3.53c-0.36,0-1.29,0-1.29-2.29v-8.1h-5.74v2.01h0.5    c1.38,0,1.43,0.2,1.43,2.08v3.55c0,2.87,0.48,5.8,4.01,5.8c2.05,0,2.9-1,3.8-2.06l0.17-0.2c0.54-0.63,1.23-0.86,2.55-0.86h0.58    V9.26H183.45z"/>
	</g>
	<g>
		<path class="st1" d="M18.54,19.52v-8.57v-0.31c0-3.02-2.45-5.48-5.48-5.48c-3.02,0-5.48,2.45-5.48,5.48v0.31v8.57h3.65V15.4    c0,0,0.11-1.7-1.1-1.75c0.01-0.06,0-1,0-1l0.78-0.04l4.35-0.41l-0.15,7.33L18.54,19.52L18.54,19.52z M13.08,11.11    c-1.03,0-1.87-0.84-1.87-1.87s0.84-1.87,1.87-1.87s1.87,0.84,1.87,1.87C14.94,10.27,14.11,11.11,13.08,11.11z"/>
	</g>
</g>
</svg>