<?xml version="1.0" encoding="UTF-8"?>
<!-- Generator: Adobe Illustrator 23.0.4, SVG Export Plug-In . SVG Version: 6.00 Build 0)  -->
<svg version="1.1" id="Layer_1" xmlns="http://www.w3.org/2000/svg" xmlns:xlink="http://www.w3.org/1999/xlink" x="0px" y="0px" viewBox="0 0 251.2 100" style="enable-background:new 0 0 251.2 100;" xml:space="preserve">
<style type="text/css">
	.st0{display:none;}
	.st1{display:inline;}
	.st2{fill:#3498DB;}
</style>
<g class="st0">
	<g class="st1">
		<g>
			<path class="st2" d="M67.9,28c-3,0-5.7,0.7-8.2,1.9c-3.5-9.4-12.7-16-23.6-16C22.3,13.9,11,24.8,11,38.2c0,6.4,2.5,12.2,6.7,16.5     c0.2,0.2,0.5,0.6,1,0.6h4C23.3,49,28.6,44.1,35,44.1S46.7,49,47.3,55.2h34.1c0.8,0,1.4-0.7,1.7-1c1.6-2.6,2.6-5.7,2.6-9     C85.7,35.7,77.7,28,67.9,28z M21.6,49.4c-0.1,0.2-0.3,0.3-0.5,0.3c-0.1,0-0.2,0-0.3-0.1l-1.5-0.9c-0.3-0.2-0.4-0.5-0.2-0.8     c0.2-0.3,0.6-0.4,0.8-0.2l1.5,0.9C21.7,48.8,21.8,49.1,21.6,49.4z M27.1,43.5c-0.1,0.1-0.2,0.1-0.3,0.1c-0.2,0-0.4-0.1-0.5-0.3     l-2.5-4.4c-0.2-0.3-0.1-0.7,0.2-0.8c0.3-0.2,0.7-0.1,0.8,0.2l2.5,4.4C27.5,43,27.4,43.4,27.1,43.5z M35.6,40.7     c0,0.4-0.3,0.6-0.6,0.6c-0.4,0-0.6-0.3-0.6-0.6V28.8c0-0.3,0.3-0.6,0.6-0.6c0.4,0,0.6,0.3,0.6,0.6V40.7z M43.6,43.5     c-0.1,0.2-0.3,0.3-0.5,0.3c-0.1,0-0.2,0-0.3-0.1c-0.3-0.2-0.4-0.6-0.2-0.8l10.3-17.8c0.2-0.3,0.6-0.4,0.8-0.2     c0.3,0.2,0.4,0.6,0.2,0.8L43.6,43.5z M73.7,35.5L49.2,49.7c-0.1,0.1-0.2,0.1-0.3,0.1c-0.2,0-0.4-0.1-0.5-0.3     c-0.2-0.3-0.1-0.7,0.2-0.8l24.6-14.2c0.3-0.2,0.7-0.1,0.8,0.2C74.1,35,74,35.3,73.7,35.5z"/>
			<path class="st2" d="M35,68.9c6.8,0,12.4-5.6,12.4-12.4H22.6C22.6,63.4,28.2,68.9,35,68.9"/>
			<path class="st2" d="M53.3,89.5c-0.2,0-0.4-0.1-0.5-0.3L42.1,70.8c-0.2-0.3-0.1-0.7,0.2-0.8c0.3-0.2,0.7-0.1,0.8,0.2l10.6,18.4     c0.2,0.3,0.1,0.7-0.2,0.8C53.5,89.5,53.4,89.5,53.3,89.5"/>
			<path class="st2" d="M72.9,79.7c-0.1,0-0.2,0-0.3-0.1L48,65.4c-0.3-0.2-0.4-0.6-0.2-0.8c0.2-0.3,0.5-0.4,0.8-0.2l24.6,14.2     c0.3,0.2,0.4,0.6,0.2,0.8C73.4,79.6,73.1,79.7,72.9,79.7"/>
			<path class="st2" d="M50.9,57.7c-0.3,0-0.6-0.3-0.6-0.6s0.3-0.6,0.6-0.6h31.2c0.3,0,0.6,0.3,0.6,0.6s-0.3,0.6-0.6,0.6H50.9z"/>
			<path class="st2" d="M18.4,57.8c-0.3,0-0.6-0.3-0.6-0.6s0.3-0.6,0.6-0.6h0.9l0,0c0.3,0,0.6,0.3,0.6,0.6s-0.3,0.6-0.6,0.6H18.4z"/>
			<path class="st2" d="M20,66.4c-0.2,0-0.4-0.1-0.5-0.3c-0.2-0.3-0.1-0.7,0.2-0.8l1.5-0.9c0.3-0.2,0.7-0.1,0.8,0.2     c0.2,0.3,0.1,0.7-0.2,0.8l-1.5,0.9C20.2,66.4,20.1,66.4,20,66.4"/>
			<path class="st2" d="M35,85.4c-0.3,0-0.6-0.3-0.6-0.6V72.5c0-0.3,0.3-0.6,0.6-0.6s0.6,0.3,0.6,0.6v12.3     C35.6,85.1,35.4,85.4,35,85.4"/>
			<path class="st2" d="M24.4,76.1c-0.1,0-0.2,0-0.3-0.1c-0.3-0.2-0.4-0.6-0.2-0.8l2.9-5c0.2-0.3,0.5-0.4,0.8-0.2     c0.3,0.2,0.4,0.6,0.2,0.8l-2.9,5C24.8,75.9,24.6,76.1,24.4,76.1"/>
		</g>
		<path class="st2" d="M96,22.2c0-1.3,1-2.1,2.3-2.1c1.4,0,2.4,0.8,2.4,2.1v0.7c0,1.2-1,2.1-2.4,2.1C97,25,96,24.1,96,22.9V22.2z     M96.4,32.4c0-1.1,0.9-2,2-2s2,0.9,2,2v23.4c0,1.1-0.8,2-2,2c-1.1,0-2-0.9-2-2V32.4z"/>
		<path class="st2" d="M130.1,55.8c0,1.1-0.9,2-2,2c-1.1,0-2-0.9-2-2v-3.6c-2.2,3.2-5.4,6-10.3,6c-6.5,0-12.9-5.1-12.9-13.9v-0.1    c0-8.8,6.4-14,12.9-14c5,0,8.2,2.7,10.3,5.7V21.3c0-1.1,0.8-2,2-2c1.1,0,2,0.9,2,2V55.8L130.1,55.8z M107.1,44L107.1,44    c0,6.4,4.4,10.5,9.5,10.5c5,0,9.7-4.2,9.7-10.4V44c0-6.2-4.7-10.4-9.7-10.4C111.3,33.7,107.1,37.5,107.1,44z"/>
		<path class="st2" d="M132.6,44.2L132.6,44.2c0-7.7,5.9-14.2,14.1-14.2c8.1,0,14,6.4,14,13.9V44c0,7.6-6,14.1-14.1,14.1    C138.5,58.2,132.6,51.8,132.6,44.2z M156.6,44.2L156.6,44.2c0-5.9-4.3-10.6-10-10.6c-5.8,0-9.8,4.7-9.8,10.4v0.1    c0,5.8,4.3,10.5,9.9,10.5C152.5,54.6,156.6,49.9,156.6,44.2z M140.6,26.1c0-0.3,0.2-0.6,0.3-0.8l3.2-4.8c0.5-0.7,1-1.1,1.8-1.1    c1.2,0,2.7,0.8,2.7,1.5c0,0.4-0.3,0.8-0.6,1.1l-3.9,3.8c-0.9,0.8-1.5,1-2.4,1C141.1,26.8,140.6,26.5,140.6,26.1z M149.2,26.1    c0-0.3,0.2-0.6,0.3-0.8l3.2-4.8c0.5-0.7,1-1.1,1.8-1.1c1.2,0,2.7,0.8,2.7,1.5c0,0.4-0.3,0.8-0.6,1.1l-3.9,3.8    c-0.9,0.8-1.5,1-2.4,1C149.6,26.8,149.2,26.5,149.2,26.1z"/>
		<path class="st2" d="M163.2,21.3c0-1.1,0.9-2,2-2s2,0.9,2,2V46l14.6-14.8c0.5-0.5,0.9-0.8,1.6-0.8c1.1,0,1.8,0.9,1.8,1.9    c0,0.6-0.3,1-0.8,1.6l-8.8,8.6l9.6,12.1c0.4,0.5,0.5,0.8,0.5,1.4c0,1.1-0.8,1.9-1.9,1.9c-0.7,0-1.2-0.3-1.7-0.9l-9.3-11.8    l-5.6,5.5v5.2c0,1.1-0.8,2-2,2s-2-0.9-2-2L163.2,21.3L163.2,21.3z"/>
		<path class="st2" d="M198.4,58.2c-7.4,0-13.4-5.7-13.4-14v-0.1c0-7.8,5.5-14,12.9-14c8,0,12.5,6.5,12.5,13.6    c0,1.1-0.9,1.9-1.9,1.9H189c0.6,5.8,4.7,9.1,9.5,9.1c3.3,0,5.8-1.3,7.8-3.1c0.3-0.3,0.7-0.5,1.1-0.5c1,0,1.8,0.8,1.8,1.7    c0,0.5-0.2,0.9-0.6,1.3C206,56.6,202.9,58.2,198.4,58.2z M206.3,42.6c-0.4-4.9-3.2-9.2-8.6-9.2c-4.7,0-8.2,3.9-8.7,9.2H206.3z     M196.7,26.1c0-0.3,0.1-0.6,0.3-0.8l3.1-4.7c0.5-0.8,1.1-1.2,1.9-1.2c1.2,0,2.8,0.8,2.8,1.6c0,0.4-0.3,0.8-0.7,1.2l-3.9,3.7    c-0.8,0.8-1.5,1-2.4,1C197.1,26.8,196.7,26.5,196.7,26.1z"/>
		<path class="st2" d="M212.8,32.4c0-1.1,0.9-2,2-2s2,0.9,2,2V36c2.2-3.2,5.4-6,10.3-6c6.5,0,12.9,5.1,12.9,13.9V44    c0,8.8-6.3,14-12.9,14c-5,0-8.2-2.7-10.3-5.7v17.4c0,1.1-0.8,2-2,2c-1.1,0-2-0.9-2-2V32.4z M235.9,44.2L235.9,44.2    c0-6.4-4.4-10.5-9.5-10.5c-5,0-9.7,4.2-9.7,10.4v0.1c0,6.2,4.7,10.4,9.7,10.4C231.6,54.5,235.9,50.7,235.9,44.2z"/>
	</g>
</g>
<g>
	<g>
		<g>
			<path class="st2" d="M68.3,27.7c-3,0-5.8,0.7-8.2,1.9c-3.5-9.4-12.8-16.1-23.7-16.1c-13.9,0-25.2,11-25.2,24.5     c0,6.4,2.5,12.2,6.7,16.6c0.2,0.2,0.5,0.6,1,0.6h4C23.5,48.9,28.8,44,35.3,44s11.8,4.9,12.4,11.2h34.2c0.8,0,1.5-0.7,1.7-1.1     c1.7-2.6,2.6-5.7,2.6-9C86.2,35.5,78.2,27.7,68.3,27.7z M21.8,49.3c-0.1,0.2-0.3,0.3-0.5,0.3c-0.1,0-0.2,0-0.3-0.1l-1.5-0.9     c-0.3-0.2-0.4-0.5-0.2-0.8c0.2-0.3,0.6-0.4,0.8-0.2l1.5,0.9C21.9,48.6,22,49,21.8,49.3z M27.3,43.3c-0.1,0.1-0.2,0.1-0.3,0.1     c-0.2,0-0.4-0.1-0.5-0.3L24,38.7c-0.2-0.3-0.1-0.7,0.2-0.8c0.3-0.2,0.7-0.1,0.8,0.2l2.5,4.4C27.7,42.8,27.6,43.2,27.3,43.3z      M35.8,40.5c0,0.4-0.3,0.6-0.6,0.6c-0.4,0-0.6-0.3-0.6-0.6V28.6c0-0.3,0.3-0.6,0.6-0.6c0.4,0,0.6,0.3,0.6,0.6V40.5z M43.9,43.3     c-0.1,0.2-0.3,0.3-0.5,0.3c-0.1,0-0.2,0-0.3-0.1c-0.3-0.2-0.4-0.6-0.2-0.8l10.3-17.9c0.2-0.3,0.6-0.4,0.8-0.2     c0.3,0.2,0.4,0.6,0.2,0.8L43.9,43.3z M74.2,35.2L49.5,49.5c-0.1,0.1-0.2,0.1-0.3,0.1c-0.2,0-0.4-0.1-0.5-0.3     c-0.2-0.3-0.1-0.7,0.2-0.8l24.7-14.3c0.3-0.2,0.7-0.1,0.8,0.2C74.6,34.7,74.5,35.1,74.2,35.2z"/>
			<path class="st2" d="M35.3,68.9c6.9,0,12.5-5.6,12.5-12.5h-25C22.8,63.3,28.4,68.9,35.3,68.9"/>
			<path class="st2" d="M53.7,89.6c-0.2,0-0.4-0.1-0.5-0.3L42.4,70.7c-0.2-0.3-0.1-0.7,0.2-0.8c0.3-0.2,0.7-0.1,0.8,0.2l10.7,18.5     c0.2,0.3,0.1,0.7-0.2,0.8C53.9,89.5,53.8,89.6,53.7,89.6"/>
			<path class="st2" d="M73.4,79.7c-0.1,0-0.2,0-0.3-0.1L48.3,65.4c-0.3-0.2-0.4-0.6-0.2-0.8c0.2-0.3,0.6-0.4,0.8-0.2l24.7,14.3     c0.3,0.2,0.4,0.6,0.2,0.8C73.8,79.6,73.6,79.7,73.4,79.7"/>
			<path class="st2" d="M51.2,57.6c-0.3,0-0.6-0.3-0.6-0.6s0.3-0.6,0.6-0.6h31.3c0.3,0,0.6,0.3,0.6,0.6s-0.3,0.6-0.6,0.6H51.2z"/>
			<path class="st2" d="M18.5,57.7c-0.3,0-0.6-0.3-0.6-0.6s0.3-0.6,0.6-0.6h0.9l0,0c0.3,0,0.6,0.3,0.6,0.6s-0.3,0.6-0.6,0.6H18.5z"/>
			<path class="st2" d="M20.2,66.4c-0.2,0-0.4-0.1-0.5-0.3c-0.2-0.3-0.1-0.7,0.2-0.9l1.5-0.9c0.3-0.2,0.7-0.1,0.9,0.2     c0.2,0.3,0.1,0.7-0.2,0.8l-1.5,0.9C20.4,66.3,20.3,66.4,20.2,66.4"/>
			<path class="st2" d="M35.3,85.4c-0.3,0-0.6-0.3-0.6-0.6V72.4c0-0.3,0.3-0.6,0.6-0.6s0.6,0.3,0.6,0.6v12.4     C35.9,85.1,35.6,85.4,35.3,85.4"/>
			<path class="st2" d="M24.6,76c-0.1,0-0.2,0-0.3-0.1c-0.3-0.2-0.4-0.6-0.2-0.8l2.9-5c0.2-0.3,0.6-0.4,0.9-0.2     c0.3,0.2,0.4,0.6,0.2,0.8l-2.9,5C25,75.9,24.8,76,24.6,76"/>
		</g>
		<path class="st2" d="M95.3,33.4c0-1.3,1-2.1,2.4-2.1s2.4,0.8,2.4,2.1v0.7c0,1.3-1,2.1-2.4,2.1c-1.3,0-2.4-0.9-2.4-2.1V33.4z     M95.7,43.7c0-1.1,0.9-2,2-2c1.2,0,2,0.9,2,2v23.5c0,1.2-0.8,2-2,2s-2-0.9-2-2V43.7z"/>
		<path class="st2" d="M129.6,67.2c0,1.2-0.9,2-2,2c-1.2,0-2-0.9-2-2v-3.7c-2.2,3.2-5.4,6-10.4,6c-6.5,0-12.9-5.1-12.9-14v-0.1    c0-8.8,6.4-14.1,12.9-14.1c5,0,8.3,2.7,10.4,5.8V32.5c0-1.2,0.8-2,2-2s2,0.9,2,2V67.2z M106.4,55.3L106.4,55.3    c0,6.5,4.4,10.6,9.5,10.6c5,0,9.8-4.2,9.8-10.5v-0.1c0-6.2-4.8-10.4-9.8-10.4C110.7,44.9,106.4,48.8,106.4,55.3z"/>
		<path class="st2" d="M132.1,55.5L132.1,55.5c0-7.7,6-14.2,14.1-14.2s14.1,6.4,14.1,14v0.1c0,7.6-6,14.1-14.2,14.1    C138,69.6,132.1,63.2,132.1,55.5z M156.1,55.5L156.1,55.5c0-5.9-4.3-10.7-10-10.7c-5.9,0-9.9,4.8-9.9,10.5v0.1    c0,5.8,4.3,10.5,10,10.5C152.1,66,156.1,61.2,156.1,55.5z M140.1,37.3c0-0.3,0.2-0.6,0.3-0.8l3.2-4.8c0.5-0.7,1-1.2,1.8-1.2    c1.2,0,2.7,0.8,2.7,1.5c0,0.4-0.3,0.8-0.6,1.2l-3.9,3.8c-0.9,0.8-1.5,1-2.4,1C140.6,38,140.1,37.7,140.1,37.3z M148.7,37.3    c0-0.3,0.2-0.6,0.3-0.8l3.2-4.8c0.5-0.7,1-1.2,1.8-1.2c1.2,0,2.7,0.8,2.7,1.5c0,0.4-0.3,0.8-0.6,1.2l-3.9,3.8    c-0.9,0.8-1.5,1-2.4,1C149.1,38,148.7,37.7,148.7,37.3z"/>
		<path class="st2" d="M162.8,32.5c0-1.1,0.9-2,2-2c1.2,0,2,0.9,2,2v24.8l14.6-14.9c0.5-0.5,0.9-0.8,1.6-0.8c1.1,0,1.8,0.9,1.8,1.9    c0,0.6-0.3,1-0.8,1.6l-8.8,8.7l9.7,12.2c0.4,0.5,0.5,0.8,0.5,1.4c0,1.1-0.8,1.9-1.9,1.9c-0.7,0-1.2-0.3-1.7-0.9l-9.4-11.8    l-5.6,5.5v5.2c0,1.2-0.8,2-2,2s-2-0.9-2-2L162.8,32.5L162.8,32.5z"/>
		<path class="st2" d="M198.1,69.6c-7.4,0-13.5-5.7-13.5-14.1v-0.1c0-7.8,5.5-14.1,13-14.1c8,0,12.6,6.5,12.6,13.7    c0,1.1-0.9,1.9-1.9,1.9h-19.6c0.6,5.9,4.7,9.2,9.5,9.2c3.3,0,5.8-1.3,7.8-3.1c0.3-0.3,0.7-0.5,1.2-0.5c1,0,1.8,0.8,1.8,1.7    c0,0.5-0.2,0.9-0.6,1.3C205.8,67.9,202.7,69.6,198.1,69.6z M206.1,53.9c-0.4-4.9-3.2-9.2-8.6-9.2c-4.7,0-8.3,3.9-8.8,9.2H206.1z     M196.5,37.3c0-0.3,0.1-0.6,0.3-0.8l3.1-4.8c0.5-0.8,1.1-1.2,1.9-1.2c1.3,0,2.8,0.8,2.8,1.6c0,0.4-0.3,0.8-0.7,1.2L200,37    c-0.8,0.8-1.5,1-2.5,1C196.9,38,196.5,37.7,196.5,37.3z"/>
		<path class="st2" d="M212.7,43.7c0-1.2,0.9-2,2-2c1.2,0,2,0.9,2,2v3.7c2.2-3.2,5.4-6,10.4-6c6.5,0,12.9,5.1,12.9,14v0.1    c0,8.8-6.4,14.1-12.9,14.1c-5,0-8.3-2.7-10.4-5.8v17.5c0,1.2-0.8,2-2,2s-2-0.9-2-2V43.7z M235.9,55.5L235.9,55.5    c0-6.5-4.4-10.6-9.5-10.6c-5,0-9.8,4.2-9.8,10.4v0.1c0,6.3,4.8,10.5,9.8,10.5C231.6,65.9,235.9,62,235.9,55.5z"/>
	</g>
</g>
</svg>