<svg version="1.0" id="Layer_1" xmlns="http://www.w3.org/2000/svg" x="0" y="0" viewBox="0 0 76.2 65" xml:space="preserve"><style>.st2{fill:#ebea70}.st3{fill:#c6dc74}.st4{fill:#72be44}.st5{fill:#349445}.st6{fill:#275125}.st7{fill:#2e883f}.st8{fill:#0ca848}</style><path d="M53.1 3.3c5.3 0 10 4.5 10.8 10.6.1 1.1.2 2.2 0 3.3 0 0-.1 1.6 0 2.5.4 3 2.1 5.5 4.3 6.9 1.1.6 2.4 1.7 3.3 3.4.8 1.4 1.3 3.2 1.3 5.4v1.1c0 .3-.1.5-.1.8 0 .1-.1.3-.1.4v.1c0 .1-.1.3-.1.5v.1c-.1.5-.3 1.1-.5 1.7v.1c-.1.2-.1.4-.2.6v.1c-.2.6-.5 1.3-.8 2v.1c-.1.2-.2.5-.3.7-.4.7-.8 1.5-1.3 2.2 0 0 0 .1-.1.1-.2.2-.3.5-.5.7v.1c-.5.8-1.1 1.5-1.8 2.3 0 0 0 .1-.1.1-.2.2-.4.5-.6.7l-.1.1c-.7.7-1.4 1.5-2.3 2.2l-.1.1c-.3.2-.5.4-.8.7l-.2.2c-.8.7-1.8 1.3-2.7 1.9-.1.1-.2.1-.3.2-.3.2-.6.4-.9.5-.1.1-.3.1-.4.2-.3.2-.6.4-1 .5-4.2 2.2-9.6 4-16.3 4.9-2.7.3-5.2.5-7.5.5-21.9-.2-29-13.5-30.1-17.9-1.1-4.8.6-8.2 2.3-9.7 1.8-1.9 2.9-4.7 2.5-7.7-.1-.8-.6-2.4-.6-2.4-.4-1.1-.6-2-.8-3.2-.8-6.5 3.2-12.4 9-13.1.4 0 .8-.1 1.2-.1 3.4 0 6.5 1.8 8.6 4.8 2-1.8 5.1-3.2 8.6-3.6.8-.1 1.6-.2 2.4-.2 2.6 0 5 .5 6.9 1.6 1.4-3.7 4.5-6.5 8.3-7 .4-.1.8-.1 1.1-.1m0-3.3c-.5 0-1.1 0-1.6.1-3.8.5-7.3 2.7-9.5 6.1-1.6-.5-3.4-.7-5.3-.7-.9 0-1.9.1-2.8.2-2.8.4-5.5 1.2-7.7 2.5-2.5-2.3-5.8-3.7-9.1-3.7-.5 0-1.1 0-1.6.1C8 5.5 2.7 13.1 3.8 21.4c.2 1.5.5 2.7 1 3.9.2.6.4 1.4.4 1.7.2 1.9-.3 3.7-1.5 5C1.2 34.2-1 38.7.5 44.8 1.2 48 3.8 52.9 8.7 57c6.2 5.2 14.8 8 24.8 8 2.5 0 5.2-.2 7.9-.5 6.6-.8 12.5-2.6 17.5-5.2h.1c.3-.2.7-.4 1-.5l.1-.1.3-.2c.3-.2.7-.4 1-.6l.2-.1.1-.1c1.1-.7 2.1-1.4 3-2.1l.1-.1.1-.1c.3-.3.6-.5.9-.7l.2-.2c.9-.7 1.7-1.6 2.5-2.4l.1-.1c.3-.3.5-.6.8-.8l.1-.1c.7-.8 1.4-1.7 2-2.5l.1-.1c.2-.3.4-.5.5-.8v-.2c.5-.8 1-1.6 1.4-2.4V45c.1-.2.2-.5.4-.8v-.1c.4-.8.7-1.5 1-2.3v-.1c.1-.2.2-.4.2-.7v-.1c.2-.7.4-1.3.6-1.9v-.1c0-.2.1-.3.1-.5v-.2c0-.2.1-.3.1-.5v-.1c.1-.4.1-.7.2-1v-1.5c0-2.5-.6-4.9-1.7-6.9-1.1-2.1-2.7-3.8-4.6-4.7-1.4-.9-2.4-2.6-2.7-4.4v-1.8c.2-1.3.2-2.5 0-4C66.2 5.8 60.2 0 53.1 0" fill="#fff"/><path fill="#98c944" d="M11 34l-.5-5.9-2.2-5.3.5-8.1 4-4 4.6-1 3.1 1.3 2.9 1.8 2.9 1.1 4.9-3 6.1-.7 6.7 2.2 4.3-6.2 6.6-1.3 4.2 2.3 2.9 4.1.3 2-1.5 7.9 1.6 5.5 5.6 3.2 1.8 7.1-2.1 8.3-4 4.4-7.2 5.4-9.9 3.9-8.1.8-10.8.3-12.6-4.5-6.2-6.2-2.8-8-.9-5.6 3.7-1.6z"/><path class="st2" d="M34.5 10.4l8.7.9V14l-6 3.5-4.2.5-5.9-2-.8-2.1z"/><path class="st3" d="M43.2 13.6c-1 1.8-4.2 3.2-7.2 3.5-2.9.4-5.6-.4-7-1.9 3.8-3 10.5-3.7 14.2-1.6"/><path class="st4" d="M68.3 26.5c-2.2-1.4-3.9-3.9-4.3-6.9-.1-.8 0-2.5 0-2.5.2-1.1.1-2.1 0-3.3-.9-6.4-6.2-11.2-12-10.4-3.8.5-6.9 3.2-8.3 7-2.4-1.3-5.8-1.8-9.3-1.4-3.5.4-6.6 1.8-8.6 3.6-2.3-3.2-5.9-5.2-9.8-4.7-5.8.7-9.8 6.6-9 13.1.1 1.1.4 2.1.8 3.2 0 0 .5 1.6.6 2.4.4 3-.6 5.9-2.5 7.7-1.7 1.5-3.4 4.9-2.3 9.7 1.1 4.8 9.7 20.7 37.3 17.2 27.6-3.5 32-22.3 31.9-25.9 0-4.9-2.5-7.8-4.5-8.8M34.8 11.9c2.5-.3 5-.1 6.8.7-1 1.8-3.3 3.2-6.3 3.6-3 .4-5.6-.4-7-1.9 1.6-1.2 3.9-2.1 6.5-2.4M10.7 35.8c-.5-2.4 4.1 0 4.6-2.8.1-.6-.1-1.3-.2-1.8 1.2.4 2.5.5 3.9.3 5.8-.7 9.8-6.6 9-13.1 0-.1 0-.3-.1-.4 2 .7 3.7 3.7 4.2 7.6.1 1.1.1 1.5.2 2.1.3 1.9 2.4 3.2 4.8 2.9 2.4-.3 4.3-2.2 4-4-.2-.9-.2-.9-.4-2.1-.5-3.8.5-7.2 2.2-8.4v.4c.8 6.5 6.2 11.4 12 10.5 3.6-.6 5.3-.5 6.1.9 1.4 2.5-2.1 10-22.6 12.7-13 1.7-27.1-2.1-27.7-4.8"/><path class="st3" d="M63 35.5c-5.4.7-9.3 12.1-23.4 13.8-14.2 1.8-21.4-8.2-26.5-7.6-5.1.6.2 19.8 27.4 16.4C67.7 54.7 68.4 34.8 63 35.5"/><path class="st5" d="M31.6 33.7c.1 1.2-.6 2.2-1.6 2.3-1 .1-2-.7-2.1-1.9-.1-1.2.6-2.2 1.6-2.3 1-.1 1.9.7 2.1 1.9"/><path class="st4" d="M51.9 31c.1.8-.4 1.5-1.1 1.6-.7.1-1.3-.5-1.4-1.2-.1-.8.4-1.5 1.1-1.6.7-.1 1.3.4 1.4 1.2m-29 4.8c.1.8-.4 1.5-1.1 1.6-.7.1-1.3-.5-1.4-1.2-.1-.8.4-1.5 1.1-1.6.6-.2 1.3.4 1.4 1.2m-3-2.6c0 .4-.2.7-.5.8-.3 0-.7-.2-.7-.6 0-.4.2-.7.5-.8.3 0 .7.2.7.6m-3.4 2.4c0 .4-.2.7-.5.8-.3 0-.7-.2-.7-.6 0-.4.2-.7.5-.8.3-.1.7.2.7.6"/><path class="st5" d="M47 31.7c.1 1.2-.6 2.2-1.6 2.3-1 .1-2-.7-2.1-1.9-.1-1.2.6-2.2 1.6-2.3 1-.1 1.9.8 2.1 1.9"/><path class="st4" d="M54.9 26.9c.1 1-.5 1.8-1.3 2-.9.1-1.7-.6-1.8-1.6-.1-1 .5-1.8 1.3-2 .9-.1 1.6.6 1.8 1.6m2.6 3.8c.1.6-.3 1.1-.8 1.2-.5.1-1-.4-1.1-.9-.1-.6.3-1.1.8-1.2.6-.1 1 .3 1.1.9"/><path class="st2" d="M16.4 10.9c-4.3.5-7.3 4.9-6.7 9.8.6 4.8 4.6 8.3 8.9 7.8 4.3-.5 7.3-4.9 6.7-9.8-.7-4.8-4.6-8.3-8.9-7.8"/><path class="st3" d="M16.4 10.9c-3.2.4-6.5 4.8-5.9 9.7.6 4.8 4.8 8.3 8.1 7.9 4.3-.5 7.3-4.9 6.7-9.8-.7-4.8-4.6-8.3-8.9-7.8"/><path class="st5" d="M22.1 19.1c.4 2.9-1.4 5.5-4 5.9-2.6.3-5-1.8-5.3-4.7-.4-2.9 1.4-5.5 4-5.9 2.6-.3 5 1.8 5.3 4.7"/><path class="st6" d="M19.3 19.5c.2 1.9-.4 3.6-1.4 3.7-1 .1-2.1-1.3-2.3-3.3-.3-1.9.4-3.6 1.4-3.7 1-.1 2.1 1.3 2.3 3.3"/><path class="st3" d="M21.8 15.3c.1 1-.5 1.8-1.3 2-.9.1-1.7-.6-1.8-1.6-.1-1 .5-1.8 1.3-2 .9 0 1.7.7 1.8 1.6"/><path class="st2" d="M52.3 6.4c-4.3.5-7.3 4.9-6.7 9.8.6 4.8 4.6 8.3 8.9 7.8 4.3-.5 7.3-4.9 6.7-9.8-.6-4.8-4.6-8.3-8.9-7.8"/><path class="st3" d="M52.3 6.4c-3.2.4-6.5 4.8-5.9 9.7.6 4.8 4.8 8.3 8.1 7.9 4.3-.5 7.3-4.9 6.7-9.8-.6-4.8-4.6-8.3-8.9-7.8"/><path class="st5" d="M58.1 14.6c.4 2.9-1.4 5.5-4 5.9-2.6.3-5-1.8-5.3-4.7-.4-2.9 1.4-5.5 4-5.9 2.5-.3 4.9 1.8 5.3 4.7"/><path class="st3" d="M57.8 10.8c.1 1-.5 1.8-1.3 2-.9.1-1.7-.6-1.8-1.6-.1-1 .5-1.8 1.3-2 .8 0 1.6.6 1.8 1.6"/><path class="st6" d="M55.3 15c.2 1.9-.4 3.6-1.4 3.7-1 .1-2.1-1.3-2.3-3.3-.2-1.9.4-3.6 1.4-3.7 1-.1 2 1.3 2.3 3.3"/><path class="st2" d="M13.2 41.7s-.1 0 0 0c-3.7.5-2 10.7 9.6 14.9-1.9-1-11.1-5.2-9.6-14.9"/><path class="st7" d="M62.7 32.7c-.7.1-1.2.8-1.1 1.6 0 .2.1.4.2.5-6.1 3.8-14.2 6.7-23.2 7.8-9 1.1-17.6.4-24.4-1.9 0-.2.1-.4 0-.6-.1-.8-.7-1.3-1.4-1.2-.7.1-1.2.8-1.1 1.6.1.8.7 1.3 1.4 1.2h.1c2.3 10.9 14 17.2 27.2 15.6 13.2-1.7 23-10.7 22.5-21.8h.1c.7-.1 1.2-.8 1.1-1.6-.1-.8-.7-1.3-1.4-1.2"/><path class="st8" d="M28.6 56.6c1.5-4 5.6-7.2 10.7-7.9 5.1-.6 9.9 1.5 12.3 5 0 0-4.4 2.8-11.2 3.7-6.8.8-11.8-.8-11.8-.8"/><path class="st7" d="M28.6 56.6c14.5 1.7 20.8-3.4 22.2-4.5.5.5.7.9.8 1.6 0 0-4.4 2.8-11.2 3.7-6.8.8-11.8-.8-11.8-.8"/><path class="st8" d="M68.3 26.5c3.2 3.1 6.8 17.8-11 29.9 13.1-6.9 15.6-18.3 15.6-21.1-.1-4.9-2.6-7.8-4.6-8.8"/></svg>