<?xml version="1.0" encoding="UTF-8"?>
<!-- Generator: Adobe Illustrator 19.1.1, SVG Export Plug-In . SVG Version: 6.00 Build 0)  -->
<svg version="1.1" xmlns="http://www.w3.org/2000/svg" xmlns:xlink="http://www.w3.org/1999/xlink" x="0px" y="0px" width="309.6px" height="119.3px" viewBox="0 0 309.6 119.3" style="enable-background:new 0 0 309.6 119.3;" xml:space="preserve">
<style type="text/css">
	.st0{display:none;}
	.st1{display:inline;fill:#404552;}
	.st2{fill:#FFA133;}
	.st3{display:inline;fill:#FFA133;}
	.st4{fill:#737A90;}
</style>
<g id="bg" class="st0">
	<rect x="0.1" y="1.5" class="st1" width="309.5" height="116.8"/>
</g>
<g id="sun_x5F_and_x5F_other">
	<g id="Sun_copy">
		<path id="sun_x5F_circle_1_" class="st2" d="M71.7,35.1c-10.9,0.4-22.9,0.9-31.1,9.2C29.3,55.9,34,72.8,48.4,78.2    c9.9,3.8,20.9,3.6,31.2,2.7c15.6-1.2,26.4-7.5,26.2-24.4C104.7,33.9,71.7,35.1,71.7,35.1z M91.9,72c-10.4,4-23,3.1-33.9,1.9    c-5.9-0.6-12.9-3-15.7-8.7c-4.5-9,2.9-17.2,10.4-21.3c5.2-2.8,11.7-2.1,17.5-2c4.3,0,9.4-0.5,13.6,0.6c6,1.5,13.8,5,15.1,11.7    C100.2,61.1,99.3,69.1,91.9,72C84.8,74.7,99.1,69.2,91.9,72z"/>
		<g>
			<path class="st2" d="M103.9,29.5c0.6-1.6,4.1-3.2,5.5-4.1c1.7-1.1,3.3-2.2,5.1-3.2c2.3-1.4,4.5-2.8,6.8-4.1     c1.7-1,4.6,1.2,3.8,3.1c-0.5,1.4-2.7,2.5-3.8,3.2c-2.4,1.7-4.8,3.5-7.3,5.2c-1.8,1.3-3.5,2.5-5.3,3.8     C107.4,34.1,103.4,30.9,103.9,29.5z"/>
		</g>
		<g>
			<path class="st2" d="M86.9,20.6c1.9-3.7,3.7-7.4,5.6-11.1c0.9-1.8,1.8-3.6,2.7-5.4c1.3-2.6,4.3-0.7,4.3,1.8     c0,3.4-2.5,8.3-4.1,11.2c-1.3,2.3-2.6,4.7-4.1,6.9C89,27.5,86.9,22.7,86.9,20.6z"/>
		</g>
		<g class="st0">
			<path class="st3" d="M66.9,22.3c0.1-4.3,0.1-8.6,0.2-12.9c0-2.9-1.6-11.2,4.3-8.8c3,1.3,1.6,11.3,1.6,13.9     C73,17.7,72.2,29.6,66.9,22.3z"/>
		</g>
		<g class="st0">
			<path class="st3" d="M45,3.7c0.5-0.1,1.2,0.1,1.4,0.6c0,0,8.4,16.4,8.4,17c0,0.6,0.3,3.3-0.5,3.9s-1,2.3-2.9,1.3     S42.1,8.8,42.1,8.8c-0.2-0.5-0.5-1.4-0.6-1.9c0,0-0.3-1.6,0.4-2.1S45,3.7,45,3.7z"/>
		</g>
		<g class="st0">
			<path class="st3" d="M21.7,16.1c1,0.4,6,5.7,8.9,8.5c1.2,1.2,9.7,7.7,4.4,9.6c-3.4,1.2-9.4-6.7-11.7-8.9c-2.2-2.1-5-4-5-5.9     C18.3,18.2,20.6,15.7,21.7,16.1z"/>
		</g>
		<g class="st0">
			<path class="st3" d="M7.4,40.1c3.9,0.6,7.7,1.2,11.5,2.1c2.5,0.6,4.7,1.4,6.8,3.1c2.3,1.8,1.4,4.6-1.5,4.5     c-5-0.2-10.4-1.8-15.3-3.1c-2.5-0.7-5-1.6-4.6-4.7C4.6,40.4,6,39.9,7.4,40.1z"/>
		</g>
		<g>
			<path class="st2" d="M1.5,66.3c0.8-0.4,15.4-2.8,18.8-2.7c3.4,0.2,3.7,0.4,3.7,2c0,1.6-0.3,1.8-0.8,2.3     c-1.1,0.9-11.5,2.5-11.5,2.5s-8.2,0.5-9.9,0c-2.7-0.8-1.3-2.8-1.3-2.8S0.7,66.7,1.5,66.3z"/>
		</g>
		<g>
			<path class="st2" d="M9.4,92.6c0.2-0.5,0.7-1.2,1.1-1.5l15.8-10.8c0.5-0.3,1.3-0.7,1.8-0.8c0,0,0.6-0.1,1.4,1.5     c0.8,1.7,0.3,3.2-0.8,4.2s-13.4,9.2-13.4,9.2c-0.5,0.3-1.2,0.7-1.7,1c0,0-1.9,0.9-3.3-0.4C9,93.6,9.4,92.6,9.4,92.6z"/>
		</g>
		<g>
			<path class="st2" d="M46.4,90.2c0.9-0.7,2.2-0.6,3,0.1l0.1,0c0.8,0.7,1.2,2.2,0.9,3.3c0,0-5.4,16.5-7.7,18.3s-3.3,0.1-3.5-0.5     c-0.3-0.6-1.3-3-0.2-5.5s6.3-14.3,6.7-14.8S46.4,90.2,46.4,90.2z"/>
		</g>
		<g>
			<path class="st2" d="M65,98.6c0.1-1.1,0.4-2.8,0.8-3.9c0,0,0.3-1,1.6-1.1s1.8-0.3,2.3,2.1s0.9,17,0.3,19.5s-1.9,3.4-2.8,3     s-3.5-0.9-3.3-3.5S65,98.6,65,98.6z"/>
		</g>
		<g>
			<path class="st2" d="M90.5,92.8c0.5,0,1.2,0.8,1.5,1.9c0,0,5.1,14.4,5.2,16.4s0,3.3-1.1,4.5s-1.9,1.9-3.1,0.6s-4-14.8-4-14.8     c-0.2-1.1-0.7-2.8-1-3.9c0,0-1-3-0.4-3.5s0.6-0.5,0.6-0.5C89.1,93.2,90.1,92.8,90.5,92.8z"/>
		</g>
		<g>
			<path class="st2" d="M112.6,96.5c-0.4-0.4-1-1.1-1.4-1.5l-5.9-6.1c-0.4-0.4-0.6-1.2-0.6-1.7c0,0,0.1-1.4,1.4-2.4s4,0.1,5.3,1.5     s8.3,8.1,8.3,8.1c0.4,0.4,1,1,1.4,1.5c0,0,2.6,3.2,2.4,4.3s-0.4,3.4-3,2.8S112.6,96.5,112.6,96.5z"/>
		</g>
	</g>
	<g id="Text">
		<path class="st4" d="M163.5,66.8c-0.8-2.6-1.2-5.4-1.2-8.4c0-3.5,0.5-6.7,1.6-9.4c0.1-0.1,0.1-0.3,0.2-0.4c-0.4-1.5-1-2.8-1.8-4    c-1-1.5-2.5-2.7-4.3-3.6c-1.8-0.8-4.2-1.3-7.1-1.3c-1.5,0-2.9,0.2-4.2,0.5c-1.3,0.3-2.5,0.7-3.5,1.1c-1.1,0.4-1.9,0.8-2.7,1.3    c-0.7,0.4-1.2,0.8-1.6,1c-1.1-1.2-2.5-2.2-4.1-2.8c-1.6-0.6-3.6-1-6-1c-3.3,0-6.2,0.2-8.7,0.6c-2.5,0.4-4.5,0.8-6.1,1.2V78h6.7    V46.4c0.2,0,0.6-0.1,1.2-0.2c0.6-0.1,1.2-0.2,1.9-0.3c0.7-0.1,1.4-0.1,2.2-0.2c0.8,0,1.5-0.1,2.2-0.1c1.6,0,2.9,0.3,3.9,0.8    c1,0.5,1.8,1.3,2.4,2.3c0.6,1.1,1,2.4,1.3,4c0.2,1.6,0.4,3.5,0.4,5.7v12.4c0,0,6.7,11.3,6.7,5.7s0-19.5,0-19.5    c0-1.6-0.1-3.2-0.3-4.7c-0.2-1.5-0.5-2.9-0.9-4.1c0.5-0.5,1.5-1,3-1.6c1.5-0.6,3.3-0.9,5.6-0.9c1.6,0,3,0.3,4,0.8    c1,0.5,1.8,1.3,2.4,2.3c0.6,1.1,1,2.4,1.2,4c0.2,1.6,0.3,3.5,0.3,5.7V78h6.7v-7.9C164.4,69.1,163.9,68,163.5,66.8z"/>
		<path class="st4" d="M164.3,58.4c0-3.3,0.5-6.2,1.4-8.7c1-2.5,2.2-4.5,3.8-6.2c1.6-1.6,3.4-2.9,5.5-3.7c2.1-0.8,4.2-1.2,6.3-1.2    c5,0,8.9,1.6,11.6,4.7c2.7,3.1,4,7.9,4,14.4c0,0.3,0,0.7,0,1.1c0,0.5,0,0.9-0.1,1.3h-25.6c0.3,3.9,1.4,6.8,3.4,8.9c2,2,5,3,9.2,3    c2.4,0,4.3-0.2,5.9-0.6c1.6-0.4,2.8-0.8,3.6-1.2l0.9,5.6c-0.8,0.4-2.2,0.9-4.3,1.4c-2,0.5-4.4,0.7-6.9,0.7c-3.3,0-6.1-0.5-8.5-1.5    c-2.4-1-4.3-2.3-5.9-4.1c-1.5-1.7-2.7-3.8-3.4-6.2C164.7,63.8,164.3,61.2,164.3,58.4z M190,54.7c0-3-0.7-5.5-2.3-7.5    c-1.6-1.9-3.7-2.9-6.4-2.9c-1.5,0-2.9,0.3-4.1,0.9c-1.2,0.6-2.2,1.4-3,2.3c-0.8,1-1.5,2.1-1.9,3.3c-0.5,1.2-0.8,2.5-0.9,3.8H190z"/>
		<path class="st4" d="M251.8,66.9c-0.8-2.6-1.2-5.4-1.2-8.4c0-3.3,0.5-6.2,1.4-8.8c0-0.1,0-0.3-0.1-0.4c-0.5-2.1-1.3-3.9-2.5-5.4    c-1.2-1.5-2.7-2.7-4.7-3.5c-2-0.8-4.4-1.3-7.4-1.3c-3.3,0-6.2,0.2-8.8,0.6c-2.5,0.4-4.6,0.8-6.1,1.2l0,21.8c0,1.9-0.1,3.4-0.4,4.6    c-0.3,1.2-0.7,2.2-1.3,2.9c-0.6,0.7-1.3,1.2-2.2,1.5c-0.9,0.3-1.3,0.4-2.5,0.4c-1.6,0.1-4,0-4,0c-1.2,0-1.6-0.2-2.5-0.5    c-0.9-0.3-1.6-0.8-2.2-1.5c-0.6-0.7-1-1.7-1.3-2.9c-0.3-1.2-0.4-2.8-0.4-4.6V45.5h14.2v-5.6h-14.2V28.3l-6.7,1.2v33.4    c0,2.5,0.2,4.7,0.6,6.6c0.4,1.9,1.1,3.5,2.1,4.8c1,1.3,2.3,2.3,4,2.9c1.7,0.6,3.8,1,6.3,1h4c2.5,0,4.6-0.3,6.3-1    c1.7-0.6,3-1.6,4-2.9c1-1.3,1.7-2.9,2.1-4.8c0.4-1.9,0.6-4.2,0.6-6.7l0-17c0.2,0,0.6-0.1,1.2-0.2c0.6-0.1,1.2-0.2,1.9-0.3    c0.7-0.1,1.4-0.1,2.2-0.2c0.8,0,1.5-0.1,2.2-0.1c1.8,0,3.3,0.2,4.5,0.7c1.2,0.5,2.2,1.2,2.9,2.2c0.7,1,1.2,2.3,1.5,4    c0.3,1.6,0.5,3.6,0.5,5.9v20.3h6.7V69C252.3,68.3,252,67.6,251.8,66.9z"/>
		<path class="st4" d="M252.6,58.5c0-3.3,0.5-6.2,1.4-8.7c1-2.5,2.2-4.5,3.8-6.2c1.6-1.6,3.4-2.9,5.5-3.7c2.1-0.8,4.2-1.2,6.3-1.2    c5,0,8.9,1.6,11.6,4.7c2.7,3.1,4,7.9,4,14.4c0,0.3,0,0.7,0,1.1c0,0.5,0,0.9-0.1,1.3h-25.6c0.3,3.9,1.4,6.8,3.4,8.9c2,2,5,3,9.2,3    c2.4,0,4.3-0.2,5.9-0.6c1.6-0.4,2.8-0.8,3.6-1.2l0.9,5.6c-0.8,0.4-2.2,0.9-4.3,1.4c-2,0.5-4.4,0.7-6.9,0.7c-3.3,0-6.1-0.5-8.5-1.5    c-2.4-1-4.3-2.3-5.9-4.1c-1.5-1.7-2.7-3.8-3.4-6.2C253,63.9,252.6,61.3,252.6,58.5z M278.3,54.8c0-3-0.7-5.5-2.3-7.5    c-1.6-1.9-3.7-2.9-6.4-2.9c-1.5,0-2.9,0.3-4.1,0.9c-1.2,0.6-2.2,1.4-3,2.3c-0.8,1-1.5,2.1-1.9,3.3c-0.5,1.2-0.8,2.5-0.9,3.8H278.3    z"/>
		<path class="st4" d="M294,39.5h14.2v5.6H294v17.3c0,1.9,0.1,3.4,0.4,4.6c0.3,1.2,0.7,2.2,1.3,2.9c0.6,0.7,1.3,1.2,2.2,1.5    c0.9,0.3,1.9,0.4,3,0.4c2,0,3.6-0.2,4.9-0.7c1.2-0.5,2.1-0.8,2.6-1l1.3,5.5c-0.7,0.3-1.8,0.8-3.5,1.3c-1.7,0.5-3.6,0.8-5.8,0.8    c-2.5,0-4.6-0.3-6.3-1c-1.7-0.6-3-1.6-4-2.9c-1-1.3-1.7-2.9-2.1-4.8c-0.4-1.9-0.6-4.1-0.6-6.6V29.1L294,28V39.5z"/>
	</g>
</g>
<g id="shits">
	<g>
		<path class="st2" d="M66.9,22.3c0.1-4.3,0.1-8.6,0.2-12.9c0-2.9-1.6-11.2,4.3-8.8c3,1.3,1.6,11.3,1.6,13.9    C73,17.7,72.2,29.6,66.9,22.3z"/>
	</g>
	<g>
		<path class="st2" d="M45,3.7c0.5-0.1,1.2,0.1,1.4,0.6c0,0,8.4,16.4,8.4,17c0,0.6,0.3,3.3-0.5,3.9s-1,2.3-2.9,1.3    S42.1,8.8,42.1,8.8c-0.2-0.5-0.5-1.4-0.6-1.9c0,0-0.3-1.6,0.4-2.1S45,3.7,45,3.7z"/>
	</g>
	<g>
		<path class="st2" d="M21.7,16.1c1,0.4,6,5.7,8.9,8.5c1.2,1.2,9.7,7.7,4.4,9.6c-3.4,1.2-9.4-6.7-11.7-8.9c-2.2-2.1-5-4-5-5.9    C18.3,18.2,20.6,15.7,21.7,16.1z"/>
	</g>
	<g>
		<path class="st2" d="M7.4,40.1c3.9,0.6,7.7,1.2,11.5,2.1c2.5,0.6,4.7,1.4,6.8,3.1c2.3,1.8,1.4,4.6-1.5,4.5    c-5-0.2-10.4-1.8-15.3-3.1c-2.5-0.7-5-1.6-4.6-4.7C4.6,40.4,6,39.9,7.4,40.1z"/>
	</g>
</g>
<g id="Guides" class="st0">
</g>
</svg>