<svg xmlns="http://www.w3.org/2000/svg" width="165.858" height="26.779" viewBox="59.991 72.999 165.858 26.779"><g data-name="Grupo 48"><path d="m112.935 73-4.373 26.158h7.954L120.887 73h-7.952Z" fill="#020202" fill-rule="evenodd" data-name="Trazado 1246"/><path d="m145.103 73-9.861 19.08-4-19.08h-8.06l5.752 26.156h10.286L153.645 73h-8.542Z" fill="#020202" fill-rule="evenodd" data-name="Trazado 1247"/><path d="m156.012 73-4.374 26.158h7.955L163.964 73h-7.952Z" fill="#020202" fill-rule="evenodd" data-name="Trazado 1248"/><g data-name="Grupo 47"><g data-name="Grupo 46" transform="translate(59.991 73)" clip-path="url(&quot;#a&quot;)"><path d="M134.167 0h-7.936l-.755 4.502-1.816 10.854a10.536 10.536 0 0 1-.617 2.258 4.994 4.994 0 0 1-1.099 1.682 4.347 4.347 0 0 1-1.642 1.023c-.638.226-1.398.338-2.29.338-.914 0-1.662-.112-2.248-.338-.586-.224-1.043-.566-1.373-1.023-.33-.457-.532-1.017-.61-1.682-.079-.663-.047-1.416.092-2.258l1.817-10.854.755-4.503h-7.954l-.77 4.538-1.818 10.854c-.306 1.861-.28 3.502.075 4.92.356 1.416 1.029 2.606 2.022 3.567.993.961 2.286 1.684 3.88 2.17 1.594.487 3.477.73 5.647.73 2.171 0 4.066-.21 5.685-.632 1.616-.42 2.99-1.09 4.123-2.01 1.132-.92 2.04-2.099 2.72-3.54.682-1.443 1.19-3.177 1.524-5.205l1.817-10.854.771-4.538Z" fill="#020202" fill-rule="evenodd" data-name="Trazado 1249"/><path d="M165.858 0h-9.929l-11.02 10.28L146.64 0h-7.952l-4.373 26.156h7.954l1.662-10.014 7.573 10.014h9.678l-9.628-12.91L165.858 0Z" fill="#020202" fill-rule="evenodd" data-name="Trazado 1250"/><path d="M30.685 0c-.425 0-.848.011-1.27.031C15.441.691 2.428 12.134 0 26.154h7.946c.126-.62.276-1.231.457-1.835 2.56-8.651 10.711-15.47 19.577-16.282a18.06 18.06 0 0 1 1.766-.09h8.443l-3.134 18.207H43L47.372 0H30.685Z" fill="#020202" fill-rule="evenodd" data-name="Trazado 1251"/></g></g></g><defs><clipPath id="a"><path d="M0 0h165.857v26.779H0V0z" data-name="Rectángulo 99"/></clipPath></defs></svg>