<?xml version="1.0" encoding="UTF-8"?><svg id="Layer_1" xmlns="http://www.w3.org/2000/svg" viewBox="0 0 512.5298 67.064"><defs><style>.cls-1{fill:#da1f26;}</style></defs><g><path d="M101.3934,13.2187c-3.4192-3.5556-8.5236-5.3494-15.309-5.3494H43.6678l-5.5354,13.6626h42.4116c1.4749,0,2.6912,.4357,3.6298,1.3302,.9339,.9005,1.1685,1.9339,.6607,3.1605l-9.2608,22.8079c-.5124,1.2685-1.5299,2.334-3.0502,3.1953-1.5252,.866-3.1605,1.3004-4.8867,1.3004H24.0733c-1.4892,0-2.6863-.4455-3.6224-1.3521-.941-.9018-1.1707-1.9379-.6799-3.1436l8.6312-21.2601H9.7413L1.1196,48.8305c-2.0087,4.9558-1.319,9.2237,2.1045,12.7894,3.4287,3.5704,8.5381,5.3421,15.309,5.3421H62.0942c6.8643,0,13.4197-1.7618,19.6877-5.2904,6.2563-3.5324,10.4102-7.8063,12.4454-12.841l9.2657-22.8079c2.0182-4.9691,1.3097-9.236-2.0996-12.8039M415.3893,53.3262c-1.3911,0-2.5571-.481-3.5435-1.4002-.9721-.9091-1.2283-1.9624-.7517-3.0955l1.8604-4.5793h52.8003l5.545-13.6591h-52.8172l1.8628-4.5695c.5075-1.2808,1.5419-2.3547,3.0695-3.2,1.525-.8549,3.1482-1.2906,4.8985-1.2906h48.8976l5.5475-13.6626h-48.9097c-6.79,0-13.3167,1.7938-19.6377,5.3494-6.3254,3.5679-10.5012,7.8348-12.5027,12.8039l-9.2753,22.8079c-2.0062,4.9558-1.3048,9.2237,2.1215,12.7894,3.4238,3.5704,8.5138,5.3421,15.304,5.3421h49.6709l5.5428-13.6357h-49.6831ZM190.3157,29.9327c3.759-1.3324,6.8523-2.847,9.2608-4.535,2.4326-1.6917,4.1348-3.7415,5.1189-6.1542,1.2786-3.125,.838-5.8095-1.2977-8.0266-2.1403-2.2294-5.3415-3.3477-9.6056-3.3477H116.8504l-5.5401,13.6626h64.8218l-66.1986,23.9557c-3.1769,.9572-5.9064,2.3242-8.1811,4.1008-2.2985,1.7938-3.9026,3.8312-4.8362,6.1098-1.2977,3.1852-.8836,5.8712,1.2259,8.0661,2.1092,2.2083,5.332,3.2996,9.6798,3.2996l78.4189-.102,5.5379-13.6357H124.8687l65.4469-23.3936Zm109.8097-16.714c-3.4285-3.5556-8.5329-5.3494-15.3087-5.3494h-43.5465c-6.7854,0-13.3456,1.7938-19.6664,5.3494-6.3112,3.5679-10.458,7.8348-12.4883,12.8039l-9.2562,22.8079c-2.0089,4.9558-1.3266,9.2237,2.1068,12.7894,3.4192,3.5704,8.5236,5.3421,15.3065,5.3421h43.549c6.8763,0,13.4197-1.7618,19.6951-5.2904,6.2585-3.5324,10.4053-7.8063,12.4476-12.841l9.2586-22.8079c2.0185-4.9691,1.3217-9.236-2.0974-12.8039m-25.8003,35.6119c-.5266,1.2685-1.5468,2.334-3.0597,3.1953-1.5372,.866-3.1701,1.3004-4.9034,1.3004h-43.5372c-1.4963,0-2.7055-.4455-3.6391-1.3521-.948-.9018-1.178-1.9379-.6848-3.1436l9.2657-22.8079c.4597-1.1563,1.652-2.1813,3.529-3.1088,1.9011-.9278,3.376-1.3818,4.4246-1.3818h43.5657c1.4725,0,2.6817,.4357,3.6177,1.3302,.9385,.9005,1.1852,1.9339,.6727,3.1605l-9.2513,22.8079ZM393.3622,13.2187c-3.438-3.5556-8.5785-5.3494-15.4428-5.3494h-37.2952c-6.7758,0-13.3383,1.7938-19.6448,5.3494-6.3161,3.5679-10.4676,7.8348-12.4981,12.8039l-16.6135,40.9394h18.644l16.6255-40.9394c.5124-1.2808,1.5228-2.3547,3.0455-3.2,1.5181-.8549,3.1556-1.2906,4.8939-1.2906h37.2881c1.5801,0,2.8371,.4357,3.7805,1.3302,.941,.9005,1.1611,1.9339,.6799,3.1605l-16.6329,40.9394h18.656l16.6209-40.9394c2.016-4.9691,1.3217-9.236-2.107-12.8039"/><path class="cls-1" d="M28.3591,27.6221l.6271-1.5748c.4695-1.1454,1.6569-2.1677,3.5555-3.0894,1.9084-.9373,3.3736-1.3926,4.4295-1.3926h1.142l5.5546-13.6959h-1.1395c-6.7949,0-13.3743,1.7938-19.6976,5.3617-6.3423,3.579-10.5036,7.8459-12.5339,12.8163l-.6274,1.5748H28.3591Z"/></g><path d="M512.5298,14.2725c0,2.1372-.376,4.0835-1.126,5.8389-.751,1.7554-1.7686,3.2568-3.0527,4.5034-1.2852,1.2466-2.7734,2.2134-4.4648,2.8999-1.6924,.687-3.4668,1.0308-5.3242,1.0308-2.0605,0-3.9492-.3628-5.667-1.0879-1.7168-.7251-3.1924-1.7231-4.4268-2.9956-1.2344-1.272-2.2012-2.7793-2.9004-4.5225-.7002-1.7422-1.0488-3.6313-1.0488-5.667,0-2.1372,.375-4.0835,1.125-5.8389,.751-1.7554,1.7686-3.2563,3.0537-4.5029,1.2842-1.2466,2.7793-2.2134,4.4834-2.9004s3.498-1.0303,5.3809-1.0303c1.8574,0,3.6318,.3433,5.3242,1.0303,1.6914,.687,3.1797,1.6538,4.4648,2.9004,1.2842,1.2466,2.3018,2.7476,3.0527,4.5029,.75,1.7554,1.126,3.7017,1.126,5.8389Zm-3.0527,0c0-1.73-.2803-3.3198-.8398-4.77s-1.3359-2.6968-2.3281-3.7402c-.9922-1.043-2.1504-1.8506-3.4727-2.4233-1.3232-.5723-2.7471-.8584-4.2744-.8584-1.5518,0-2.9951,.2861-4.3311,.8584-1.3359,.5728-2.5,1.3804-3.4922,2.4233-.9922,1.0435-1.7686,2.29-2.3271,3.7402-.5605,1.4502-.8398,3.04-.8398,4.77,0,1.6284,.2539,3.1548,.7627,4.5796,.5088,1.4253,1.2402,2.6714,2.1943,3.7397,.9541,1.0688,2.1055,1.915,3.4541,2.5381,1.3486,.6235,2.875,.9346,4.5791,.9346,1.5273,0,2.9512-.2861,4.2744-.8584,1.3223-.5723,2.4805-1.3799,3.4727-2.4233,.9922-1.043,1.7686-2.2832,2.3281-3.7207,.5596-1.437,.8398-3.0342,.8398-4.7896Zm-14.4199,8.167h-1.2325c-.3764,0-.6816-.3052-.6816-.6816V7.3217c0-.3764,.3052-.6816,.6816-.6816h5.3106c1.9072,0,3.3447,.3564,4.3115,1.0684,.9668,.7129,1.4502,1.8701,1.4502,3.4727,0,1.4253-.3945,2.4683-1.1826,3.1294-.5675,.4762-1.2334,.8137-1.9979,1.0129-.4446,.1159-.6483,.6288-.4013,1.0163l3.2196,5.0517c.2892,.4537-.0367,1.0479-.5748,1.0479h-1.3114c-.2386,0-.4599-.1248-.5833-.329l-3.6853-6.0969c-.1234-.2042-.3447-.329-.5833-.329h-1.3763c-.3764,0-.6816,.3052-.6816,.6816v5.3917c0,.3764-.3052,.6816-.6816,.6816Zm3.582-8.9683c.4824,0,.9473-.019,1.3926-.0571,.4443-.0386,.833-.1465,1.1641-.3247,.3301-.1777,.5977-.4258,.8008-.7441,.2041-.3179,.3057-.769,.3057-1.3545,0-.4834-.1084-.8647-.3242-1.145-.2168-.2798-.4902-.4961-.8203-.6489-.3311-.1523-.7002-.248-1.1074-.2861s-.8008-.0571-1.1826-.0571h-2.4473c-.3764,0-.6816,.3052-.6816,.6816v3.2545c0,.3764,.3052,.6816,.6816,.6816h2.2188Z"/></svg>