<svg xmlns="http://www.w3.org/2000/svg" width="162.924" height="24" viewBox="0 0 162.924 24"><g transform="translate(-93 -20)"><g transform="translate(93 20)"><path d="M155.357,445.6H137.434a1.272,1.272,0,0,1,0-2.543h17.923a1.272,1.272,0,0,1,0,2.543Z" transform="translate(-129.389 -422.449)" fill="#3597d1"/><path d="M125.387,445.6h-2.646a1.272,1.272,0,0,1,0-2.543h2.646a1.272,1.272,0,0,1,0,2.543Z" transform="translate(-121.478 -422.449)" fill="#3597d1"/><path d="M140.08,436.668h-2.646a1.272,1.272,0,0,1,0-2.544h2.646a1.272,1.272,0,0,1,0,2.544Z" transform="translate(-129.389 -417.641)" fill="#3597d1"/><path d="M140.08,418.812h-2.646a1.272,1.272,0,0,1,0-2.544h2.646a1.272,1.272,0,0,1,0,2.544Z" transform="translate(-129.389 -408.026)" fill="#3597d1"/><path d="M166.444,436.668H151.769a1.272,1.272,0,0,1,0-2.544h14.675a1.272,1.272,0,0,1,0,2.544Z" transform="translate(-137.109 -417.641)" fill="#125080"/><path d="M158.626,427.74h-6.857a1.272,1.272,0,0,1,0-2.544h6.857a1.272,1.272,0,0,1,0,2.544Z" transform="translate(-137.109 -412.834)" fill="#125080"/><path d="M181.82,427.74h-6.857a1.272,1.272,0,0,1,0-2.544h6.857a1.272,1.272,0,0,1,0,2.544Z" transform="translate(-149.598 -412.834)" fill="#125080"/><path d="M158.626,418.812h-6.857a1.272,1.272,0,0,1,0-2.544h6.857a1.272,1.272,0,0,1,0,2.544Z" transform="translate(-137.109 -408.026)" fill="#125080"/><path d="M188.858,418.812H182a1.272,1.272,0,0,1,0-2.544h6.857a1.272,1.272,0,0,1,0,2.544Z" transform="translate(-153.387 -408.026)" fill="#125080"/><path d="M143,409.884H122.741a1.272,1.272,0,0,1,0-2.544H143a1.272,1.272,0,0,1,0,2.544Z" transform="translate(-121.478 -403.22)" fill="#125080"/><path d="M197.718,409.884h-6.857a1.272,1.272,0,0,1,0-2.544h6.857a1.272,1.272,0,0,1,0,2.544Z" transform="translate(-158.158 -403.22)" fill="#125080"/><path d="M158.626,400.955h-6.857a1.272,1.272,0,0,1,0-2.544h6.857a1.272,1.272,0,0,1,0,2.544Z" transform="translate(-137.109 -398.412)" fill="#125080"/><path d="M204.233,400.955h-6.856a1.272,1.272,0,0,1,0-2.544h6.856a1.272,1.272,0,0,1,0,2.544Z" transform="translate(-161.666 -398.412)" fill="#125080"/><g transform="translate(45.701 7.976)"><path d="M234.953,418.22l-4.481,11.722a2.727,2.727,0,0,1-2.517,1.744h-.324a2.727,2.727,0,0,1-2.517-1.744l-4.5-11.722a1.351,1.351,0,0,1-.115-.6,1.739,1.739,0,0,1,3.371-.581l3.926,10.931,3.9-10.931a1.739,1.739,0,0,1,3.372.581A1.767,1.767,0,0,1,234.953,418.22Z" transform="translate(-220.496 -415.802)" fill="#125080"/><path d="M266.353,431.71h-7.782a1.86,1.86,0,0,1-1.848-1.86V418.057a1.86,1.86,0,0,1,1.848-1.86h7.782a1.454,1.454,0,0,1,0,2.907H260v3.279h6.189a1.454,1.454,0,0,1,0,2.907H260V428.8h6.351a1.435,1.435,0,0,1,1.409,1.419A1.451,1.451,0,0,1,266.353,431.71Z" transform="translate(-240.003 -415.964)" fill="#125080"/><path d="M297.65,431.686a2.052,2.052,0,0,1-1.639-.837l-6.836-9.419v8.628a1.639,1.639,0,0,1-3.279,0V418.011a2.156,2.156,0,0,1,2.148-2.116,2.229,2.229,0,0,1,1.8.907l6.559,8.977v-8.257a1.64,1.64,0,0,1,3.279,0v12.164A2.018,2.018,0,0,1,297.65,431.686Z" transform="translate(-255.711 -415.802)" fill="#125080"/><path d="M331.178,419.1h-3.21V430.2a1.652,1.652,0,0,1-3.3,0V419.1h-3.21a1.455,1.455,0,0,1-1.431-1.489,1.439,1.439,0,0,1,1.431-1.419h9.723a1.454,1.454,0,0,1,0,2.907Z" transform="translate(-274.087 -415.964)" fill="#125080"/><path d="M358.449,431.826c-4.689,0-6.951-2.651-6.951-6.465v-7.815a1.662,1.662,0,0,1,3.325,0v7.7a3.615,3.615,0,1,0,7.229,0v-7.7a1.674,1.674,0,0,1,3.348,0v7.791C365.4,429.2,363.138,431.826,358.449,431.826Z" transform="translate(-291.036 -415.802)" fill="#125080"/><path d="M392.894,431.717c-2.24,0-5.012-.744-5.866-2.023a1.4,1.4,0,0,1-.254-.791,1.562,1.562,0,0,1,1.547-1.535,1.491,1.491,0,0,1,.878.255,6.733,6.733,0,0,0,3.857,1.209c1.8,0,2.679-.837,2.679-1.721,0-2.744-8.869-.861-8.869-6.7,0-2.582,2.216-4.721,5.843-4.721,1.755,0,4.434.582,5.288,1.721a1.271,1.271,0,0,1,.277.791,1.637,1.637,0,0,1-2.47,1.256,6.914,6.914,0,0,0-3.4-.885c-1.408,0-2.194.628-2.194,1.559,0,2.465,8.845.814,8.845,6.6C399.06,429.578,397.051,431.717,392.894,431.717Z" transform="translate(-310.03 -415.693)" fill="#3597d1"/><path d="M428.222,431.686a1.508,1.508,0,0,1-1.247-.628l-4.3-5.722-1.2,1.443v3.279a1.64,1.64,0,0,1-3.279,0V417.522a1.64,1.64,0,0,1,3.279,0v5.442l5.08-6.465a1.473,1.473,0,0,1,1.178-.558,1.565,1.565,0,0,1,1.571,1.512,1.53,1.53,0,0,1-.347.977l-4.11,4.884,4.641,5.838a1.563,1.563,0,0,1,.323.93A1.633,1.633,0,0,1,428.222,431.686Z" transform="translate(-326.951 -415.802)" fill="#3597d1"/><path d="M459.429,418.271l-4.458,6.954v4.861a1.639,1.639,0,0,1-3.278,0v-4.861l-4.5-6.977a1.379,1.379,0,0,1-.231-.791,1.564,1.564,0,0,1,1.571-1.512,1.581,1.581,0,0,1,1.34.744l3.464,5.605,3.394-5.582a1.583,1.583,0,0,1,1.362-.767,1.533,1.533,0,0,1,1.57,1.512A1.5,1.5,0,0,1,459.429,418.271Z" transform="translate(-342.436 -415.829)" fill="#3597d1"/></g></g></g></svg>