<svg xmlns="http://www.w3.org/2000/svg" width="139.966" height="91.908" viewBox="0 0 139.966 91.908"><path d="M451,0h59.372V59.372H451V24.731h19.82V39.552h19.732V19.82H451Z" transform="translate(-411.448)" fill="#e31e24" fill-rule="evenodd"/><path d="M0,226H19.82v19.732H0Z" transform="translate(0 -206.18)" fill="#191919" fill-rule="evenodd"/><path d="M1353,226h19.82v19.732H1353Z" transform="translate(-1234.344 -206.18)" fill="#191919" fill-rule="evenodd"/><path d="M4.648,849.333v10.436H6.665c3.245,0,5.086-2.017,5.086-5.262,0-3.333-2.1-5.174-5.35-5.174ZM0,846H6.051c2.1,0,4.736,0,6.577,1.228a8.147,8.147,0,0,1,3.859,7.279,8.317,8.317,0,0,1-4.034,7.63c-2.017,1.14-4.736,1.14-6.928,1.14H0Zm32.185,0h4.648v10c0,2.017.351,4.209,2.719,4.209s2.982-2.192,2.982-4.209V846h4.473v10c0,4.823-2.543,7.717-7.454,7.717-4.823,0-7.367-2.894-7.367-7.717Zm35.956,3.333v10.436h1.929c3.333,0,5.086-2.017,5.086-5.262,0-3.333-2.017-5.174-5.262-5.174ZM63.493,846h6.051c2.1,0,4.736,0,6.577,1.228a8.072,8.072,0,0,1,3.771,7.279c0,3.245-1.14,5.964-4.034,7.63-2.017,1.14-4.648,1.14-6.928,1.14H63.493Zm32.185,0h12.015v3.245h-7.367v3.42h7.016V856h-7.016v3.946h7.63v3.333H95.679Zm28.5,0h4.56v7.454L134.09,846h5.174l-6.314,7.893,7.016,9.384h-5.788l-5.437-8.068v8.068h-4.56Z" transform="translate(0 -771.807)" fill="#191919"/></svg>